M48
; DRILL file {KiCad (5.1.10)-1} date 05/03/22 00:14:03
; FORMAT={-:-/ absolute / metric / decimal}
; #@! TF.CreationDate,2022-05-03T00:14:03-07:00
; #@! TF.GenerationSoftware,Kicad,Pcbnew,(5.1.10)-1
; #@! TF.FileFunction,Plated,1,2,PTH
FMAT,2
METRIC
T1C1.000
%
G90
G05
T1
X140.97Y-64.77
X140.97Y-67.31
X143.51Y-64.77
X143.51Y-67.31
X143.51Y-80.01
X143.51Y-82.55
X143.51Y-85.09
X143.51Y-87.63
X146.05Y-64.77
X146.05Y-67.31
X146.05Y-80.01
X146.05Y-82.55
X146.05Y-85.09
X146.05Y-87.63
X148.59Y-64.77
X148.59Y-67.31
X151.13Y-64.77
X151.13Y-67.31
X151.13Y-80.01
X153.67Y-64.77
X153.67Y-67.31
X153.67Y-80.01
X156.21Y-64.77
X156.21Y-67.31
X157.48Y-80.01
X157.48Y-82.55
X157.48Y-85.09
X158.75Y-64.77
X158.75Y-67.31
X161.29Y-64.77
X161.29Y-67.31
X162.56Y-80.01
X162.56Y-82.55
X162.56Y-85.09
X162.56Y-87.63
X163.83Y-64.77
X163.83Y-67.31
T0
M30
