G04 #@! TF.GenerationSoftware,KiCad,Pcbnew,(5.1.10)-1*
G04 #@! TF.CreationDate,2022-05-03T00:12:14-07:00*
G04 #@! TF.ProjectId,DUBloon,4455426c-6f6f-46e2-9e6b-696361645f70,rev?*
G04 #@! TF.SameCoordinates,Original*
G04 #@! TF.FileFunction,Legend,Bot*
G04 #@! TF.FilePolarity,Positive*
%FSLAX46Y46*%
G04 Gerber Fmt 4.6, Leading zero omitted, Abs format (unit mm)*
G04 Created by KiCad (PCBNEW (5.1.10)-1) date 2022-05-03 00:12:14*
%MOMM*%
%LPD*%
G01*
G04 APERTURE LIST*
%ADD10C,0.010000*%
%ADD11R,1.700000X1.700000*%
%ADD12O,1.700000X1.700000*%
%ADD13C,3.200000*%
G04 APERTURE END LIST*
D10*
G36*
X168961182Y-65754963D02*
G01*
X168963171Y-66016259D01*
X168968029Y-66201821D01*
X168977016Y-66324581D01*
X168991395Y-66397471D01*
X169012427Y-66433424D01*
X169041374Y-66445372D01*
X169062400Y-66446400D01*
X169096542Y-66442477D01*
X169122035Y-66422088D01*
X169140138Y-66372301D01*
X169152115Y-66280182D01*
X169159226Y-66132800D01*
X169162734Y-65917221D01*
X169163899Y-65620513D01*
X169164000Y-65405000D01*
X169163617Y-65055036D01*
X169161628Y-64793740D01*
X169156770Y-64608178D01*
X169147783Y-64485418D01*
X169133404Y-64412528D01*
X169112372Y-64376575D01*
X169083425Y-64364627D01*
X169062400Y-64363600D01*
X169028257Y-64367522D01*
X169002764Y-64387911D01*
X168984661Y-64437698D01*
X168972684Y-64529817D01*
X168965573Y-64677199D01*
X168962065Y-64892778D01*
X168960900Y-65189486D01*
X168960800Y-65405000D01*
X168961182Y-65754963D01*
G37*
X168961182Y-65754963D02*
X168963171Y-66016259D01*
X168968029Y-66201821D01*
X168977016Y-66324581D01*
X168991395Y-66397471D01*
X169012427Y-66433424D01*
X169041374Y-66445372D01*
X169062400Y-66446400D01*
X169096542Y-66442477D01*
X169122035Y-66422088D01*
X169140138Y-66372301D01*
X169152115Y-66280182D01*
X169159226Y-66132800D01*
X169162734Y-65917221D01*
X169163899Y-65620513D01*
X169164000Y-65405000D01*
X169163617Y-65055036D01*
X169161628Y-64793740D01*
X169156770Y-64608178D01*
X169147783Y-64485418D01*
X169133404Y-64412528D01*
X169112372Y-64376575D01*
X169083425Y-64364627D01*
X169062400Y-64363600D01*
X169028257Y-64367522D01*
X169002764Y-64387911D01*
X168984661Y-64437698D01*
X168972684Y-64529817D01*
X168965573Y-64677199D01*
X168962065Y-64892778D01*
X168960900Y-65189486D01*
X168960800Y-65405000D01*
X168961182Y-65754963D01*
G36*
X166122140Y-71449571D02*
G01*
X166159235Y-71509384D01*
X166255293Y-71531506D01*
X166305367Y-71536033D01*
X166422805Y-71552567D01*
X166484589Y-71595953D01*
X166518016Y-71695424D01*
X166533473Y-71780323D01*
X166604987Y-72029371D01*
X166722600Y-72191019D01*
X166890687Y-72270499D01*
X166950091Y-72278977D01*
X167118695Y-72269847D01*
X167249469Y-72197903D01*
X167370666Y-72046268D01*
X167389098Y-72016702D01*
X167477331Y-71872004D01*
X167511020Y-72025388D01*
X167570970Y-72173526D01*
X167664224Y-72307731D01*
X167840389Y-72440230D01*
X168025386Y-72479868D01*
X168207625Y-72433311D01*
X168375518Y-72307223D01*
X168517474Y-72108270D01*
X168621906Y-71843118D01*
X168645980Y-71743089D01*
X168681553Y-71617629D01*
X168742435Y-71557103D01*
X168864408Y-71529296D01*
X168886650Y-71526400D01*
X169015933Y-71503307D01*
X169073139Y-71458565D01*
X169087484Y-71362658D01*
X169087800Y-71323200D01*
X169079914Y-71206031D01*
X169036169Y-71152556D01*
X168926433Y-71132158D01*
X168897300Y-71129633D01*
X168770645Y-71109597D01*
X168716786Y-71064030D01*
X168706800Y-70989933D01*
X168718399Y-70910002D01*
X168772156Y-70874482D01*
X168896511Y-70866026D01*
X168910000Y-70866000D01*
X169040140Y-70860425D01*
X169097980Y-70827449D01*
X169112776Y-70742692D01*
X169113200Y-70696666D01*
X169103906Y-70571144D01*
X169081333Y-70495760D01*
X169079333Y-70493466D01*
X169009618Y-70470220D01*
X168886191Y-70459658D01*
X168876133Y-70459600D01*
X168772076Y-70454217D01*
X168722801Y-70419644D01*
X168707831Y-70328241D01*
X168706800Y-70231000D01*
X168706800Y-70002400D01*
X168402000Y-70002400D01*
X168402000Y-70510400D01*
X168401921Y-71005700D01*
X168395833Y-71279416D01*
X168375572Y-71475860D01*
X168337986Y-71618759D01*
X168313021Y-71674995D01*
X168201427Y-71843666D01*
X168079052Y-71920407D01*
X167935971Y-71916098D01*
X167834152Y-71864503D01*
X167758691Y-71759844D01*
X167705477Y-71589687D01*
X167670395Y-71341596D01*
X167651593Y-71056500D01*
X167626949Y-70510400D01*
X168402000Y-70510400D01*
X168402000Y-70002400D01*
X166776400Y-70002400D01*
X166776400Y-70510400D01*
X167399843Y-70510400D01*
X167373883Y-70980300D01*
X167355406Y-71205569D01*
X167328196Y-71406436D01*
X167296984Y-71550989D01*
X167283880Y-71587105D01*
X167182800Y-71724899D01*
X167051046Y-71766874D01*
X166969533Y-71751804D01*
X166886708Y-71698501D01*
X166829479Y-71591184D01*
X166794497Y-71416636D01*
X166778410Y-71161637D01*
X166776400Y-70989692D01*
X166776400Y-70510400D01*
X166776400Y-70002400D01*
X166471600Y-70002400D01*
X166471600Y-70231000D01*
X166467804Y-70371461D01*
X166442080Y-70437974D01*
X166372921Y-70458189D01*
X166293800Y-70459600D01*
X166179960Y-70465751D01*
X166129370Y-70503734D01*
X166116397Y-70602840D01*
X166116000Y-70662800D01*
X166121382Y-70792901D01*
X166154617Y-70850719D01*
X166241335Y-70865545D01*
X166293800Y-70866000D01*
X166414038Y-70875488D01*
X166463262Y-70918187D01*
X166471600Y-70993000D01*
X166458315Y-71078884D01*
X166398537Y-71114044D01*
X166293800Y-71120000D01*
X166179360Y-71126331D01*
X166128942Y-71164994D01*
X166116332Y-71265497D01*
X166116000Y-71320133D01*
X166122140Y-71449571D01*
G37*
X166122140Y-71449571D02*
X166159235Y-71509384D01*
X166255293Y-71531506D01*
X166305367Y-71536033D01*
X166422805Y-71552567D01*
X166484589Y-71595953D01*
X166518016Y-71695424D01*
X166533473Y-71780323D01*
X166604987Y-72029371D01*
X166722600Y-72191019D01*
X166890687Y-72270499D01*
X166950091Y-72278977D01*
X167118695Y-72269847D01*
X167249469Y-72197903D01*
X167370666Y-72046268D01*
X167389098Y-72016702D01*
X167477331Y-71872004D01*
X167511020Y-72025388D01*
X167570970Y-72173526D01*
X167664224Y-72307731D01*
X167840389Y-72440230D01*
X168025386Y-72479868D01*
X168207625Y-72433311D01*
X168375518Y-72307223D01*
X168517474Y-72108270D01*
X168621906Y-71843118D01*
X168645980Y-71743089D01*
X168681553Y-71617629D01*
X168742435Y-71557103D01*
X168864408Y-71529296D01*
X168886650Y-71526400D01*
X169015933Y-71503307D01*
X169073139Y-71458565D01*
X169087484Y-71362658D01*
X169087800Y-71323200D01*
X169079914Y-71206031D01*
X169036169Y-71152556D01*
X168926433Y-71132158D01*
X168897300Y-71129633D01*
X168770645Y-71109597D01*
X168716786Y-71064030D01*
X168706800Y-70989933D01*
X168718399Y-70910002D01*
X168772156Y-70874482D01*
X168896511Y-70866026D01*
X168910000Y-70866000D01*
X169040140Y-70860425D01*
X169097980Y-70827449D01*
X169112776Y-70742692D01*
X169113200Y-70696666D01*
X169103906Y-70571144D01*
X169081333Y-70495760D01*
X169079333Y-70493466D01*
X169009618Y-70470220D01*
X168886191Y-70459658D01*
X168876133Y-70459600D01*
X168772076Y-70454217D01*
X168722801Y-70419644D01*
X168707831Y-70328241D01*
X168706800Y-70231000D01*
X168706800Y-70002400D01*
X168402000Y-70002400D01*
X168402000Y-70510400D01*
X168401921Y-71005700D01*
X168395833Y-71279416D01*
X168375572Y-71475860D01*
X168337986Y-71618759D01*
X168313021Y-71674995D01*
X168201427Y-71843666D01*
X168079052Y-71920407D01*
X167935971Y-71916098D01*
X167834152Y-71864503D01*
X167758691Y-71759844D01*
X167705477Y-71589687D01*
X167670395Y-71341596D01*
X167651593Y-71056500D01*
X167626949Y-70510400D01*
X168402000Y-70510400D01*
X168402000Y-70002400D01*
X166776400Y-70002400D01*
X166776400Y-70510400D01*
X167399843Y-70510400D01*
X167373883Y-70980300D01*
X167355406Y-71205569D01*
X167328196Y-71406436D01*
X167296984Y-71550989D01*
X167283880Y-71587105D01*
X167182800Y-71724899D01*
X167051046Y-71766874D01*
X166969533Y-71751804D01*
X166886708Y-71698501D01*
X166829479Y-71591184D01*
X166794497Y-71416636D01*
X166778410Y-71161637D01*
X166776400Y-70989692D01*
X166776400Y-70510400D01*
X166776400Y-70002400D01*
X166471600Y-70002400D01*
X166471600Y-70231000D01*
X166467804Y-70371461D01*
X166442080Y-70437974D01*
X166372921Y-70458189D01*
X166293800Y-70459600D01*
X166179960Y-70465751D01*
X166129370Y-70503734D01*
X166116397Y-70602840D01*
X166116000Y-70662800D01*
X166121382Y-70792901D01*
X166154617Y-70850719D01*
X166241335Y-70865545D01*
X166293800Y-70866000D01*
X166414038Y-70875488D01*
X166463262Y-70918187D01*
X166471600Y-70993000D01*
X166458315Y-71078884D01*
X166398537Y-71114044D01*
X166293800Y-71120000D01*
X166179360Y-71126331D01*
X166128942Y-71164994D01*
X166116332Y-71265497D01*
X166116000Y-71320133D01*
X166122140Y-71449571D01*
G36*
X166374117Y-66393946D02*
G01*
X166395131Y-66469150D01*
X166446031Y-66494793D01*
X166497000Y-66497200D01*
X166575369Y-66506674D01*
X166612499Y-66553248D01*
X166623514Y-66664141D01*
X166624000Y-66725800D01*
X166630647Y-66868656D01*
X166658251Y-66936209D01*
X166718301Y-66954312D01*
X166725600Y-66954400D01*
X166789091Y-66939442D01*
X166819115Y-66877334D01*
X166827161Y-66742222D01*
X166827200Y-66725800D01*
X166827200Y-66497200D01*
X168706800Y-66497200D01*
X168706800Y-66243200D01*
X168696624Y-66076543D01*
X168664097Y-65998485D01*
X168638406Y-65989200D01*
X168605007Y-65969717D01*
X168608462Y-65898572D01*
X168650465Y-65756716D01*
X168662147Y-65722500D01*
X168729909Y-65425430D01*
X168748509Y-65099189D01*
X168716131Y-64794593D01*
X168697955Y-64721055D01*
X168579001Y-64444805D01*
X168403856Y-64253061D01*
X168170555Y-64144455D01*
X167877133Y-64117621D01*
X167869630Y-64118051D01*
X167869630Y-64617600D01*
X168095841Y-64638217D01*
X168250878Y-64708313D01*
X168358145Y-64840250D01*
X168382053Y-64888299D01*
X168423243Y-65055272D01*
X168433846Y-65281324D01*
X168415192Y-65529079D01*
X168368613Y-65761162D01*
X168348706Y-65824100D01*
X168290460Y-65989200D01*
X167841228Y-65989200D01*
X167637485Y-65984272D01*
X167474901Y-65971101D01*
X167378327Y-65952103D01*
X167363270Y-65942721D01*
X167329432Y-65833994D01*
X167307969Y-65659469D01*
X167300115Y-65454333D01*
X167307104Y-65253775D01*
X167330170Y-65092984D01*
X167333079Y-65081660D01*
X167429872Y-64843834D01*
X167571917Y-64693657D01*
X167767122Y-64624288D01*
X167869630Y-64617600D01*
X167869630Y-64118051D01*
X167834489Y-64120065D01*
X167647377Y-64142429D01*
X167517438Y-64188183D01*
X167400391Y-64275336D01*
X167360663Y-64312738D01*
X167230517Y-64469858D01*
X167122495Y-64651792D01*
X167100701Y-64702174D01*
X167044090Y-64926769D01*
X167014761Y-65209546D01*
X167014859Y-65510245D01*
X167043700Y-65773300D01*
X167063777Y-65907813D01*
X167052040Y-65970314D01*
X166997167Y-65988301D01*
X166954800Y-65989200D01*
X166893011Y-65985301D01*
X166855301Y-65960196D01*
X166835725Y-65893768D01*
X166828340Y-65765901D01*
X166827200Y-65557400D01*
X166825309Y-65347446D01*
X166816520Y-65219201D01*
X166796160Y-65152800D01*
X166759553Y-65128376D01*
X166725600Y-65125600D01*
X166676199Y-65133635D01*
X166646023Y-65170986D01*
X166630400Y-65257517D01*
X166624653Y-65413097D01*
X166624000Y-65557400D01*
X166622833Y-65766497D01*
X166615391Y-65894111D01*
X166595756Y-65960355D01*
X166558013Y-65985347D01*
X166497000Y-65989200D01*
X166421626Y-65997435D01*
X166384024Y-66039462D01*
X166371203Y-66141263D01*
X166370000Y-66243200D01*
X166374117Y-66393946D01*
G37*
X166374117Y-66393946D02*
X166395131Y-66469150D01*
X166446031Y-66494793D01*
X166497000Y-66497200D01*
X166575369Y-66506674D01*
X166612499Y-66553248D01*
X166623514Y-66664141D01*
X166624000Y-66725800D01*
X166630647Y-66868656D01*
X166658251Y-66936209D01*
X166718301Y-66954312D01*
X166725600Y-66954400D01*
X166789091Y-66939442D01*
X166819115Y-66877334D01*
X166827161Y-66742222D01*
X166827200Y-66725800D01*
X166827200Y-66497200D01*
X168706800Y-66497200D01*
X168706800Y-66243200D01*
X168696624Y-66076543D01*
X168664097Y-65998485D01*
X168638406Y-65989200D01*
X168605007Y-65969717D01*
X168608462Y-65898572D01*
X168650465Y-65756716D01*
X168662147Y-65722500D01*
X168729909Y-65425430D01*
X168748509Y-65099189D01*
X168716131Y-64794593D01*
X168697955Y-64721055D01*
X168579001Y-64444805D01*
X168403856Y-64253061D01*
X168170555Y-64144455D01*
X167877133Y-64117621D01*
X167869630Y-64118051D01*
X167869630Y-64617600D01*
X168095841Y-64638217D01*
X168250878Y-64708313D01*
X168358145Y-64840250D01*
X168382053Y-64888299D01*
X168423243Y-65055272D01*
X168433846Y-65281324D01*
X168415192Y-65529079D01*
X168368613Y-65761162D01*
X168348706Y-65824100D01*
X168290460Y-65989200D01*
X167841228Y-65989200D01*
X167637485Y-65984272D01*
X167474901Y-65971101D01*
X167378327Y-65952103D01*
X167363270Y-65942721D01*
X167329432Y-65833994D01*
X167307969Y-65659469D01*
X167300115Y-65454333D01*
X167307104Y-65253775D01*
X167330170Y-65092984D01*
X167333079Y-65081660D01*
X167429872Y-64843834D01*
X167571917Y-64693657D01*
X167767122Y-64624288D01*
X167869630Y-64617600D01*
X167869630Y-64118051D01*
X167834489Y-64120065D01*
X167647377Y-64142429D01*
X167517438Y-64188183D01*
X167400391Y-64275336D01*
X167360663Y-64312738D01*
X167230517Y-64469858D01*
X167122495Y-64651792D01*
X167100701Y-64702174D01*
X167044090Y-64926769D01*
X167014761Y-65209546D01*
X167014859Y-65510245D01*
X167043700Y-65773300D01*
X167063777Y-65907813D01*
X167052040Y-65970314D01*
X166997167Y-65988301D01*
X166954800Y-65989200D01*
X166893011Y-65985301D01*
X166855301Y-65960196D01*
X166835725Y-65893768D01*
X166828340Y-65765901D01*
X166827200Y-65557400D01*
X166825309Y-65347446D01*
X166816520Y-65219201D01*
X166796160Y-65152800D01*
X166759553Y-65128376D01*
X166725600Y-65125600D01*
X166676199Y-65133635D01*
X166646023Y-65170986D01*
X166630400Y-65257517D01*
X166624653Y-65413097D01*
X166624000Y-65557400D01*
X166622833Y-65766497D01*
X166615391Y-65894111D01*
X166595756Y-65960355D01*
X166558013Y-65985347D01*
X166497000Y-65989200D01*
X166421626Y-65997435D01*
X166384024Y-66039462D01*
X166371203Y-66141263D01*
X166370000Y-66243200D01*
X166374117Y-66393946D01*
G36*
X166525700Y-68122643D02*
G01*
X166546663Y-68196605D01*
X166601880Y-68221732D01*
X166680235Y-68224400D01*
X166791779Y-68239202D01*
X166814048Y-68286447D01*
X166812226Y-68291747D01*
X166793813Y-68374513D01*
X166770989Y-68524889D01*
X166750073Y-68698147D01*
X166732295Y-68878045D01*
X166731531Y-68979443D01*
X166753817Y-69024848D01*
X166805193Y-69036766D01*
X166841028Y-69037200D01*
X166901091Y-69033369D01*
X166943671Y-69010381D01*
X166975345Y-68950993D01*
X167002691Y-68837961D01*
X167032284Y-68654041D01*
X167059003Y-68465700D01*
X167088101Y-68315419D01*
X167129170Y-68242923D01*
X167194075Y-68224400D01*
X167267188Y-68245647D01*
X167271010Y-68326541D01*
X167268272Y-68338700D01*
X167247153Y-68452363D01*
X167221914Y-68622197D01*
X167206112Y-68745100D01*
X167188608Y-68908904D01*
X167191580Y-68996081D01*
X167222665Y-69030790D01*
X167289498Y-69037187D01*
X167298439Y-69037200D01*
X167371061Y-69027738D01*
X167421998Y-68987497D01*
X167458730Y-68898693D01*
X167488736Y-68743540D01*
X167518307Y-68514377D01*
X167552388Y-68224400D01*
X167977194Y-68224400D01*
X168184988Y-68226292D01*
X168311263Y-68235217D01*
X168376075Y-68256050D01*
X168399483Y-68293666D01*
X168402000Y-68327631D01*
X168356124Y-68547801D01*
X168232922Y-68763994D01*
X168054033Y-68949241D01*
X167841095Y-69076572D01*
X167785420Y-69096092D01*
X167668918Y-69136108D01*
X167611064Y-69186390D01*
X167591331Y-69279511D01*
X167589200Y-69407487D01*
X167589199Y-69660093D01*
X167773414Y-69630199D01*
X168038403Y-69537572D01*
X168270032Y-69357394D01*
X168461339Y-69100227D01*
X168605362Y-68776630D01*
X168695141Y-68397163D01*
X168716872Y-68199000D01*
X168724170Y-68025107D01*
X168721822Y-67876916D01*
X168717361Y-67830700D01*
X168704539Y-67779858D01*
X168672470Y-67746874D01*
X168602498Y-67727892D01*
X168475968Y-67719058D01*
X168274225Y-67716517D01*
X168164213Y-67716400D01*
X167628692Y-67716400D01*
X167656390Y-67551300D01*
X167699101Y-67296261D01*
X167724822Y-67125425D01*
X167732192Y-67022605D01*
X167719855Y-66971613D01*
X167686449Y-66956262D01*
X167630616Y-66960365D01*
X167607018Y-66963231D01*
X167531768Y-66977376D01*
X167484673Y-67013574D01*
X167454590Y-67094405D01*
X167430372Y-67242448D01*
X167417058Y-67348100D01*
X167389912Y-67540556D01*
X167361791Y-67652322D01*
X167324537Y-67704049D01*
X167271590Y-67716400D01*
X167212477Y-67706012D01*
X167189401Y-67657734D01*
X167195206Y-67545888D01*
X167204356Y-67475100D01*
X167230605Y-67296696D01*
X167256998Y-67136877D01*
X167264960Y-67094100D01*
X167273497Y-66995349D01*
X167226364Y-66958963D01*
X167143077Y-66954400D01*
X167065780Y-66958671D01*
X167017862Y-66985858D01*
X166987936Y-67057519D01*
X166964616Y-67195211D01*
X166948541Y-67322700D01*
X166903400Y-67691000D01*
X166712899Y-67706766D01*
X166522399Y-67722533D01*
X166522399Y-67973466D01*
X166525700Y-68122643D01*
G37*
X166525700Y-68122643D02*
X166546663Y-68196605D01*
X166601880Y-68221732D01*
X166680235Y-68224400D01*
X166791779Y-68239202D01*
X166814048Y-68286447D01*
X166812226Y-68291747D01*
X166793813Y-68374513D01*
X166770989Y-68524889D01*
X166750073Y-68698147D01*
X166732295Y-68878045D01*
X166731531Y-68979443D01*
X166753817Y-69024848D01*
X166805193Y-69036766D01*
X166841028Y-69037200D01*
X166901091Y-69033369D01*
X166943671Y-69010381D01*
X166975345Y-68950993D01*
X167002691Y-68837961D01*
X167032284Y-68654041D01*
X167059003Y-68465700D01*
X167088101Y-68315419D01*
X167129170Y-68242923D01*
X167194075Y-68224400D01*
X167267188Y-68245647D01*
X167271010Y-68326541D01*
X167268272Y-68338700D01*
X167247153Y-68452363D01*
X167221914Y-68622197D01*
X167206112Y-68745100D01*
X167188608Y-68908904D01*
X167191580Y-68996081D01*
X167222665Y-69030790D01*
X167289498Y-69037187D01*
X167298439Y-69037200D01*
X167371061Y-69027738D01*
X167421998Y-68987497D01*
X167458730Y-68898693D01*
X167488736Y-68743540D01*
X167518307Y-68514377D01*
X167552388Y-68224400D01*
X167977194Y-68224400D01*
X168184988Y-68226292D01*
X168311263Y-68235217D01*
X168376075Y-68256050D01*
X168399483Y-68293666D01*
X168402000Y-68327631D01*
X168356124Y-68547801D01*
X168232922Y-68763994D01*
X168054033Y-68949241D01*
X167841095Y-69076572D01*
X167785420Y-69096092D01*
X167668918Y-69136108D01*
X167611064Y-69186390D01*
X167591331Y-69279511D01*
X167589200Y-69407487D01*
X167589199Y-69660093D01*
X167773414Y-69630199D01*
X168038403Y-69537572D01*
X168270032Y-69357394D01*
X168461339Y-69100227D01*
X168605362Y-68776630D01*
X168695141Y-68397163D01*
X168716872Y-68199000D01*
X168724170Y-68025107D01*
X168721822Y-67876916D01*
X168717361Y-67830700D01*
X168704539Y-67779858D01*
X168672470Y-67746874D01*
X168602498Y-67727892D01*
X168475968Y-67719058D01*
X168274225Y-67716517D01*
X168164213Y-67716400D01*
X167628692Y-67716400D01*
X167656390Y-67551300D01*
X167699101Y-67296261D01*
X167724822Y-67125425D01*
X167732192Y-67022605D01*
X167719855Y-66971613D01*
X167686449Y-66956262D01*
X167630616Y-66960365D01*
X167607018Y-66963231D01*
X167531768Y-66977376D01*
X167484673Y-67013574D01*
X167454590Y-67094405D01*
X167430372Y-67242448D01*
X167417058Y-67348100D01*
X167389912Y-67540556D01*
X167361791Y-67652322D01*
X167324537Y-67704049D01*
X167271590Y-67716400D01*
X167212477Y-67706012D01*
X167189401Y-67657734D01*
X167195206Y-67545888D01*
X167204356Y-67475100D01*
X167230605Y-67296696D01*
X167256998Y-67136877D01*
X167264960Y-67094100D01*
X167273497Y-66995349D01*
X167226364Y-66958963D01*
X167143077Y-66954400D01*
X167065780Y-66958671D01*
X167017862Y-66985858D01*
X166987936Y-67057519D01*
X166964616Y-67195211D01*
X166948541Y-67322700D01*
X166903400Y-67691000D01*
X166712899Y-67706766D01*
X166522399Y-67722533D01*
X166522399Y-67973466D01*
X166525700Y-68122643D01*
G36*
X166448686Y-74574400D02*
G01*
X166453501Y-74869876D01*
X166467538Y-75078467D01*
X166495495Y-75214785D01*
X166542073Y-75293444D01*
X166611970Y-75329057D01*
X166693726Y-75336400D01*
X166863116Y-75336400D01*
X166794358Y-75071329D01*
X166736525Y-74749343D01*
X166733920Y-74459623D01*
X166783906Y-74218138D01*
X166883846Y-74040860D01*
X166976786Y-73966305D01*
X167087197Y-73933890D01*
X167246344Y-73915542D01*
X167304620Y-73914000D01*
X167534720Y-73914000D01*
X167549260Y-74409300D01*
X167557335Y-74637120D01*
X167568643Y-74782713D01*
X167588059Y-74865441D01*
X167620461Y-74904663D01*
X167670725Y-74919739D01*
X167678100Y-74920833D01*
X167729823Y-74924058D01*
X167762984Y-74904102D01*
X167781705Y-74843095D01*
X167790111Y-74723167D01*
X167792324Y-74526448D01*
X167792400Y-74425533D01*
X167793680Y-74193583D01*
X167800034Y-74044846D01*
X167815233Y-73960943D01*
X167843046Y-73923495D01*
X167887245Y-73914123D01*
X167897339Y-73914000D01*
X168088055Y-73864980D01*
X168251768Y-73718904D01*
X168302928Y-73644057D01*
X168401620Y-73482200D01*
X168402000Y-75387200D01*
X168706800Y-75387200D01*
X168706800Y-72898000D01*
X168541700Y-72898516D01*
X168430574Y-72911563D01*
X168359305Y-72967648D01*
X168294931Y-73093520D01*
X168291562Y-73101505D01*
X168187689Y-73270852D01*
X168072355Y-73354988D01*
X167917929Y-73402139D01*
X167832580Y-73388241D01*
X167797370Y-73302998D01*
X167792400Y-73202800D01*
X167785468Y-73071881D01*
X167752771Y-73013693D01*
X167676459Y-72999672D01*
X167665400Y-72999600D01*
X167583576Y-73010690D01*
X167547208Y-73063005D01*
X167538445Y-73185104D01*
X167538400Y-73202800D01*
X167538400Y-73406000D01*
X167271700Y-73406189D01*
X166998857Y-73440591D01*
X166787906Y-73549988D01*
X166622897Y-73744330D01*
X166567434Y-73845536D01*
X166507568Y-73983332D01*
X166471275Y-74119916D01*
X166453336Y-74287331D01*
X166448529Y-74517622D01*
X166448686Y-74574400D01*
G37*
X166448686Y-74574400D02*
X166453501Y-74869876D01*
X166467538Y-75078467D01*
X166495495Y-75214785D01*
X166542073Y-75293444D01*
X166611970Y-75329057D01*
X166693726Y-75336400D01*
X166863116Y-75336400D01*
X166794358Y-75071329D01*
X166736525Y-74749343D01*
X166733920Y-74459623D01*
X166783906Y-74218138D01*
X166883846Y-74040860D01*
X166976786Y-73966305D01*
X167087197Y-73933890D01*
X167246344Y-73915542D01*
X167304620Y-73914000D01*
X167534720Y-73914000D01*
X167549260Y-74409300D01*
X167557335Y-74637120D01*
X167568643Y-74782713D01*
X167588059Y-74865441D01*
X167620461Y-74904663D01*
X167670725Y-74919739D01*
X167678100Y-74920833D01*
X167729823Y-74924058D01*
X167762984Y-74904102D01*
X167781705Y-74843095D01*
X167790111Y-74723167D01*
X167792324Y-74526448D01*
X167792400Y-74425533D01*
X167793680Y-74193583D01*
X167800034Y-74044846D01*
X167815233Y-73960943D01*
X167843046Y-73923495D01*
X167887245Y-73914123D01*
X167897339Y-73914000D01*
X168088055Y-73864980D01*
X168251768Y-73718904D01*
X168302928Y-73644057D01*
X168401620Y-73482200D01*
X168402000Y-75387200D01*
X168706800Y-75387200D01*
X168706800Y-72898000D01*
X168541700Y-72898516D01*
X168430574Y-72911563D01*
X168359305Y-72967648D01*
X168294931Y-73093520D01*
X168291562Y-73101505D01*
X168187689Y-73270852D01*
X168072355Y-73354988D01*
X167917929Y-73402139D01*
X167832580Y-73388241D01*
X167797370Y-73302998D01*
X167792400Y-73202800D01*
X167785468Y-73071881D01*
X167752771Y-73013693D01*
X167676459Y-72999672D01*
X167665400Y-72999600D01*
X167583576Y-73010690D01*
X167547208Y-73063005D01*
X167538445Y-73185104D01*
X167538400Y-73202800D01*
X167538400Y-73406000D01*
X167271700Y-73406189D01*
X166998857Y-73440591D01*
X166787906Y-73549988D01*
X166622897Y-73744330D01*
X166567434Y-73845536D01*
X166507568Y-73983332D01*
X166471275Y-74119916D01*
X166453336Y-74287331D01*
X166448529Y-74517622D01*
X166448686Y-74574400D01*
G36*
X166828315Y-83273900D02*
G01*
X166830000Y-83615040D01*
X166835097Y-83871770D01*
X166845079Y-84061264D01*
X166861414Y-84200692D01*
X166885576Y-84307227D01*
X166919033Y-84398042D01*
X166925923Y-84413531D01*
X167038283Y-84592899D01*
X167192848Y-84708504D01*
X167407730Y-84769479D01*
X167662877Y-84785200D01*
X167995600Y-84785200D01*
X167995600Y-84328000D01*
X167712860Y-84328000D01*
X167537485Y-84319315D01*
X167393317Y-84297044D01*
X167337203Y-84278272D01*
X167251058Y-84197251D01*
X167190075Y-84053542D01*
X167151862Y-83836382D01*
X167134026Y-83535008D01*
X167132000Y-83355219D01*
X167132000Y-82804000D01*
X168706800Y-82804000D01*
X168706800Y-82346800D01*
X166827200Y-82346800D01*
X166828315Y-83273900D01*
G37*
X166828315Y-83273900D02*
X166830000Y-83615040D01*
X166835097Y-83871770D01*
X166845079Y-84061264D01*
X166861414Y-84200692D01*
X166885576Y-84307227D01*
X166919033Y-84398042D01*
X166925923Y-84413531D01*
X167038283Y-84592899D01*
X167192848Y-84708504D01*
X167407730Y-84769479D01*
X167662877Y-84785200D01*
X167995600Y-84785200D01*
X167995600Y-84328000D01*
X167712860Y-84328000D01*
X167537485Y-84319315D01*
X167393317Y-84297044D01*
X167337203Y-84278272D01*
X167251058Y-84197251D01*
X167190075Y-84053542D01*
X167151862Y-83836382D01*
X167134026Y-83535008D01*
X167132000Y-83355219D01*
X167132000Y-82804000D01*
X168706800Y-82804000D01*
X168706800Y-82346800D01*
X166827200Y-82346800D01*
X166828315Y-83273900D01*
G36*
X167552496Y-85750400D02*
G01*
X167872267Y-85747805D01*
X168107810Y-85736462D01*
X168276441Y-85711031D01*
X168395475Y-85666170D01*
X168482227Y-85596539D01*
X168554012Y-85496800D01*
X168591957Y-85429816D01*
X168623977Y-85354714D01*
X168648390Y-85253300D01*
X168666602Y-85110460D01*
X168680018Y-84911079D01*
X168690044Y-84640043D01*
X168697942Y-84289900D01*
X168716149Y-83312000D01*
X167538400Y-83312000D01*
X167538400Y-83769200D01*
X168417440Y-83769200D01*
X168387225Y-84408683D01*
X168371367Y-84727160D01*
X168349232Y-84958301D01*
X168306983Y-85116085D01*
X168230782Y-85214494D01*
X168106793Y-85267510D01*
X167921179Y-85289113D01*
X167660103Y-85293284D01*
X167511828Y-85293200D01*
X166827200Y-85293200D01*
X166827200Y-85750400D01*
X167552496Y-85750400D01*
G37*
X167552496Y-85750400D02*
X167872267Y-85747805D01*
X168107810Y-85736462D01*
X168276441Y-85711031D01*
X168395475Y-85666170D01*
X168482227Y-85596539D01*
X168554012Y-85496800D01*
X168591957Y-85429816D01*
X168623977Y-85354714D01*
X168648390Y-85253300D01*
X168666602Y-85110460D01*
X168680018Y-84911079D01*
X168690044Y-84640043D01*
X168697942Y-84289900D01*
X168716149Y-83312000D01*
X167538400Y-83312000D01*
X167538400Y-83769200D01*
X168417440Y-83769200D01*
X168387225Y-84408683D01*
X168371367Y-84727160D01*
X168349232Y-84958301D01*
X168306983Y-85116085D01*
X168230782Y-85214494D01*
X168106793Y-85267510D01*
X167921179Y-85289113D01*
X167660103Y-85293284D01*
X167511828Y-85293200D01*
X166827200Y-85293200D01*
X166827200Y-85750400D01*
X167552496Y-85750400D01*
G36*
X166990896Y-76410106D02*
G01*
X167073508Y-76550925D01*
X167084325Y-76568523D01*
X167163878Y-76706548D01*
X167212027Y-76825225D01*
X167236668Y-76958715D01*
X167245694Y-77141175D01*
X167246854Y-77271809D01*
X167244128Y-77496725D01*
X167229215Y-77655099D01*
X167194526Y-77781882D01*
X167132476Y-77912027D01*
X167092526Y-77982874D01*
X167007988Y-78136175D01*
X166970753Y-78235276D01*
X166974422Y-78312227D01*
X167010316Y-78394680D01*
X167068418Y-78493305D01*
X167108044Y-78536704D01*
X167109023Y-78536800D01*
X167147740Y-78497578D01*
X167221028Y-78396456D01*
X167284702Y-78299542D01*
X167374945Y-78164485D01*
X167450302Y-78093397D01*
X167548952Y-78065093D01*
X167709072Y-78058393D01*
X167719603Y-78058242D01*
X168004040Y-78054200D01*
X168139520Y-78295448D01*
X168220705Y-78428994D01*
X168285843Y-78516626D01*
X168311795Y-78536748D01*
X168358000Y-78496443D01*
X168420007Y-78398599D01*
X168423981Y-78391011D01*
X168462756Y-78302388D01*
X168464736Y-78226445D01*
X168422981Y-78129808D01*
X168342114Y-77997311D01*
X168266742Y-77871105D01*
X168220510Y-77762283D01*
X168196630Y-77639452D01*
X168188310Y-77471217D01*
X168188271Y-77286044D01*
X168192868Y-77057213D01*
X168207387Y-76897758D01*
X168238985Y-76775497D01*
X168294816Y-76658244D01*
X168347642Y-76569226D01*
X168431039Y-76430299D01*
X168487181Y-76330276D01*
X168502470Y-76295981D01*
X168473595Y-76246632D01*
X168405244Y-76154289D01*
X168401244Y-76149200D01*
X168345680Y-76082856D01*
X168302093Y-76060687D01*
X168254654Y-76093606D01*
X168187531Y-76192529D01*
X168085904Y-76366618D01*
X167997677Y-76492163D01*
X167923942Y-76530094D01*
X167896492Y-76523405D01*
X167725987Y-76489683D01*
X167716200Y-76491205D01*
X167716200Y-76860400D01*
X167811275Y-76905785D01*
X167884908Y-77022539D01*
X167930752Y-77181559D01*
X167942459Y-77353739D01*
X167913681Y-77509977D01*
X167874084Y-77584300D01*
X167767745Y-77668915D01*
X167660680Y-77665079D01*
X167568414Y-77584630D01*
X167506475Y-77439410D01*
X167489215Y-77290803D01*
X167512496Y-77112434D01*
X167575405Y-76964410D01*
X167663181Y-76874722D01*
X167716200Y-76860400D01*
X167716200Y-76491205D01*
X167552027Y-76516753D01*
X167537011Y-76522981D01*
X167472927Y-76515806D01*
X167393667Y-76433031D01*
X167310439Y-76302694D01*
X167224907Y-76165516D01*
X167156801Y-76072914D01*
X167127170Y-76047600D01*
X167078088Y-76085579D01*
X167008154Y-76176914D01*
X167008028Y-76177107D01*
X166964129Y-76253837D01*
X166956427Y-76321290D01*
X166990896Y-76410106D01*
G37*
X166990896Y-76410106D02*
X167073508Y-76550925D01*
X167084325Y-76568523D01*
X167163878Y-76706548D01*
X167212027Y-76825225D01*
X167236668Y-76958715D01*
X167245694Y-77141175D01*
X167246854Y-77271809D01*
X167244128Y-77496725D01*
X167229215Y-77655099D01*
X167194526Y-77781882D01*
X167132476Y-77912027D01*
X167092526Y-77982874D01*
X167007988Y-78136175D01*
X166970753Y-78235276D01*
X166974422Y-78312227D01*
X167010316Y-78394680D01*
X167068418Y-78493305D01*
X167108044Y-78536704D01*
X167109023Y-78536800D01*
X167147740Y-78497578D01*
X167221028Y-78396456D01*
X167284702Y-78299542D01*
X167374945Y-78164485D01*
X167450302Y-78093397D01*
X167548952Y-78065093D01*
X167709072Y-78058393D01*
X167719603Y-78058242D01*
X168004040Y-78054200D01*
X168139520Y-78295448D01*
X168220705Y-78428994D01*
X168285843Y-78516626D01*
X168311795Y-78536748D01*
X168358000Y-78496443D01*
X168420007Y-78398599D01*
X168423981Y-78391011D01*
X168462756Y-78302388D01*
X168464736Y-78226445D01*
X168422981Y-78129808D01*
X168342114Y-77997311D01*
X168266742Y-77871105D01*
X168220510Y-77762283D01*
X168196630Y-77639452D01*
X168188310Y-77471217D01*
X168188271Y-77286044D01*
X168192868Y-77057213D01*
X168207387Y-76897758D01*
X168238985Y-76775497D01*
X168294816Y-76658244D01*
X168347642Y-76569226D01*
X168431039Y-76430299D01*
X168487181Y-76330276D01*
X168502470Y-76295981D01*
X168473595Y-76246632D01*
X168405244Y-76154289D01*
X168401244Y-76149200D01*
X168345680Y-76082856D01*
X168302093Y-76060687D01*
X168254654Y-76093606D01*
X168187531Y-76192529D01*
X168085904Y-76366618D01*
X167997677Y-76492163D01*
X167923942Y-76530094D01*
X167896492Y-76523405D01*
X167725987Y-76489683D01*
X167716200Y-76491205D01*
X167716200Y-76860400D01*
X167811275Y-76905785D01*
X167884908Y-77022539D01*
X167930752Y-77181559D01*
X167942459Y-77353739D01*
X167913681Y-77509977D01*
X167874084Y-77584300D01*
X167767745Y-77668915D01*
X167660680Y-77665079D01*
X167568414Y-77584630D01*
X167506475Y-77439410D01*
X167489215Y-77290803D01*
X167512496Y-77112434D01*
X167575405Y-76964410D01*
X167663181Y-76874722D01*
X167716200Y-76860400D01*
X167716200Y-76491205D01*
X167552027Y-76516753D01*
X167537011Y-76522981D01*
X167472927Y-76515806D01*
X167393667Y-76433031D01*
X167310439Y-76302694D01*
X167224907Y-76165516D01*
X167156801Y-76072914D01*
X167127170Y-76047600D01*
X167078088Y-76085579D01*
X167008154Y-76176914D01*
X167008028Y-76177107D01*
X166964129Y-76253837D01*
X166956427Y-76321290D01*
X166990896Y-76410106D01*
G36*
X167022820Y-81545852D02*
G01*
X167121281Y-81701360D01*
X167256718Y-81486814D01*
X167341333Y-81347563D01*
X167402999Y-81236642D01*
X167418748Y-81202968D01*
X167459116Y-81160344D01*
X167544238Y-81179246D01*
X167571651Y-81191220D01*
X167730474Y-81221996D01*
X167838226Y-81195827D01*
X167921933Y-81171558D01*
X167982104Y-81188442D01*
X168043493Y-81263556D01*
X168115953Y-81387422D01*
X168213654Y-81553325D01*
X168281057Y-81636534D01*
X168333626Y-81645066D01*
X168386821Y-81586939D01*
X168414468Y-81542212D01*
X168456451Y-81460463D01*
X168463632Y-81388945D01*
X168430299Y-81296338D01*
X168350738Y-81151318D01*
X168339668Y-81132118D01*
X168263348Y-80991370D01*
X168217210Y-80871463D01*
X168194188Y-80738674D01*
X168187214Y-80559281D01*
X168187874Y-80407744D01*
X168193556Y-80180460D01*
X168209694Y-80021661D01*
X168243804Y-79898278D01*
X168303401Y-79777239D01*
X168348195Y-79702238D01*
X168431380Y-79565090D01*
X168487642Y-79468588D01*
X168503265Y-79437736D01*
X168478163Y-79391966D01*
X168417250Y-79295901D01*
X168408133Y-79282019D01*
X168313335Y-79138239D01*
X168141767Y-79410791D01*
X168045114Y-79558178D01*
X167977523Y-79634188D01*
X167916605Y-79655052D01*
X167839969Y-79637001D01*
X167833061Y-79634565D01*
X167757434Y-79626748D01*
X167757434Y-80026951D01*
X167851899Y-80094073D01*
X167918252Y-80211521D01*
X167945642Y-80380500D01*
X167933478Y-80558469D01*
X167881170Y-80702882D01*
X167860726Y-80729899D01*
X167759843Y-80810777D01*
X167664464Y-80801402D01*
X167580500Y-80738726D01*
X167513372Y-80619729D01*
X167488238Y-80449433D01*
X167506030Y-80269471D01*
X167566680Y-80122903D01*
X167661013Y-80027112D01*
X167757434Y-80026951D01*
X167757434Y-79626748D01*
X167651879Y-79615837D01*
X167579859Y-79637577D01*
X167511556Y-79657754D01*
X167453370Y-79636195D01*
X167384882Y-79557077D01*
X167291823Y-79414431D01*
X167119851Y-79139497D01*
X167024934Y-79295575D01*
X166930017Y-79451652D01*
X167084813Y-79703228D01*
X167160744Y-79836046D01*
X167207329Y-79953897D01*
X167232040Y-80089764D01*
X167242347Y-80276629D01*
X167244532Y-80408398D01*
X167244339Y-80632083D01*
X167233117Y-80787048D01*
X167203660Y-80906103D01*
X167148765Y-81022057D01*
X167086907Y-81126168D01*
X166924358Y-81390343D01*
X167022820Y-81545852D01*
G37*
X167022820Y-81545852D02*
X167121281Y-81701360D01*
X167256718Y-81486814D01*
X167341333Y-81347563D01*
X167402999Y-81236642D01*
X167418748Y-81202968D01*
X167459116Y-81160344D01*
X167544238Y-81179246D01*
X167571651Y-81191220D01*
X167730474Y-81221996D01*
X167838226Y-81195827D01*
X167921933Y-81171558D01*
X167982104Y-81188442D01*
X168043493Y-81263556D01*
X168115953Y-81387422D01*
X168213654Y-81553325D01*
X168281057Y-81636534D01*
X168333626Y-81645066D01*
X168386821Y-81586939D01*
X168414468Y-81542212D01*
X168456451Y-81460463D01*
X168463632Y-81388945D01*
X168430299Y-81296338D01*
X168350738Y-81151318D01*
X168339668Y-81132118D01*
X168263348Y-80991370D01*
X168217210Y-80871463D01*
X168194188Y-80738674D01*
X168187214Y-80559281D01*
X168187874Y-80407744D01*
X168193556Y-80180460D01*
X168209694Y-80021661D01*
X168243804Y-79898278D01*
X168303401Y-79777239D01*
X168348195Y-79702238D01*
X168431380Y-79565090D01*
X168487642Y-79468588D01*
X168503265Y-79437736D01*
X168478163Y-79391966D01*
X168417250Y-79295901D01*
X168408133Y-79282019D01*
X168313335Y-79138239D01*
X168141767Y-79410791D01*
X168045114Y-79558178D01*
X167977523Y-79634188D01*
X167916605Y-79655052D01*
X167839969Y-79637001D01*
X167833061Y-79634565D01*
X167757434Y-79626748D01*
X167757434Y-80026951D01*
X167851899Y-80094073D01*
X167918252Y-80211521D01*
X167945642Y-80380500D01*
X167933478Y-80558469D01*
X167881170Y-80702882D01*
X167860726Y-80729899D01*
X167759843Y-80810777D01*
X167664464Y-80801402D01*
X167580500Y-80738726D01*
X167513372Y-80619729D01*
X167488238Y-80449433D01*
X167506030Y-80269471D01*
X167566680Y-80122903D01*
X167661013Y-80027112D01*
X167757434Y-80026951D01*
X167757434Y-79626748D01*
X167651879Y-79615837D01*
X167579859Y-79637577D01*
X167511556Y-79657754D01*
X167453370Y-79636195D01*
X167384882Y-79557077D01*
X167291823Y-79414431D01*
X167119851Y-79139497D01*
X167024934Y-79295575D01*
X166930017Y-79451652D01*
X167084813Y-79703228D01*
X167160744Y-79836046D01*
X167207329Y-79953897D01*
X167232040Y-80089764D01*
X167242347Y-80276629D01*
X167244532Y-80408398D01*
X167244339Y-80632083D01*
X167233117Y-80787048D01*
X167203660Y-80906103D01*
X167148765Y-81022057D01*
X167086907Y-81126168D01*
X166924358Y-81390343D01*
X167022820Y-81545852D01*
G36*
X138481182Y-65754963D02*
G01*
X138483171Y-66016259D01*
X138488029Y-66201821D01*
X138497016Y-66324581D01*
X138511395Y-66397471D01*
X138532427Y-66433424D01*
X138561374Y-66445372D01*
X138582400Y-66446400D01*
X138616542Y-66442477D01*
X138642035Y-66422088D01*
X138660138Y-66372301D01*
X138672115Y-66280182D01*
X138679226Y-66132800D01*
X138682734Y-65917221D01*
X138683899Y-65620513D01*
X138684000Y-65405000D01*
X138683617Y-65055036D01*
X138681628Y-64793740D01*
X138676770Y-64608178D01*
X138667783Y-64485418D01*
X138653404Y-64412528D01*
X138632372Y-64376575D01*
X138603425Y-64364627D01*
X138582400Y-64363600D01*
X138548257Y-64367522D01*
X138522764Y-64387911D01*
X138504661Y-64437698D01*
X138492684Y-64529817D01*
X138485573Y-64677199D01*
X138482065Y-64892778D01*
X138480900Y-65189486D01*
X138480800Y-65405000D01*
X138481182Y-65754963D01*
G37*
X138481182Y-65754963D02*
X138483171Y-66016259D01*
X138488029Y-66201821D01*
X138497016Y-66324581D01*
X138511395Y-66397471D01*
X138532427Y-66433424D01*
X138561374Y-66445372D01*
X138582400Y-66446400D01*
X138616542Y-66442477D01*
X138642035Y-66422088D01*
X138660138Y-66372301D01*
X138672115Y-66280182D01*
X138679226Y-66132800D01*
X138682734Y-65917221D01*
X138683899Y-65620513D01*
X138684000Y-65405000D01*
X138683617Y-65055036D01*
X138681628Y-64793740D01*
X138676770Y-64608178D01*
X138667783Y-64485418D01*
X138653404Y-64412528D01*
X138632372Y-64376575D01*
X138603425Y-64364627D01*
X138582400Y-64363600D01*
X138548257Y-64367522D01*
X138522764Y-64387911D01*
X138504661Y-64437698D01*
X138492684Y-64529817D01*
X138485573Y-64677199D01*
X138482065Y-64892778D01*
X138480900Y-65189486D01*
X138480800Y-65405000D01*
X138481182Y-65754963D01*
G36*
X135642140Y-71449571D02*
G01*
X135679235Y-71509384D01*
X135775293Y-71531506D01*
X135825367Y-71536033D01*
X135942805Y-71552567D01*
X136004589Y-71595953D01*
X136038016Y-71695424D01*
X136053473Y-71780323D01*
X136124987Y-72029371D01*
X136242600Y-72191019D01*
X136410687Y-72270499D01*
X136470091Y-72278977D01*
X136638695Y-72269847D01*
X136769469Y-72197903D01*
X136890666Y-72046268D01*
X136909098Y-72016702D01*
X136997331Y-71872004D01*
X137031020Y-72025388D01*
X137090970Y-72173526D01*
X137184224Y-72307731D01*
X137360389Y-72440230D01*
X137545386Y-72479868D01*
X137727625Y-72433311D01*
X137895518Y-72307223D01*
X138037474Y-72108270D01*
X138141906Y-71843118D01*
X138165980Y-71743089D01*
X138201553Y-71617629D01*
X138262435Y-71557103D01*
X138384408Y-71529296D01*
X138406650Y-71526400D01*
X138535933Y-71503307D01*
X138593139Y-71458565D01*
X138607484Y-71362658D01*
X138607800Y-71323200D01*
X138599914Y-71206031D01*
X138556169Y-71152556D01*
X138446433Y-71132158D01*
X138417300Y-71129633D01*
X138290645Y-71109597D01*
X138236786Y-71064030D01*
X138226800Y-70989933D01*
X138238399Y-70910002D01*
X138292156Y-70874482D01*
X138416511Y-70866026D01*
X138430000Y-70866000D01*
X138560140Y-70860425D01*
X138617980Y-70827449D01*
X138632776Y-70742692D01*
X138633200Y-70696666D01*
X138623906Y-70571144D01*
X138601333Y-70495760D01*
X138599333Y-70493466D01*
X138529618Y-70470220D01*
X138406191Y-70459658D01*
X138396133Y-70459600D01*
X138292076Y-70454217D01*
X138242801Y-70419644D01*
X138227831Y-70328241D01*
X138226800Y-70231000D01*
X138226800Y-70002400D01*
X137922000Y-70002400D01*
X137922000Y-70510400D01*
X137921921Y-71005700D01*
X137915833Y-71279416D01*
X137895572Y-71475860D01*
X137857986Y-71618759D01*
X137833021Y-71674995D01*
X137721427Y-71843666D01*
X137599052Y-71920407D01*
X137455971Y-71916098D01*
X137354152Y-71864503D01*
X137278691Y-71759844D01*
X137225477Y-71589687D01*
X137190395Y-71341596D01*
X137171593Y-71056500D01*
X137146949Y-70510400D01*
X137922000Y-70510400D01*
X137922000Y-70002400D01*
X136296400Y-70002400D01*
X136296400Y-70510400D01*
X136919843Y-70510400D01*
X136893883Y-70980300D01*
X136875406Y-71205569D01*
X136848196Y-71406436D01*
X136816984Y-71550989D01*
X136803880Y-71587105D01*
X136702800Y-71724899D01*
X136571046Y-71766874D01*
X136489533Y-71751804D01*
X136406708Y-71698501D01*
X136349479Y-71591184D01*
X136314497Y-71416636D01*
X136298410Y-71161637D01*
X136296400Y-70989692D01*
X136296400Y-70510400D01*
X136296400Y-70002400D01*
X135991600Y-70002400D01*
X135991600Y-70231000D01*
X135987804Y-70371461D01*
X135962080Y-70437974D01*
X135892921Y-70458189D01*
X135813800Y-70459600D01*
X135699960Y-70465751D01*
X135649370Y-70503734D01*
X135636397Y-70602840D01*
X135636000Y-70662800D01*
X135641382Y-70792901D01*
X135674617Y-70850719D01*
X135761335Y-70865545D01*
X135813800Y-70866000D01*
X135934038Y-70875488D01*
X135983262Y-70918187D01*
X135991600Y-70993000D01*
X135978315Y-71078884D01*
X135918537Y-71114044D01*
X135813800Y-71120000D01*
X135699360Y-71126331D01*
X135648942Y-71164994D01*
X135636332Y-71265497D01*
X135636000Y-71320133D01*
X135642140Y-71449571D01*
G37*
X135642140Y-71449571D02*
X135679235Y-71509384D01*
X135775293Y-71531506D01*
X135825367Y-71536033D01*
X135942805Y-71552567D01*
X136004589Y-71595953D01*
X136038016Y-71695424D01*
X136053473Y-71780323D01*
X136124987Y-72029371D01*
X136242600Y-72191019D01*
X136410687Y-72270499D01*
X136470091Y-72278977D01*
X136638695Y-72269847D01*
X136769469Y-72197903D01*
X136890666Y-72046268D01*
X136909098Y-72016702D01*
X136997331Y-71872004D01*
X137031020Y-72025388D01*
X137090970Y-72173526D01*
X137184224Y-72307731D01*
X137360389Y-72440230D01*
X137545386Y-72479868D01*
X137727625Y-72433311D01*
X137895518Y-72307223D01*
X138037474Y-72108270D01*
X138141906Y-71843118D01*
X138165980Y-71743089D01*
X138201553Y-71617629D01*
X138262435Y-71557103D01*
X138384408Y-71529296D01*
X138406650Y-71526400D01*
X138535933Y-71503307D01*
X138593139Y-71458565D01*
X138607484Y-71362658D01*
X138607800Y-71323200D01*
X138599914Y-71206031D01*
X138556169Y-71152556D01*
X138446433Y-71132158D01*
X138417300Y-71129633D01*
X138290645Y-71109597D01*
X138236786Y-71064030D01*
X138226800Y-70989933D01*
X138238399Y-70910002D01*
X138292156Y-70874482D01*
X138416511Y-70866026D01*
X138430000Y-70866000D01*
X138560140Y-70860425D01*
X138617980Y-70827449D01*
X138632776Y-70742692D01*
X138633200Y-70696666D01*
X138623906Y-70571144D01*
X138601333Y-70495760D01*
X138599333Y-70493466D01*
X138529618Y-70470220D01*
X138406191Y-70459658D01*
X138396133Y-70459600D01*
X138292076Y-70454217D01*
X138242801Y-70419644D01*
X138227831Y-70328241D01*
X138226800Y-70231000D01*
X138226800Y-70002400D01*
X137922000Y-70002400D01*
X137922000Y-70510400D01*
X137921921Y-71005700D01*
X137915833Y-71279416D01*
X137895572Y-71475860D01*
X137857986Y-71618759D01*
X137833021Y-71674995D01*
X137721427Y-71843666D01*
X137599052Y-71920407D01*
X137455971Y-71916098D01*
X137354152Y-71864503D01*
X137278691Y-71759844D01*
X137225477Y-71589687D01*
X137190395Y-71341596D01*
X137171593Y-71056500D01*
X137146949Y-70510400D01*
X137922000Y-70510400D01*
X137922000Y-70002400D01*
X136296400Y-70002400D01*
X136296400Y-70510400D01*
X136919843Y-70510400D01*
X136893883Y-70980300D01*
X136875406Y-71205569D01*
X136848196Y-71406436D01*
X136816984Y-71550989D01*
X136803880Y-71587105D01*
X136702800Y-71724899D01*
X136571046Y-71766874D01*
X136489533Y-71751804D01*
X136406708Y-71698501D01*
X136349479Y-71591184D01*
X136314497Y-71416636D01*
X136298410Y-71161637D01*
X136296400Y-70989692D01*
X136296400Y-70510400D01*
X136296400Y-70002400D01*
X135991600Y-70002400D01*
X135991600Y-70231000D01*
X135987804Y-70371461D01*
X135962080Y-70437974D01*
X135892921Y-70458189D01*
X135813800Y-70459600D01*
X135699960Y-70465751D01*
X135649370Y-70503734D01*
X135636397Y-70602840D01*
X135636000Y-70662800D01*
X135641382Y-70792901D01*
X135674617Y-70850719D01*
X135761335Y-70865545D01*
X135813800Y-70866000D01*
X135934038Y-70875488D01*
X135983262Y-70918187D01*
X135991600Y-70993000D01*
X135978315Y-71078884D01*
X135918537Y-71114044D01*
X135813800Y-71120000D01*
X135699360Y-71126331D01*
X135648942Y-71164994D01*
X135636332Y-71265497D01*
X135636000Y-71320133D01*
X135642140Y-71449571D01*
G36*
X135894117Y-66393946D02*
G01*
X135915131Y-66469150D01*
X135966031Y-66494793D01*
X136017000Y-66497200D01*
X136095369Y-66506674D01*
X136132499Y-66553248D01*
X136143514Y-66664141D01*
X136144000Y-66725800D01*
X136150647Y-66868656D01*
X136178251Y-66936209D01*
X136238301Y-66954312D01*
X136245600Y-66954400D01*
X136309091Y-66939442D01*
X136339115Y-66877334D01*
X136347161Y-66742222D01*
X136347200Y-66725800D01*
X136347200Y-66497200D01*
X138226800Y-66497200D01*
X138226800Y-66243200D01*
X138216624Y-66076543D01*
X138184097Y-65998485D01*
X138158406Y-65989200D01*
X138125007Y-65969717D01*
X138128462Y-65898572D01*
X138170465Y-65756716D01*
X138182147Y-65722500D01*
X138249909Y-65425430D01*
X138268509Y-65099189D01*
X138236131Y-64794593D01*
X138217955Y-64721055D01*
X138099001Y-64444805D01*
X137923856Y-64253061D01*
X137690555Y-64144455D01*
X137397133Y-64117621D01*
X137389630Y-64118051D01*
X137389630Y-64617600D01*
X137615841Y-64638217D01*
X137770878Y-64708313D01*
X137878145Y-64840250D01*
X137902053Y-64888299D01*
X137943243Y-65055272D01*
X137953846Y-65281324D01*
X137935192Y-65529079D01*
X137888613Y-65761162D01*
X137868706Y-65824100D01*
X137810460Y-65989200D01*
X137361228Y-65989200D01*
X137157485Y-65984272D01*
X136994901Y-65971101D01*
X136898327Y-65952103D01*
X136883270Y-65942721D01*
X136849432Y-65833994D01*
X136827969Y-65659469D01*
X136820115Y-65454333D01*
X136827104Y-65253775D01*
X136850170Y-65092984D01*
X136853079Y-65081660D01*
X136949872Y-64843834D01*
X137091917Y-64693657D01*
X137287122Y-64624288D01*
X137389630Y-64617600D01*
X137389630Y-64118051D01*
X137354489Y-64120065D01*
X137167377Y-64142429D01*
X137037438Y-64188183D01*
X136920391Y-64275336D01*
X136880663Y-64312738D01*
X136750517Y-64469858D01*
X136642495Y-64651792D01*
X136620701Y-64702174D01*
X136564090Y-64926769D01*
X136534761Y-65209546D01*
X136534859Y-65510245D01*
X136563700Y-65773300D01*
X136583777Y-65907813D01*
X136572040Y-65970314D01*
X136517167Y-65988301D01*
X136474800Y-65989200D01*
X136413011Y-65985301D01*
X136375301Y-65960196D01*
X136355725Y-65893768D01*
X136348340Y-65765901D01*
X136347200Y-65557400D01*
X136345309Y-65347446D01*
X136336520Y-65219201D01*
X136316160Y-65152800D01*
X136279553Y-65128376D01*
X136245600Y-65125600D01*
X136196199Y-65133635D01*
X136166023Y-65170986D01*
X136150400Y-65257517D01*
X136144653Y-65413097D01*
X136144000Y-65557400D01*
X136142833Y-65766497D01*
X136135391Y-65894111D01*
X136115756Y-65960355D01*
X136078013Y-65985347D01*
X136017000Y-65989200D01*
X135941626Y-65997435D01*
X135904024Y-66039462D01*
X135891203Y-66141263D01*
X135890000Y-66243200D01*
X135894117Y-66393946D01*
G37*
X135894117Y-66393946D02*
X135915131Y-66469150D01*
X135966031Y-66494793D01*
X136017000Y-66497200D01*
X136095369Y-66506674D01*
X136132499Y-66553248D01*
X136143514Y-66664141D01*
X136144000Y-66725800D01*
X136150647Y-66868656D01*
X136178251Y-66936209D01*
X136238301Y-66954312D01*
X136245600Y-66954400D01*
X136309091Y-66939442D01*
X136339115Y-66877334D01*
X136347161Y-66742222D01*
X136347200Y-66725800D01*
X136347200Y-66497200D01*
X138226800Y-66497200D01*
X138226800Y-66243200D01*
X138216624Y-66076543D01*
X138184097Y-65998485D01*
X138158406Y-65989200D01*
X138125007Y-65969717D01*
X138128462Y-65898572D01*
X138170465Y-65756716D01*
X138182147Y-65722500D01*
X138249909Y-65425430D01*
X138268509Y-65099189D01*
X138236131Y-64794593D01*
X138217955Y-64721055D01*
X138099001Y-64444805D01*
X137923856Y-64253061D01*
X137690555Y-64144455D01*
X137397133Y-64117621D01*
X137389630Y-64118051D01*
X137389630Y-64617600D01*
X137615841Y-64638217D01*
X137770878Y-64708313D01*
X137878145Y-64840250D01*
X137902053Y-64888299D01*
X137943243Y-65055272D01*
X137953846Y-65281324D01*
X137935192Y-65529079D01*
X137888613Y-65761162D01*
X137868706Y-65824100D01*
X137810460Y-65989200D01*
X137361228Y-65989200D01*
X137157485Y-65984272D01*
X136994901Y-65971101D01*
X136898327Y-65952103D01*
X136883270Y-65942721D01*
X136849432Y-65833994D01*
X136827969Y-65659469D01*
X136820115Y-65454333D01*
X136827104Y-65253775D01*
X136850170Y-65092984D01*
X136853079Y-65081660D01*
X136949872Y-64843834D01*
X137091917Y-64693657D01*
X137287122Y-64624288D01*
X137389630Y-64617600D01*
X137389630Y-64118051D01*
X137354489Y-64120065D01*
X137167377Y-64142429D01*
X137037438Y-64188183D01*
X136920391Y-64275336D01*
X136880663Y-64312738D01*
X136750517Y-64469858D01*
X136642495Y-64651792D01*
X136620701Y-64702174D01*
X136564090Y-64926769D01*
X136534761Y-65209546D01*
X136534859Y-65510245D01*
X136563700Y-65773300D01*
X136583777Y-65907813D01*
X136572040Y-65970314D01*
X136517167Y-65988301D01*
X136474800Y-65989200D01*
X136413011Y-65985301D01*
X136375301Y-65960196D01*
X136355725Y-65893768D01*
X136348340Y-65765901D01*
X136347200Y-65557400D01*
X136345309Y-65347446D01*
X136336520Y-65219201D01*
X136316160Y-65152800D01*
X136279553Y-65128376D01*
X136245600Y-65125600D01*
X136196199Y-65133635D01*
X136166023Y-65170986D01*
X136150400Y-65257517D01*
X136144653Y-65413097D01*
X136144000Y-65557400D01*
X136142833Y-65766497D01*
X136135391Y-65894111D01*
X136115756Y-65960355D01*
X136078013Y-65985347D01*
X136017000Y-65989200D01*
X135941626Y-65997435D01*
X135904024Y-66039462D01*
X135891203Y-66141263D01*
X135890000Y-66243200D01*
X135894117Y-66393946D01*
G36*
X136045700Y-68122643D02*
G01*
X136066663Y-68196605D01*
X136121880Y-68221732D01*
X136200235Y-68224400D01*
X136311779Y-68239202D01*
X136334048Y-68286447D01*
X136332226Y-68291747D01*
X136313813Y-68374513D01*
X136290989Y-68524889D01*
X136270073Y-68698147D01*
X136252295Y-68878045D01*
X136251531Y-68979443D01*
X136273817Y-69024848D01*
X136325193Y-69036766D01*
X136361028Y-69037200D01*
X136421091Y-69033369D01*
X136463671Y-69010381D01*
X136495345Y-68950993D01*
X136522691Y-68837961D01*
X136552284Y-68654041D01*
X136579003Y-68465700D01*
X136608101Y-68315419D01*
X136649170Y-68242923D01*
X136714075Y-68224400D01*
X136787188Y-68245647D01*
X136791010Y-68326541D01*
X136788272Y-68338700D01*
X136767153Y-68452363D01*
X136741914Y-68622197D01*
X136726112Y-68745100D01*
X136708608Y-68908904D01*
X136711580Y-68996081D01*
X136742665Y-69030790D01*
X136809498Y-69037187D01*
X136818439Y-69037200D01*
X136891061Y-69027738D01*
X136941998Y-68987497D01*
X136978730Y-68898693D01*
X137008736Y-68743540D01*
X137038307Y-68514377D01*
X137072388Y-68224400D01*
X137497194Y-68224400D01*
X137704988Y-68226292D01*
X137831263Y-68235217D01*
X137896075Y-68256050D01*
X137919483Y-68293666D01*
X137922000Y-68327631D01*
X137876124Y-68547801D01*
X137752922Y-68763994D01*
X137574033Y-68949241D01*
X137361095Y-69076572D01*
X137305420Y-69096092D01*
X137188918Y-69136108D01*
X137131064Y-69186390D01*
X137111331Y-69279511D01*
X137109200Y-69407487D01*
X137109199Y-69660093D01*
X137293414Y-69630199D01*
X137558403Y-69537572D01*
X137790032Y-69357394D01*
X137981339Y-69100227D01*
X138125362Y-68776630D01*
X138215141Y-68397163D01*
X138236872Y-68199000D01*
X138244170Y-68025107D01*
X138241822Y-67876916D01*
X138237361Y-67830700D01*
X138224539Y-67779858D01*
X138192470Y-67746874D01*
X138122498Y-67727892D01*
X137995968Y-67719058D01*
X137794225Y-67716517D01*
X137684213Y-67716400D01*
X137148692Y-67716400D01*
X137176390Y-67551300D01*
X137219101Y-67296261D01*
X137244822Y-67125425D01*
X137252192Y-67022605D01*
X137239855Y-66971613D01*
X137206449Y-66956262D01*
X137150616Y-66960365D01*
X137127018Y-66963231D01*
X137051768Y-66977376D01*
X137004673Y-67013574D01*
X136974590Y-67094405D01*
X136950372Y-67242448D01*
X136937058Y-67348100D01*
X136909912Y-67540556D01*
X136881791Y-67652322D01*
X136844537Y-67704049D01*
X136791590Y-67716400D01*
X136732477Y-67706012D01*
X136709401Y-67657734D01*
X136715206Y-67545888D01*
X136724356Y-67475100D01*
X136750605Y-67296696D01*
X136776998Y-67136877D01*
X136784960Y-67094100D01*
X136793497Y-66995349D01*
X136746364Y-66958963D01*
X136663077Y-66954400D01*
X136585780Y-66958671D01*
X136537862Y-66985858D01*
X136507936Y-67057519D01*
X136484616Y-67195211D01*
X136468541Y-67322700D01*
X136423400Y-67691000D01*
X136232899Y-67706766D01*
X136042399Y-67722533D01*
X136042399Y-67973466D01*
X136045700Y-68122643D01*
G37*
X136045700Y-68122643D02*
X136066663Y-68196605D01*
X136121880Y-68221732D01*
X136200235Y-68224400D01*
X136311779Y-68239202D01*
X136334048Y-68286447D01*
X136332226Y-68291747D01*
X136313813Y-68374513D01*
X136290989Y-68524889D01*
X136270073Y-68698147D01*
X136252295Y-68878045D01*
X136251531Y-68979443D01*
X136273817Y-69024848D01*
X136325193Y-69036766D01*
X136361028Y-69037200D01*
X136421091Y-69033369D01*
X136463671Y-69010381D01*
X136495345Y-68950993D01*
X136522691Y-68837961D01*
X136552284Y-68654041D01*
X136579003Y-68465700D01*
X136608101Y-68315419D01*
X136649170Y-68242923D01*
X136714075Y-68224400D01*
X136787188Y-68245647D01*
X136791010Y-68326541D01*
X136788272Y-68338700D01*
X136767153Y-68452363D01*
X136741914Y-68622197D01*
X136726112Y-68745100D01*
X136708608Y-68908904D01*
X136711580Y-68996081D01*
X136742665Y-69030790D01*
X136809498Y-69037187D01*
X136818439Y-69037200D01*
X136891061Y-69027738D01*
X136941998Y-68987497D01*
X136978730Y-68898693D01*
X137008736Y-68743540D01*
X137038307Y-68514377D01*
X137072388Y-68224400D01*
X137497194Y-68224400D01*
X137704988Y-68226292D01*
X137831263Y-68235217D01*
X137896075Y-68256050D01*
X137919483Y-68293666D01*
X137922000Y-68327631D01*
X137876124Y-68547801D01*
X137752922Y-68763994D01*
X137574033Y-68949241D01*
X137361095Y-69076572D01*
X137305420Y-69096092D01*
X137188918Y-69136108D01*
X137131064Y-69186390D01*
X137111331Y-69279511D01*
X137109200Y-69407487D01*
X137109199Y-69660093D01*
X137293414Y-69630199D01*
X137558403Y-69537572D01*
X137790032Y-69357394D01*
X137981339Y-69100227D01*
X138125362Y-68776630D01*
X138215141Y-68397163D01*
X138236872Y-68199000D01*
X138244170Y-68025107D01*
X138241822Y-67876916D01*
X138237361Y-67830700D01*
X138224539Y-67779858D01*
X138192470Y-67746874D01*
X138122498Y-67727892D01*
X137995968Y-67719058D01*
X137794225Y-67716517D01*
X137684213Y-67716400D01*
X137148692Y-67716400D01*
X137176390Y-67551300D01*
X137219101Y-67296261D01*
X137244822Y-67125425D01*
X137252192Y-67022605D01*
X137239855Y-66971613D01*
X137206449Y-66956262D01*
X137150616Y-66960365D01*
X137127018Y-66963231D01*
X137051768Y-66977376D01*
X137004673Y-67013574D01*
X136974590Y-67094405D01*
X136950372Y-67242448D01*
X136937058Y-67348100D01*
X136909912Y-67540556D01*
X136881791Y-67652322D01*
X136844537Y-67704049D01*
X136791590Y-67716400D01*
X136732477Y-67706012D01*
X136709401Y-67657734D01*
X136715206Y-67545888D01*
X136724356Y-67475100D01*
X136750605Y-67296696D01*
X136776998Y-67136877D01*
X136784960Y-67094100D01*
X136793497Y-66995349D01*
X136746364Y-66958963D01*
X136663077Y-66954400D01*
X136585780Y-66958671D01*
X136537862Y-66985858D01*
X136507936Y-67057519D01*
X136484616Y-67195211D01*
X136468541Y-67322700D01*
X136423400Y-67691000D01*
X136232899Y-67706766D01*
X136042399Y-67722533D01*
X136042399Y-67973466D01*
X136045700Y-68122643D01*
G36*
X135968686Y-74574400D02*
G01*
X135973501Y-74869876D01*
X135987538Y-75078467D01*
X136015495Y-75214785D01*
X136062073Y-75293444D01*
X136131970Y-75329057D01*
X136213726Y-75336400D01*
X136383116Y-75336400D01*
X136314358Y-75071329D01*
X136256525Y-74749343D01*
X136253920Y-74459623D01*
X136303906Y-74218138D01*
X136403846Y-74040860D01*
X136496786Y-73966305D01*
X136607197Y-73933890D01*
X136766344Y-73915542D01*
X136824620Y-73914000D01*
X137054720Y-73914000D01*
X137069260Y-74409300D01*
X137077335Y-74637120D01*
X137088643Y-74782713D01*
X137108059Y-74865441D01*
X137140461Y-74904663D01*
X137190725Y-74919739D01*
X137198100Y-74920833D01*
X137249823Y-74924058D01*
X137282984Y-74904102D01*
X137301705Y-74843095D01*
X137310111Y-74723167D01*
X137312324Y-74526448D01*
X137312400Y-74425533D01*
X137313680Y-74193583D01*
X137320034Y-74044846D01*
X137335233Y-73960943D01*
X137363046Y-73923495D01*
X137407245Y-73914123D01*
X137417339Y-73914000D01*
X137608055Y-73864980D01*
X137771768Y-73718904D01*
X137822928Y-73644057D01*
X137921620Y-73482200D01*
X137922000Y-75387200D01*
X138226800Y-75387200D01*
X138226800Y-72898000D01*
X138061700Y-72898516D01*
X137950574Y-72911563D01*
X137879305Y-72967648D01*
X137814931Y-73093520D01*
X137811562Y-73101505D01*
X137707689Y-73270852D01*
X137592355Y-73354988D01*
X137437929Y-73402139D01*
X137352580Y-73388241D01*
X137317370Y-73302998D01*
X137312400Y-73202800D01*
X137305468Y-73071881D01*
X137272771Y-73013693D01*
X137196459Y-72999672D01*
X137185400Y-72999600D01*
X137103576Y-73010690D01*
X137067208Y-73063005D01*
X137058445Y-73185104D01*
X137058400Y-73202800D01*
X137058400Y-73406000D01*
X136791700Y-73406189D01*
X136518857Y-73440591D01*
X136307906Y-73549988D01*
X136142897Y-73744330D01*
X136087434Y-73845536D01*
X136027568Y-73983332D01*
X135991275Y-74119916D01*
X135973336Y-74287331D01*
X135968529Y-74517622D01*
X135968686Y-74574400D01*
G37*
X135968686Y-74574400D02*
X135973501Y-74869876D01*
X135987538Y-75078467D01*
X136015495Y-75214785D01*
X136062073Y-75293444D01*
X136131970Y-75329057D01*
X136213726Y-75336400D01*
X136383116Y-75336400D01*
X136314358Y-75071329D01*
X136256525Y-74749343D01*
X136253920Y-74459623D01*
X136303906Y-74218138D01*
X136403846Y-74040860D01*
X136496786Y-73966305D01*
X136607197Y-73933890D01*
X136766344Y-73915542D01*
X136824620Y-73914000D01*
X137054720Y-73914000D01*
X137069260Y-74409300D01*
X137077335Y-74637120D01*
X137088643Y-74782713D01*
X137108059Y-74865441D01*
X137140461Y-74904663D01*
X137190725Y-74919739D01*
X137198100Y-74920833D01*
X137249823Y-74924058D01*
X137282984Y-74904102D01*
X137301705Y-74843095D01*
X137310111Y-74723167D01*
X137312324Y-74526448D01*
X137312400Y-74425533D01*
X137313680Y-74193583D01*
X137320034Y-74044846D01*
X137335233Y-73960943D01*
X137363046Y-73923495D01*
X137407245Y-73914123D01*
X137417339Y-73914000D01*
X137608055Y-73864980D01*
X137771768Y-73718904D01*
X137822928Y-73644057D01*
X137921620Y-73482200D01*
X137922000Y-75387200D01*
X138226800Y-75387200D01*
X138226800Y-72898000D01*
X138061700Y-72898516D01*
X137950574Y-72911563D01*
X137879305Y-72967648D01*
X137814931Y-73093520D01*
X137811562Y-73101505D01*
X137707689Y-73270852D01*
X137592355Y-73354988D01*
X137437929Y-73402139D01*
X137352580Y-73388241D01*
X137317370Y-73302998D01*
X137312400Y-73202800D01*
X137305468Y-73071881D01*
X137272771Y-73013693D01*
X137196459Y-72999672D01*
X137185400Y-72999600D01*
X137103576Y-73010690D01*
X137067208Y-73063005D01*
X137058445Y-73185104D01*
X137058400Y-73202800D01*
X137058400Y-73406000D01*
X136791700Y-73406189D01*
X136518857Y-73440591D01*
X136307906Y-73549988D01*
X136142897Y-73744330D01*
X136087434Y-73845536D01*
X136027568Y-73983332D01*
X135991275Y-74119916D01*
X135973336Y-74287331D01*
X135968529Y-74517622D01*
X135968686Y-74574400D01*
G36*
X136348315Y-83273900D02*
G01*
X136350000Y-83615040D01*
X136355097Y-83871770D01*
X136365079Y-84061264D01*
X136381414Y-84200692D01*
X136405576Y-84307227D01*
X136439033Y-84398042D01*
X136445923Y-84413531D01*
X136558283Y-84592899D01*
X136712848Y-84708504D01*
X136927730Y-84769479D01*
X137182877Y-84785200D01*
X137515600Y-84785200D01*
X137515600Y-84328000D01*
X137232860Y-84328000D01*
X137057485Y-84319315D01*
X136913317Y-84297044D01*
X136857203Y-84278272D01*
X136771058Y-84197251D01*
X136710075Y-84053542D01*
X136671862Y-83836382D01*
X136654026Y-83535008D01*
X136652000Y-83355219D01*
X136652000Y-82804000D01*
X138226800Y-82804000D01*
X138226800Y-82346800D01*
X136347200Y-82346800D01*
X136348315Y-83273900D01*
G37*
X136348315Y-83273900D02*
X136350000Y-83615040D01*
X136355097Y-83871770D01*
X136365079Y-84061264D01*
X136381414Y-84200692D01*
X136405576Y-84307227D01*
X136439033Y-84398042D01*
X136445923Y-84413531D01*
X136558283Y-84592899D01*
X136712848Y-84708504D01*
X136927730Y-84769479D01*
X137182877Y-84785200D01*
X137515600Y-84785200D01*
X137515600Y-84328000D01*
X137232860Y-84328000D01*
X137057485Y-84319315D01*
X136913317Y-84297044D01*
X136857203Y-84278272D01*
X136771058Y-84197251D01*
X136710075Y-84053542D01*
X136671862Y-83836382D01*
X136654026Y-83535008D01*
X136652000Y-83355219D01*
X136652000Y-82804000D01*
X138226800Y-82804000D01*
X138226800Y-82346800D01*
X136347200Y-82346800D01*
X136348315Y-83273900D01*
G36*
X137072496Y-85750400D02*
G01*
X137392267Y-85747805D01*
X137627810Y-85736462D01*
X137796441Y-85711031D01*
X137915475Y-85666170D01*
X138002227Y-85596539D01*
X138074012Y-85496800D01*
X138111957Y-85429816D01*
X138143977Y-85354714D01*
X138168390Y-85253300D01*
X138186602Y-85110460D01*
X138200018Y-84911079D01*
X138210044Y-84640043D01*
X138217942Y-84289900D01*
X138236149Y-83312000D01*
X137058400Y-83312000D01*
X137058400Y-83769200D01*
X137937440Y-83769200D01*
X137907225Y-84408683D01*
X137891367Y-84727160D01*
X137869232Y-84958301D01*
X137826983Y-85116085D01*
X137750782Y-85214494D01*
X137626793Y-85267510D01*
X137441179Y-85289113D01*
X137180103Y-85293284D01*
X137031828Y-85293200D01*
X136347200Y-85293200D01*
X136347200Y-85750400D01*
X137072496Y-85750400D01*
G37*
X137072496Y-85750400D02*
X137392267Y-85747805D01*
X137627810Y-85736462D01*
X137796441Y-85711031D01*
X137915475Y-85666170D01*
X138002227Y-85596539D01*
X138074012Y-85496800D01*
X138111957Y-85429816D01*
X138143977Y-85354714D01*
X138168390Y-85253300D01*
X138186602Y-85110460D01*
X138200018Y-84911079D01*
X138210044Y-84640043D01*
X138217942Y-84289900D01*
X138236149Y-83312000D01*
X137058400Y-83312000D01*
X137058400Y-83769200D01*
X137937440Y-83769200D01*
X137907225Y-84408683D01*
X137891367Y-84727160D01*
X137869232Y-84958301D01*
X137826983Y-85116085D01*
X137750782Y-85214494D01*
X137626793Y-85267510D01*
X137441179Y-85289113D01*
X137180103Y-85293284D01*
X137031828Y-85293200D01*
X136347200Y-85293200D01*
X136347200Y-85750400D01*
X137072496Y-85750400D01*
G36*
X136510896Y-76410106D02*
G01*
X136593508Y-76550925D01*
X136604325Y-76568523D01*
X136683878Y-76706548D01*
X136732027Y-76825225D01*
X136756668Y-76958715D01*
X136765694Y-77141175D01*
X136766854Y-77271809D01*
X136764128Y-77496725D01*
X136749215Y-77655099D01*
X136714526Y-77781882D01*
X136652476Y-77912027D01*
X136612526Y-77982874D01*
X136527988Y-78136175D01*
X136490753Y-78235276D01*
X136494422Y-78312227D01*
X136530316Y-78394680D01*
X136588418Y-78493305D01*
X136628044Y-78536704D01*
X136629023Y-78536800D01*
X136667740Y-78497578D01*
X136741028Y-78396456D01*
X136804702Y-78299542D01*
X136894945Y-78164485D01*
X136970302Y-78093397D01*
X137068952Y-78065093D01*
X137229072Y-78058393D01*
X137239603Y-78058242D01*
X137524040Y-78054200D01*
X137659520Y-78295448D01*
X137740705Y-78428994D01*
X137805843Y-78516626D01*
X137831795Y-78536748D01*
X137878000Y-78496443D01*
X137940007Y-78398599D01*
X137943981Y-78391011D01*
X137982756Y-78302388D01*
X137984736Y-78226445D01*
X137942981Y-78129808D01*
X137862114Y-77997311D01*
X137786742Y-77871105D01*
X137740510Y-77762283D01*
X137716630Y-77639452D01*
X137708310Y-77471217D01*
X137708271Y-77286044D01*
X137712868Y-77057213D01*
X137727387Y-76897758D01*
X137758985Y-76775497D01*
X137814816Y-76658244D01*
X137867642Y-76569226D01*
X137951039Y-76430299D01*
X138007181Y-76330276D01*
X138022470Y-76295981D01*
X137993595Y-76246632D01*
X137925244Y-76154289D01*
X137921244Y-76149200D01*
X137865680Y-76082856D01*
X137822093Y-76060687D01*
X137774654Y-76093606D01*
X137707531Y-76192529D01*
X137605904Y-76366618D01*
X137517677Y-76492163D01*
X137443942Y-76530094D01*
X137416492Y-76523405D01*
X137245987Y-76489683D01*
X137236200Y-76491205D01*
X137236200Y-76860400D01*
X137331275Y-76905785D01*
X137404908Y-77022539D01*
X137450752Y-77181559D01*
X137462459Y-77353739D01*
X137433681Y-77509977D01*
X137394084Y-77584300D01*
X137287745Y-77668915D01*
X137180680Y-77665079D01*
X137088414Y-77584630D01*
X137026475Y-77439410D01*
X137009215Y-77290803D01*
X137032496Y-77112434D01*
X137095405Y-76964410D01*
X137183181Y-76874722D01*
X137236200Y-76860400D01*
X137236200Y-76491205D01*
X137072027Y-76516753D01*
X137057011Y-76522981D01*
X136992927Y-76515806D01*
X136913667Y-76433031D01*
X136830439Y-76302694D01*
X136744907Y-76165516D01*
X136676801Y-76072914D01*
X136647170Y-76047600D01*
X136598088Y-76085579D01*
X136528154Y-76176914D01*
X136528028Y-76177107D01*
X136484129Y-76253837D01*
X136476427Y-76321290D01*
X136510896Y-76410106D01*
G37*
X136510896Y-76410106D02*
X136593508Y-76550925D01*
X136604325Y-76568523D01*
X136683878Y-76706548D01*
X136732027Y-76825225D01*
X136756668Y-76958715D01*
X136765694Y-77141175D01*
X136766854Y-77271809D01*
X136764128Y-77496725D01*
X136749215Y-77655099D01*
X136714526Y-77781882D01*
X136652476Y-77912027D01*
X136612526Y-77982874D01*
X136527988Y-78136175D01*
X136490753Y-78235276D01*
X136494422Y-78312227D01*
X136530316Y-78394680D01*
X136588418Y-78493305D01*
X136628044Y-78536704D01*
X136629023Y-78536800D01*
X136667740Y-78497578D01*
X136741028Y-78396456D01*
X136804702Y-78299542D01*
X136894945Y-78164485D01*
X136970302Y-78093397D01*
X137068952Y-78065093D01*
X137229072Y-78058393D01*
X137239603Y-78058242D01*
X137524040Y-78054200D01*
X137659520Y-78295448D01*
X137740705Y-78428994D01*
X137805843Y-78516626D01*
X137831795Y-78536748D01*
X137878000Y-78496443D01*
X137940007Y-78398599D01*
X137943981Y-78391011D01*
X137982756Y-78302388D01*
X137984736Y-78226445D01*
X137942981Y-78129808D01*
X137862114Y-77997311D01*
X137786742Y-77871105D01*
X137740510Y-77762283D01*
X137716630Y-77639452D01*
X137708310Y-77471217D01*
X137708271Y-77286044D01*
X137712868Y-77057213D01*
X137727387Y-76897758D01*
X137758985Y-76775497D01*
X137814816Y-76658244D01*
X137867642Y-76569226D01*
X137951039Y-76430299D01*
X138007181Y-76330276D01*
X138022470Y-76295981D01*
X137993595Y-76246632D01*
X137925244Y-76154289D01*
X137921244Y-76149200D01*
X137865680Y-76082856D01*
X137822093Y-76060687D01*
X137774654Y-76093606D01*
X137707531Y-76192529D01*
X137605904Y-76366618D01*
X137517677Y-76492163D01*
X137443942Y-76530094D01*
X137416492Y-76523405D01*
X137245987Y-76489683D01*
X137236200Y-76491205D01*
X137236200Y-76860400D01*
X137331275Y-76905785D01*
X137404908Y-77022539D01*
X137450752Y-77181559D01*
X137462459Y-77353739D01*
X137433681Y-77509977D01*
X137394084Y-77584300D01*
X137287745Y-77668915D01*
X137180680Y-77665079D01*
X137088414Y-77584630D01*
X137026475Y-77439410D01*
X137009215Y-77290803D01*
X137032496Y-77112434D01*
X137095405Y-76964410D01*
X137183181Y-76874722D01*
X137236200Y-76860400D01*
X137236200Y-76491205D01*
X137072027Y-76516753D01*
X137057011Y-76522981D01*
X136992927Y-76515806D01*
X136913667Y-76433031D01*
X136830439Y-76302694D01*
X136744907Y-76165516D01*
X136676801Y-76072914D01*
X136647170Y-76047600D01*
X136598088Y-76085579D01*
X136528154Y-76176914D01*
X136528028Y-76177107D01*
X136484129Y-76253837D01*
X136476427Y-76321290D01*
X136510896Y-76410106D01*
G36*
X136542820Y-81545852D02*
G01*
X136641281Y-81701360D01*
X136776718Y-81486814D01*
X136861333Y-81347563D01*
X136922999Y-81236642D01*
X136938748Y-81202968D01*
X136979116Y-81160344D01*
X137064238Y-81179246D01*
X137091651Y-81191220D01*
X137250474Y-81221996D01*
X137358226Y-81195827D01*
X137441933Y-81171558D01*
X137502104Y-81188442D01*
X137563493Y-81263556D01*
X137635953Y-81387422D01*
X137733654Y-81553325D01*
X137801057Y-81636534D01*
X137853626Y-81645066D01*
X137906821Y-81586939D01*
X137934468Y-81542212D01*
X137976451Y-81460463D01*
X137983632Y-81388945D01*
X137950299Y-81296338D01*
X137870738Y-81151318D01*
X137859668Y-81132118D01*
X137783348Y-80991370D01*
X137737210Y-80871463D01*
X137714188Y-80738674D01*
X137707214Y-80559281D01*
X137707874Y-80407744D01*
X137713556Y-80180460D01*
X137729694Y-80021661D01*
X137763804Y-79898278D01*
X137823401Y-79777239D01*
X137868195Y-79702238D01*
X137951380Y-79565090D01*
X138007642Y-79468588D01*
X138023265Y-79437736D01*
X137998163Y-79391966D01*
X137937250Y-79295901D01*
X137928133Y-79282019D01*
X137833335Y-79138239D01*
X137661767Y-79410791D01*
X137565114Y-79558178D01*
X137497523Y-79634188D01*
X137436605Y-79655052D01*
X137359969Y-79637001D01*
X137353061Y-79634565D01*
X137277434Y-79626748D01*
X137277434Y-80026951D01*
X137371899Y-80094073D01*
X137438252Y-80211521D01*
X137465642Y-80380500D01*
X137453478Y-80558469D01*
X137401170Y-80702882D01*
X137380726Y-80729899D01*
X137279843Y-80810777D01*
X137184464Y-80801402D01*
X137100500Y-80738726D01*
X137033372Y-80619729D01*
X137008238Y-80449433D01*
X137026030Y-80269471D01*
X137086680Y-80122903D01*
X137181013Y-80027112D01*
X137277434Y-80026951D01*
X137277434Y-79626748D01*
X137171879Y-79615837D01*
X137099859Y-79637577D01*
X137031556Y-79657754D01*
X136973370Y-79636195D01*
X136904882Y-79557077D01*
X136811823Y-79414431D01*
X136639851Y-79139497D01*
X136544934Y-79295575D01*
X136450017Y-79451652D01*
X136604813Y-79703228D01*
X136680744Y-79836046D01*
X136727329Y-79953897D01*
X136752040Y-80089764D01*
X136762347Y-80276629D01*
X136764532Y-80408398D01*
X136764339Y-80632083D01*
X136753117Y-80787048D01*
X136723660Y-80906103D01*
X136668765Y-81022057D01*
X136606907Y-81126168D01*
X136444358Y-81390343D01*
X136542820Y-81545852D01*
G37*
X136542820Y-81545852D02*
X136641281Y-81701360D01*
X136776718Y-81486814D01*
X136861333Y-81347563D01*
X136922999Y-81236642D01*
X136938748Y-81202968D01*
X136979116Y-81160344D01*
X137064238Y-81179246D01*
X137091651Y-81191220D01*
X137250474Y-81221996D01*
X137358226Y-81195827D01*
X137441933Y-81171558D01*
X137502104Y-81188442D01*
X137563493Y-81263556D01*
X137635953Y-81387422D01*
X137733654Y-81553325D01*
X137801057Y-81636534D01*
X137853626Y-81645066D01*
X137906821Y-81586939D01*
X137934468Y-81542212D01*
X137976451Y-81460463D01*
X137983632Y-81388945D01*
X137950299Y-81296338D01*
X137870738Y-81151318D01*
X137859668Y-81132118D01*
X137783348Y-80991370D01*
X137737210Y-80871463D01*
X137714188Y-80738674D01*
X137707214Y-80559281D01*
X137707874Y-80407744D01*
X137713556Y-80180460D01*
X137729694Y-80021661D01*
X137763804Y-79898278D01*
X137823401Y-79777239D01*
X137868195Y-79702238D01*
X137951380Y-79565090D01*
X138007642Y-79468588D01*
X138023265Y-79437736D01*
X137998163Y-79391966D01*
X137937250Y-79295901D01*
X137928133Y-79282019D01*
X137833335Y-79138239D01*
X137661767Y-79410791D01*
X137565114Y-79558178D01*
X137497523Y-79634188D01*
X137436605Y-79655052D01*
X137359969Y-79637001D01*
X137353061Y-79634565D01*
X137277434Y-79626748D01*
X137277434Y-80026951D01*
X137371899Y-80094073D01*
X137438252Y-80211521D01*
X137465642Y-80380500D01*
X137453478Y-80558469D01*
X137401170Y-80702882D01*
X137380726Y-80729899D01*
X137279843Y-80810777D01*
X137184464Y-80801402D01*
X137100500Y-80738726D01*
X137033372Y-80619729D01*
X137008238Y-80449433D01*
X137026030Y-80269471D01*
X137086680Y-80122903D01*
X137181013Y-80027112D01*
X137277434Y-80026951D01*
X137277434Y-79626748D01*
X137171879Y-79615837D01*
X137099859Y-79637577D01*
X137031556Y-79657754D01*
X136973370Y-79636195D01*
X136904882Y-79557077D01*
X136811823Y-79414431D01*
X136639851Y-79139497D01*
X136544934Y-79295575D01*
X136450017Y-79451652D01*
X136604813Y-79703228D01*
X136680744Y-79836046D01*
X136727329Y-79953897D01*
X136752040Y-80089764D01*
X136762347Y-80276629D01*
X136764532Y-80408398D01*
X136764339Y-80632083D01*
X136753117Y-80787048D01*
X136723660Y-80906103D01*
X136668765Y-81022057D01*
X136606907Y-81126168D01*
X136444358Y-81390343D01*
X136542820Y-81545852D01*
G36*
X141040775Y-66487969D02*
G01*
X141445066Y-67393707D01*
X141591078Y-67558672D01*
X142029853Y-67774246D01*
X142737416Y-67919201D01*
X143545559Y-67985823D01*
X144286076Y-67966398D01*
X144790759Y-67853211D01*
X144913684Y-67711053D01*
X144675230Y-67549251D01*
X144074125Y-67454208D01*
X143751965Y-67443684D01*
X142672621Y-67273387D01*
X141997394Y-66756152D01*
X141715566Y-65882469D01*
X141705263Y-65627198D01*
X141934752Y-64753651D01*
X142537209Y-63849100D01*
X143383615Y-63066811D01*
X144263581Y-62588024D01*
X144811636Y-62293655D01*
X145155644Y-61942666D01*
X145211404Y-61658470D01*
X144963904Y-61561579D01*
X144449220Y-61707187D01*
X143700395Y-62072316D01*
X142906337Y-62549419D01*
X142255957Y-63030951D01*
X142071461Y-63208231D01*
X141369046Y-64258722D01*
X141020460Y-65397471D01*
X141040775Y-66487969D01*
G37*
X141040775Y-66487969D02*
X141445066Y-67393707D01*
X141591078Y-67558672D01*
X142029853Y-67774246D01*
X142737416Y-67919201D01*
X143545559Y-67985823D01*
X144286076Y-67966398D01*
X144790759Y-67853211D01*
X144913684Y-67711053D01*
X144675230Y-67549251D01*
X144074125Y-67454208D01*
X143751965Y-67443684D01*
X142672621Y-67273387D01*
X141997394Y-66756152D01*
X141715566Y-65882469D01*
X141705263Y-65627198D01*
X141934752Y-64753651D01*
X142537209Y-63849100D01*
X143383615Y-63066811D01*
X144263581Y-62588024D01*
X144811636Y-62293655D01*
X145155644Y-61942666D01*
X145211404Y-61658470D01*
X144963904Y-61561579D01*
X144449220Y-61707187D01*
X143700395Y-62072316D01*
X142906337Y-62549419D01*
X142255957Y-63030951D01*
X142071461Y-63208231D01*
X141369046Y-64258722D01*
X141020460Y-65397471D01*
X141040775Y-66487969D01*
G36*
X139302889Y-81285411D02*
G01*
X139308106Y-83563931D01*
X139329071Y-85368426D01*
X139378117Y-86759595D01*
X139467575Y-87798139D01*
X139609777Y-88544759D01*
X139817055Y-89060154D01*
X140101741Y-89405024D01*
X140476166Y-89640071D01*
X140952662Y-89825993D01*
X141044270Y-89856936D01*
X141620044Y-90010937D01*
X142242618Y-90071518D01*
X143048292Y-90036621D01*
X144173365Y-89904187D01*
X144913684Y-89798479D01*
X146134442Y-89644220D01*
X147401049Y-89543463D01*
X148826760Y-89492849D01*
X150524831Y-89489020D01*
X152608518Y-89528619D01*
X153335790Y-89548759D01*
X155694124Y-89597450D01*
X157596632Y-89583864D01*
X159119711Y-89497496D01*
X160339759Y-89327840D01*
X161333173Y-89064394D01*
X162176351Y-88696652D01*
X162922616Y-88230599D01*
X163677101Y-87427805D01*
X164347365Y-86206324D01*
X164882364Y-84681176D01*
X165218697Y-83056726D01*
X165365034Y-81673631D01*
X165480711Y-79868685D01*
X165563554Y-77754015D01*
X165611391Y-75441748D01*
X165622050Y-73044011D01*
X165593357Y-70672931D01*
X165523140Y-68440634D01*
X165508297Y-68112105D01*
X165434772Y-66498265D01*
X165368144Y-64928277D01*
X165314117Y-63544481D01*
X165278396Y-62489218D01*
X165269893Y-62163158D01*
X165233684Y-60492105D01*
X164077133Y-60492105D01*
X163938281Y-60504196D01*
X163938281Y-61026842D01*
X164366827Y-61054567D01*
X164597783Y-61223493D01*
X164697822Y-61662253D01*
X164733618Y-62499477D01*
X164735156Y-62564211D01*
X164759551Y-63377093D01*
X164802489Y-64586565D01*
X164858786Y-66055003D01*
X164923256Y-67644788D01*
X164954252Y-68379474D01*
X165056752Y-70886113D01*
X165128384Y-72918104D01*
X165169803Y-74534607D01*
X165181663Y-75794782D01*
X165164618Y-76757786D01*
X165119324Y-77482780D01*
X165060140Y-77949818D01*
X164936790Y-78594623D01*
X164788128Y-78788918D01*
X164502145Y-78609852D01*
X164327819Y-78454227D01*
X163723971Y-77973133D01*
X163277605Y-77686530D01*
X163128235Y-77574540D01*
X163013422Y-77374561D01*
X162929014Y-77023191D01*
X162870860Y-76457029D01*
X162834809Y-75612672D01*
X162816708Y-74426720D01*
X162812409Y-72835770D01*
X162817757Y-70776422D01*
X162818167Y-70669609D01*
X162833253Y-68447110D01*
X162861687Y-66695763D01*
X162906966Y-65352073D01*
X162972586Y-64352547D01*
X163062045Y-63633689D01*
X163178839Y-63132007D01*
X163243014Y-62955940D01*
X163478236Y-62165771D01*
X163421936Y-61760948D01*
X163144630Y-61785759D01*
X162716835Y-62284490D01*
X162569724Y-62533090D01*
X162228088Y-63135464D01*
X162091524Y-63292472D01*
X162113766Y-63030735D01*
X162167149Y-62764737D01*
X162572138Y-61755644D01*
X163256295Y-61167110D01*
X163938281Y-61026842D01*
X163938281Y-60504196D01*
X163269068Y-60562472D01*
X162626717Y-60808129D01*
X162131968Y-61280916D01*
X161866757Y-61826756D01*
X161866757Y-66445441D01*
X161883568Y-66766654D01*
X161896770Y-67533506D01*
X161905596Y-68716297D01*
X161909283Y-70285327D01*
X161909345Y-70518421D01*
X161906520Y-72145179D01*
X161898397Y-73398016D01*
X161885744Y-74245498D01*
X161869329Y-74656195D01*
X161849921Y-74598673D01*
X161828286Y-74041500D01*
X161825664Y-73942933D01*
X161798279Y-72266048D01*
X161791160Y-70333349D01*
X161804320Y-68423378D01*
X161825367Y-67258723D01*
X161847102Y-66599564D01*
X161866757Y-66445441D01*
X161866757Y-61826756D01*
X161766709Y-62032669D01*
X161512829Y-63115226D01*
X161352216Y-64580426D01*
X161266759Y-66480105D01*
X161239096Y-68614983D01*
X161225503Y-72236288D01*
X161225503Y-77802755D01*
X162424019Y-77975524D01*
X163600077Y-78678078D01*
X163875801Y-78920870D01*
X164338260Y-79406623D01*
X164585648Y-79886942D01*
X164683748Y-80555232D01*
X164698948Y-81340996D01*
X164669186Y-82306487D01*
X164537760Y-82935393D01*
X164241457Y-83424478D01*
X163917409Y-83773725D01*
X163508188Y-84150996D01*
X163110074Y-84382117D01*
X162580689Y-84502746D01*
X161777658Y-84548540D01*
X160796883Y-84555263D01*
X159397642Y-84512355D01*
X158447502Y-84351106D01*
X157865369Y-84022724D01*
X157570150Y-83478420D01*
X157480751Y-82669405D01*
X157480000Y-82559663D01*
X157567314Y-81725452D01*
X157783746Y-81051484D01*
X157849725Y-80943418D01*
X158419012Y-80562242D01*
X159232695Y-80436861D01*
X160063736Y-80570694D01*
X160625159Y-80901625D01*
X160895222Y-81196737D01*
X160809767Y-81250613D01*
X160299407Y-81090141D01*
X160214702Y-81060681D01*
X159360001Y-80923735D01*
X158813366Y-81222259D01*
X158566556Y-81962486D01*
X158549474Y-82319695D01*
X158768554Y-83160367D01*
X159419517Y-83694762D01*
X160492951Y-83918594D01*
X161890821Y-83840323D01*
X162839168Y-83669754D01*
X163404813Y-83443788D01*
X163739590Y-83092335D01*
X163818455Y-82950466D01*
X164145062Y-81808538D01*
X164061129Y-80638562D01*
X163583925Y-79636208D01*
X163518939Y-79557015D01*
X163023489Y-79086463D01*
X162459978Y-78864824D01*
X161604026Y-78806965D01*
X161544089Y-78806847D01*
X161544089Y-79487000D01*
X162426733Y-79726909D01*
X163003082Y-80161408D01*
X163473872Y-80765139D01*
X163569036Y-81375518D01*
X163524078Y-81673294D01*
X163313139Y-82378929D01*
X163060411Y-82858728D01*
X162615515Y-83070887D01*
X161840263Y-83189777D01*
X160931206Y-83213308D01*
X160084892Y-83139392D01*
X159497871Y-82965940D01*
X159405053Y-82897579D01*
X159126708Y-82402778D01*
X159129922Y-81908396D01*
X159399238Y-81626632D01*
X159498541Y-81614211D01*
X160016708Y-81731949D01*
X160689378Y-82015784D01*
X160701699Y-82022129D01*
X161490526Y-82430048D01*
X161490526Y-81551707D01*
X161319839Y-80732884D01*
X160916518Y-80314892D01*
X160544136Y-80012756D01*
X160622823Y-79785364D01*
X160715991Y-79719934D01*
X161544089Y-79487000D01*
X161544089Y-78806847D01*
X161541747Y-78806842D01*
X160419237Y-78920687D01*
X159688653Y-79279021D01*
X159663866Y-79300929D01*
X159176518Y-79608759D01*
X158845367Y-79626577D01*
X158660228Y-79286195D01*
X158937216Y-78837825D01*
X159630516Y-78340635D01*
X159984167Y-78155768D01*
X161225503Y-77802755D01*
X161225503Y-72236288D01*
X161223158Y-72861019D01*
X161022632Y-72828479D01*
X161022632Y-73330188D01*
X161122307Y-73572406D01*
X161194099Y-74213074D01*
X161223098Y-75116060D01*
X161223158Y-75161044D01*
X161223158Y-76996299D01*
X160077903Y-77433676D01*
X159348584Y-77696446D01*
X158835911Y-77852439D01*
X158728303Y-77871053D01*
X158633956Y-77628251D01*
X158590387Y-76995105D01*
X158603558Y-76207265D01*
X158663837Y-75286979D01*
X158791263Y-74730839D01*
X159072083Y-74368597D01*
X159592545Y-74030003D01*
X159752632Y-73939031D01*
X160434163Y-73575741D01*
X160917778Y-73357741D01*
X161022632Y-73330188D01*
X161022632Y-72828479D01*
X160263511Y-72705290D01*
X159394978Y-72466911D01*
X158833454Y-72145887D01*
X158833454Y-72828955D01*
X159202852Y-72955961D01*
X159480927Y-73180801D01*
X159325665Y-73490698D01*
X158945785Y-73809093D01*
X158784104Y-73860526D01*
X158593381Y-73636307D01*
X158549474Y-73325790D01*
X158591706Y-72888265D01*
X158833454Y-72828955D01*
X158833454Y-72145887D01*
X158775594Y-72112808D01*
X158549474Y-71738075D01*
X158761402Y-71508142D01*
X159297299Y-71140689D01*
X159610970Y-70956083D01*
X160286930Y-70541649D01*
X160746400Y-70196415D01*
X160831245Y-70102580D01*
X160701646Y-69862929D01*
X160196970Y-69528817D01*
X159750616Y-69314399D01*
X159248769Y-69099283D01*
X159248769Y-69644059D01*
X159461403Y-69907004D01*
X159331824Y-70274856D01*
X158950556Y-70597542D01*
X158784104Y-70652105D01*
X158576626Y-70456577D01*
X158589022Y-70053821D01*
X158811647Y-69719586D01*
X158816842Y-69716316D01*
X159248769Y-69644059D01*
X159248769Y-69099283D01*
X158511209Y-68783127D01*
X159115259Y-67912880D01*
X159703068Y-67103435D01*
X160305635Y-66326036D01*
X160337550Y-66286855D01*
X160745271Y-65739190D01*
X160950109Y-65367620D01*
X160955790Y-65334004D01*
X160714123Y-65247007D01*
X160086613Y-65220944D01*
X159377567Y-65251090D01*
X159084211Y-65265789D01*
X159084211Y-65839474D01*
X159530080Y-65943994D01*
X159545563Y-66284267D01*
X159130982Y-66900359D01*
X159093106Y-66946169D01*
X158567264Y-67577369D01*
X158558369Y-66708421D01*
X158620959Y-66093144D01*
X158883362Y-65858584D01*
X159084211Y-65839474D01*
X159084211Y-65265789D01*
X158478001Y-65296165D01*
X157942339Y-65233976D01*
X157602898Y-65015216D01*
X157330072Y-64649047D01*
X156988418Y-63951862D01*
X156668491Y-63019489D01*
X156560685Y-62600307D01*
X156343629Y-61836250D01*
X156116360Y-61338073D01*
X156001338Y-61233899D01*
X155716210Y-61409379D01*
X155716210Y-62263446D01*
X156051309Y-63048828D01*
X156323077Y-63756651D01*
X156305292Y-64106556D01*
X155936958Y-64224059D01*
X155474737Y-64235263D01*
X154826320Y-64205240D01*
X154593789Y-64045519D01*
X154745473Y-63651625D01*
X155127579Y-63090102D01*
X155716210Y-62263446D01*
X155716210Y-61409379D01*
X155715557Y-61409781D01*
X155209913Y-61904132D01*
X154591173Y-62612034D01*
X154559466Y-62650805D01*
X153715239Y-63591967D01*
X153073354Y-64057796D01*
X152588345Y-64046812D01*
X152214745Y-63557533D01*
X151907091Y-62588478D01*
X151901302Y-62564211D01*
X151680967Y-61748022D01*
X151480649Y-61194480D01*
X151366565Y-61036964D01*
X151167812Y-61199440D01*
X151167812Y-62401534D01*
X151336764Y-62691259D01*
X151500588Y-63435634D01*
X151561484Y-63767369D01*
X151362851Y-63918840D01*
X150945253Y-63967895D01*
X150322142Y-63869862D01*
X150180466Y-63554797D01*
X150507189Y-62991249D01*
X150529142Y-62963926D01*
X150922387Y-62510932D01*
X151167812Y-62401534D01*
X151167812Y-61199440D01*
X151122626Y-61236379D01*
X150669355Y-61740951D01*
X150261053Y-62243967D01*
X149325263Y-63440849D01*
X149245541Y-61669972D01*
X149165819Y-59899096D01*
X148523158Y-59922992D01*
X148523158Y-60625790D01*
X148602690Y-62294227D01*
X148668818Y-63126615D01*
X148827110Y-63731134D01*
X149154759Y-64149710D01*
X149728958Y-64424273D01*
X150626901Y-64596749D01*
X151925780Y-64709068D01*
X153174238Y-64777303D01*
X154555093Y-64849611D01*
X155509628Y-64922655D01*
X156145621Y-65023359D01*
X156570847Y-65178648D01*
X156893082Y-65415447D01*
X157220103Y-65760681D01*
X157251607Y-65795924D01*
X158014737Y-66650015D01*
X157957412Y-72995797D01*
X157900086Y-79341579D01*
X157756885Y-73031956D01*
X157701699Y-70907966D01*
X157641282Y-69261266D01*
X157571181Y-68034407D01*
X157486943Y-67169942D01*
X157384112Y-66610425D01*
X157258235Y-66298408D01*
X157232105Y-66263274D01*
X156714499Y-65761807D01*
X156069377Y-65412611D01*
X155197896Y-65191583D01*
X154001213Y-65074615D01*
X153959965Y-65073674D01*
X153959965Y-65580827D01*
X155037199Y-65793757D01*
X156075653Y-66288962D01*
X156611053Y-66705995D01*
X156881293Y-67003075D01*
X157056107Y-67362853D01*
X157155954Y-67900837D01*
X157201294Y-68732532D01*
X157212586Y-69973445D01*
X157212632Y-70102328D01*
X157212632Y-72935128D01*
X155140526Y-72834166D01*
X154107335Y-72752502D01*
X153265606Y-72628658D01*
X152773012Y-72487019D01*
X152734211Y-72462022D01*
X152425651Y-71891741D01*
X152554696Y-71072392D01*
X153099791Y-70072102D01*
X153565363Y-69237821D01*
X153591626Y-68632560D01*
X153162881Y-68158997D01*
X152754623Y-67932349D01*
X152090141Y-67415240D01*
X151925285Y-66780059D01*
X152277354Y-66094684D01*
X152284319Y-66086949D01*
X152992742Y-65671462D01*
X153959965Y-65580827D01*
X153959965Y-65073674D01*
X152380488Y-65037602D01*
X152205400Y-65037369D01*
X150521885Y-65005710D01*
X149311866Y-64895684D01*
X148517019Y-64684712D01*
X148079023Y-64350216D01*
X147939554Y-63869619D01*
X147994140Y-63407123D01*
X148016753Y-62801439D01*
X147797013Y-62640569D01*
X147440646Y-62963391D01*
X147322936Y-63160303D01*
X147162367Y-63914125D01*
X147340840Y-64699287D01*
X147795752Y-65268647D01*
X147867915Y-65311789D01*
X148390402Y-65452580D01*
X149237940Y-65547107D01*
X149976107Y-65572105D01*
X150966354Y-65607483D01*
X151474570Y-65731698D01*
X151549886Y-65971878D01*
X151296628Y-66301161D01*
X151097789Y-66831204D01*
X151269018Y-67490876D01*
X151740120Y-68106307D01*
X152136505Y-68381477D01*
X152717455Y-68714383D01*
X152885628Y-69009518D01*
X152679980Y-69453094D01*
X152435078Y-69808726D01*
X151833463Y-70906464D01*
X151716140Y-71813207D01*
X151859858Y-72246217D01*
X151995472Y-72577253D01*
X151863476Y-72737132D01*
X151357541Y-72787578D01*
X150921304Y-72791053D01*
X150543113Y-72821724D01*
X150543113Y-73271507D01*
X151271030Y-73443482D01*
X152043235Y-73841784D01*
X152764113Y-74555878D01*
X153243566Y-75385139D01*
X153303881Y-75588912D01*
X153389320Y-76451247D01*
X153357519Y-77568774D01*
X153229428Y-78727038D01*
X153025998Y-79711584D01*
X152856288Y-80170555D01*
X152384483Y-80776604D01*
X151722668Y-81305779D01*
X151084630Y-81597155D01*
X150938402Y-81614211D01*
X150924685Y-81405129D01*
X151106037Y-80874679D01*
X151416253Y-80168056D01*
X151789128Y-79430452D01*
X152158457Y-78807062D01*
X152319282Y-78585802D01*
X152835335Y-77715197D01*
X152846132Y-76938161D01*
X152352132Y-76174488D01*
X152333158Y-76154708D01*
X152053146Y-75802498D01*
X152053146Y-76968518D01*
X152090416Y-77336316D01*
X152048398Y-77715880D01*
X151955559Y-77670526D01*
X151920245Y-77123131D01*
X151955559Y-77002105D01*
X152053146Y-76968518D01*
X152053146Y-75802498D01*
X151830423Y-75522347D01*
X151296024Y-74688639D01*
X151137346Y-74401826D01*
X150543113Y-73271507D01*
X150543113Y-72821724D01*
X149795642Y-72882345D01*
X149641137Y-72947997D01*
X149641137Y-73764746D01*
X149931183Y-73919603D01*
X150330439Y-74405237D01*
X150692609Y-75063581D01*
X150904404Y-75871287D01*
X151022020Y-76971502D01*
X151040374Y-78150258D01*
X150954384Y-79193586D01*
X150804930Y-79792068D01*
X150421331Y-80515786D01*
X150138458Y-80927384D01*
X149840316Y-81251635D01*
X149576293Y-81249901D01*
X149152911Y-80901112D01*
X149055014Y-80809399D01*
X148558605Y-80134480D01*
X148115766Y-79187220D01*
X147804856Y-78182939D01*
X147704236Y-77336955D01*
X147725007Y-77154805D01*
X147855567Y-76515025D01*
X147972239Y-75953238D01*
X148245020Y-75275459D01*
X148723353Y-74528928D01*
X148820663Y-74408208D01*
X149306545Y-73895627D01*
X149641137Y-73764746D01*
X149641137Y-72947997D01*
X148987216Y-73225860D01*
X148308221Y-73926055D01*
X147962080Y-74436990D01*
X147282297Y-75991816D01*
X147109855Y-77651247D01*
X147450403Y-79334833D01*
X147592909Y-79696253D01*
X148270223Y-80949379D01*
X149054230Y-81729886D01*
X150021607Y-82099045D01*
X150662105Y-82148947D01*
X151930849Y-81927116D01*
X152900386Y-81264007D01*
X153568234Y-80163202D01*
X153931913Y-78628281D01*
X154004211Y-77327326D01*
X153955183Y-76047397D01*
X153768628Y-75106775D01*
X153385337Y-74315799D01*
X152838489Y-73593158D01*
X152565054Y-73240359D01*
X152601619Y-73212341D01*
X152658005Y-73258947D01*
X153135742Y-73444729D01*
X153971100Y-73564249D01*
X154704238Y-73593158D01*
X155779133Y-73601088D01*
X156492719Y-73685418D01*
X156918929Y-73936961D01*
X157131698Y-74446530D01*
X157204958Y-75304936D01*
X157212643Y-76602993D01*
X157212632Y-76674220D01*
X157240428Y-78115592D01*
X157325481Y-79047640D01*
X157470283Y-79492964D01*
X157528399Y-79535958D01*
X157646183Y-79789903D01*
X157461320Y-80405538D01*
X157261031Y-80845811D01*
X156914096Y-81691632D01*
X156705840Y-82448744D01*
X156678894Y-82701257D01*
X156862059Y-83526767D01*
X157321438Y-84359386D01*
X157925339Y-85002395D01*
X158376951Y-85237827D01*
X159013538Y-85311478D01*
X159975478Y-85328402D01*
X161092817Y-85296732D01*
X162195598Y-85224602D01*
X163113866Y-85120144D01*
X163677666Y-84991492D01*
X163696316Y-84983272D01*
X164079817Y-84933963D01*
X164140747Y-85262582D01*
X163881083Y-85922075D01*
X163638912Y-86349299D01*
X163002643Y-87188528D01*
X162193878Y-87849580D01*
X161156601Y-88345585D01*
X159834794Y-88689668D01*
X158172443Y-88894957D01*
X156113531Y-88974581D01*
X153602042Y-88941667D01*
X152711339Y-88910211D01*
X150926241Y-88830624D01*
X149603491Y-88726577D01*
X148670922Y-88558206D01*
X148056367Y-88285649D01*
X147687659Y-87869044D01*
X147492632Y-87268527D01*
X147399119Y-86444236D01*
X147369212Y-85959384D01*
X147263624Y-84090740D01*
X148227602Y-83355478D01*
X148911326Y-82760611D01*
X149182542Y-82348388D01*
X149019464Y-82157535D01*
X148906371Y-82148947D01*
X148532404Y-82299800D01*
X147936264Y-82678036D01*
X147701461Y-82850439D01*
X146721156Y-83353502D01*
X145710866Y-83353405D01*
X144599573Y-82849226D01*
X144538046Y-82809434D01*
X143799262Y-82053032D01*
X143172334Y-80898257D01*
X142689060Y-79475448D01*
X142381239Y-77914943D01*
X142280669Y-76347080D01*
X142419147Y-74902196D01*
X142512986Y-74508883D01*
X142891966Y-73527556D01*
X143411579Y-72648467D01*
X143976128Y-72003439D01*
X144489919Y-71724298D01*
X144536399Y-71721579D01*
X144876804Y-71578162D01*
X144913684Y-71469990D01*
X144759265Y-71096163D01*
X144358754Y-71073583D01*
X143806275Y-71340947D01*
X143195952Y-71836953D01*
X142621907Y-72500296D01*
X142189328Y-73244387D01*
X141936813Y-73894276D01*
X141786281Y-74546495D01*
X141722253Y-75348247D01*
X141729249Y-76446737D01*
X141761318Y-77314624D01*
X141963321Y-79408450D01*
X142388985Y-81057253D01*
X143067331Y-82314067D01*
X144027378Y-83231923D01*
X145298148Y-83863854D01*
X145356230Y-83884063D01*
X145927237Y-84105949D01*
X146253171Y-84376185D01*
X146428237Y-84847804D01*
X146546641Y-85673841D01*
X146566785Y-85850569D01*
X146716072Y-86822618D01*
X146911138Y-87649340D01*
X147056342Y-88037986D01*
X147258900Y-88499761D01*
X147274820Y-88681414D01*
X146987288Y-88767459D01*
X146325003Y-88922744D01*
X145527423Y-89093521D01*
X143545455Y-89404691D01*
X141994014Y-89433174D01*
X140880711Y-89179932D01*
X140213159Y-88645925D01*
X140091596Y-88407232D01*
X140019988Y-87957442D01*
X139956234Y-87055187D01*
X139903219Y-85782714D01*
X139863826Y-84222272D01*
X139840943Y-82456109D01*
X139836296Y-81128910D01*
X139839114Y-79071876D01*
X139849718Y-77474114D01*
X139874081Y-76260164D01*
X139918175Y-75354566D01*
X139987973Y-74681858D01*
X140089445Y-74166580D01*
X140228564Y-73733271D01*
X140411303Y-73306469D01*
X140464427Y-73192105D01*
X141222452Y-71919871D01*
X142203520Y-70768923D01*
X143280593Y-69864310D01*
X144326635Y-69331081D01*
X144411852Y-69306403D01*
X145844889Y-69162875D01*
X147350261Y-69421469D01*
X148175670Y-69752049D01*
X148811950Y-70046238D01*
X149109186Y-70072960D01*
X149190405Y-69833883D01*
X149191579Y-69765836D01*
X148945724Y-69335654D01*
X148289156Y-68977457D01*
X147343370Y-68711286D01*
X146229860Y-68557181D01*
X145070122Y-68535183D01*
X143985649Y-68665333D01*
X143441823Y-68817414D01*
X142420278Y-68937915D01*
X141486495Y-68596687D01*
X140719976Y-67866675D01*
X140200222Y-66820821D01*
X140009070Y-65667797D01*
X140166368Y-64035520D01*
X140755579Y-62715893D01*
X141782034Y-61699120D01*
X142356843Y-61353785D01*
X143120997Y-60999535D01*
X143850692Y-60785634D01*
X144727764Y-60677529D01*
X145934050Y-60640672D01*
X146116842Y-60639355D01*
X148523158Y-60625790D01*
X148523158Y-59922992D01*
X146304488Y-60005491D01*
X144906909Y-60077142D01*
X143890938Y-60189161D01*
X143103576Y-60370026D01*
X142391826Y-60648216D01*
X142106316Y-60786908D01*
X140808748Y-61691171D01*
X139953118Y-62881245D01*
X139526631Y-64379808D01*
X139471783Y-65457314D01*
X139653093Y-67044274D01*
X140134549Y-68205287D01*
X140926725Y-68963949D01*
X141080874Y-69048494D01*
X141636366Y-69332705D01*
X141934318Y-69492203D01*
X141937785Y-69494368D01*
X141848359Y-69724649D01*
X141515881Y-70258410D01*
X141111942Y-70840066D01*
X140590764Y-71583455D01*
X140180316Y-72252715D01*
X139867447Y-72923783D01*
X139639003Y-73672598D01*
X139481833Y-74575096D01*
X139382787Y-75707216D01*
X139328711Y-77144893D01*
X139306454Y-78964067D01*
X139302864Y-81240674D01*
X139302889Y-81285411D01*
G37*
X139302889Y-81285411D02*
X139308106Y-83563931D01*
X139329071Y-85368426D01*
X139378117Y-86759595D01*
X139467575Y-87798139D01*
X139609777Y-88544759D01*
X139817055Y-89060154D01*
X140101741Y-89405024D01*
X140476166Y-89640071D01*
X140952662Y-89825993D01*
X141044270Y-89856936D01*
X141620044Y-90010937D01*
X142242618Y-90071518D01*
X143048292Y-90036621D01*
X144173365Y-89904187D01*
X144913684Y-89798479D01*
X146134442Y-89644220D01*
X147401049Y-89543463D01*
X148826760Y-89492849D01*
X150524831Y-89489020D01*
X152608518Y-89528619D01*
X153335790Y-89548759D01*
X155694124Y-89597450D01*
X157596632Y-89583864D01*
X159119711Y-89497496D01*
X160339759Y-89327840D01*
X161333173Y-89064394D01*
X162176351Y-88696652D01*
X162922616Y-88230599D01*
X163677101Y-87427805D01*
X164347365Y-86206324D01*
X164882364Y-84681176D01*
X165218697Y-83056726D01*
X165365034Y-81673631D01*
X165480711Y-79868685D01*
X165563554Y-77754015D01*
X165611391Y-75441748D01*
X165622050Y-73044011D01*
X165593357Y-70672931D01*
X165523140Y-68440634D01*
X165508297Y-68112105D01*
X165434772Y-66498265D01*
X165368144Y-64928277D01*
X165314117Y-63544481D01*
X165278396Y-62489218D01*
X165269893Y-62163158D01*
X165233684Y-60492105D01*
X164077133Y-60492105D01*
X163938281Y-60504196D01*
X163938281Y-61026842D01*
X164366827Y-61054567D01*
X164597783Y-61223493D01*
X164697822Y-61662253D01*
X164733618Y-62499477D01*
X164735156Y-62564211D01*
X164759551Y-63377093D01*
X164802489Y-64586565D01*
X164858786Y-66055003D01*
X164923256Y-67644788D01*
X164954252Y-68379474D01*
X165056752Y-70886113D01*
X165128384Y-72918104D01*
X165169803Y-74534607D01*
X165181663Y-75794782D01*
X165164618Y-76757786D01*
X165119324Y-77482780D01*
X165060140Y-77949818D01*
X164936790Y-78594623D01*
X164788128Y-78788918D01*
X164502145Y-78609852D01*
X164327819Y-78454227D01*
X163723971Y-77973133D01*
X163277605Y-77686530D01*
X163128235Y-77574540D01*
X163013422Y-77374561D01*
X162929014Y-77023191D01*
X162870860Y-76457029D01*
X162834809Y-75612672D01*
X162816708Y-74426720D01*
X162812409Y-72835770D01*
X162817757Y-70776422D01*
X162818167Y-70669609D01*
X162833253Y-68447110D01*
X162861687Y-66695763D01*
X162906966Y-65352073D01*
X162972586Y-64352547D01*
X163062045Y-63633689D01*
X163178839Y-63132007D01*
X163243014Y-62955940D01*
X163478236Y-62165771D01*
X163421936Y-61760948D01*
X163144630Y-61785759D01*
X162716835Y-62284490D01*
X162569724Y-62533090D01*
X162228088Y-63135464D01*
X162091524Y-63292472D01*
X162113766Y-63030735D01*
X162167149Y-62764737D01*
X162572138Y-61755644D01*
X163256295Y-61167110D01*
X163938281Y-61026842D01*
X163938281Y-60504196D01*
X163269068Y-60562472D01*
X162626717Y-60808129D01*
X162131968Y-61280916D01*
X161866757Y-61826756D01*
X161866757Y-66445441D01*
X161883568Y-66766654D01*
X161896770Y-67533506D01*
X161905596Y-68716297D01*
X161909283Y-70285327D01*
X161909345Y-70518421D01*
X161906520Y-72145179D01*
X161898397Y-73398016D01*
X161885744Y-74245498D01*
X161869329Y-74656195D01*
X161849921Y-74598673D01*
X161828286Y-74041500D01*
X161825664Y-73942933D01*
X161798279Y-72266048D01*
X161791160Y-70333349D01*
X161804320Y-68423378D01*
X161825367Y-67258723D01*
X161847102Y-66599564D01*
X161866757Y-66445441D01*
X161866757Y-61826756D01*
X161766709Y-62032669D01*
X161512829Y-63115226D01*
X161352216Y-64580426D01*
X161266759Y-66480105D01*
X161239096Y-68614983D01*
X161225503Y-72236288D01*
X161225503Y-77802755D01*
X162424019Y-77975524D01*
X163600077Y-78678078D01*
X163875801Y-78920870D01*
X164338260Y-79406623D01*
X164585648Y-79886942D01*
X164683748Y-80555232D01*
X164698948Y-81340996D01*
X164669186Y-82306487D01*
X164537760Y-82935393D01*
X164241457Y-83424478D01*
X163917409Y-83773725D01*
X163508188Y-84150996D01*
X163110074Y-84382117D01*
X162580689Y-84502746D01*
X161777658Y-84548540D01*
X160796883Y-84555263D01*
X159397642Y-84512355D01*
X158447502Y-84351106D01*
X157865369Y-84022724D01*
X157570150Y-83478420D01*
X157480751Y-82669405D01*
X157480000Y-82559663D01*
X157567314Y-81725452D01*
X157783746Y-81051484D01*
X157849725Y-80943418D01*
X158419012Y-80562242D01*
X159232695Y-80436861D01*
X160063736Y-80570694D01*
X160625159Y-80901625D01*
X160895222Y-81196737D01*
X160809767Y-81250613D01*
X160299407Y-81090141D01*
X160214702Y-81060681D01*
X159360001Y-80923735D01*
X158813366Y-81222259D01*
X158566556Y-81962486D01*
X158549474Y-82319695D01*
X158768554Y-83160367D01*
X159419517Y-83694762D01*
X160492951Y-83918594D01*
X161890821Y-83840323D01*
X162839168Y-83669754D01*
X163404813Y-83443788D01*
X163739590Y-83092335D01*
X163818455Y-82950466D01*
X164145062Y-81808538D01*
X164061129Y-80638562D01*
X163583925Y-79636208D01*
X163518939Y-79557015D01*
X163023489Y-79086463D01*
X162459978Y-78864824D01*
X161604026Y-78806965D01*
X161544089Y-78806847D01*
X161544089Y-79487000D01*
X162426733Y-79726909D01*
X163003082Y-80161408D01*
X163473872Y-80765139D01*
X163569036Y-81375518D01*
X163524078Y-81673294D01*
X163313139Y-82378929D01*
X163060411Y-82858728D01*
X162615515Y-83070887D01*
X161840263Y-83189777D01*
X160931206Y-83213308D01*
X160084892Y-83139392D01*
X159497871Y-82965940D01*
X159405053Y-82897579D01*
X159126708Y-82402778D01*
X159129922Y-81908396D01*
X159399238Y-81626632D01*
X159498541Y-81614211D01*
X160016708Y-81731949D01*
X160689378Y-82015784D01*
X160701699Y-82022129D01*
X161490526Y-82430048D01*
X161490526Y-81551707D01*
X161319839Y-80732884D01*
X160916518Y-80314892D01*
X160544136Y-80012756D01*
X160622823Y-79785364D01*
X160715991Y-79719934D01*
X161544089Y-79487000D01*
X161544089Y-78806847D01*
X161541747Y-78806842D01*
X160419237Y-78920687D01*
X159688653Y-79279021D01*
X159663866Y-79300929D01*
X159176518Y-79608759D01*
X158845367Y-79626577D01*
X158660228Y-79286195D01*
X158937216Y-78837825D01*
X159630516Y-78340635D01*
X159984167Y-78155768D01*
X161225503Y-77802755D01*
X161225503Y-72236288D01*
X161223158Y-72861019D01*
X161022632Y-72828479D01*
X161022632Y-73330188D01*
X161122307Y-73572406D01*
X161194099Y-74213074D01*
X161223098Y-75116060D01*
X161223158Y-75161044D01*
X161223158Y-76996299D01*
X160077903Y-77433676D01*
X159348584Y-77696446D01*
X158835911Y-77852439D01*
X158728303Y-77871053D01*
X158633956Y-77628251D01*
X158590387Y-76995105D01*
X158603558Y-76207265D01*
X158663837Y-75286979D01*
X158791263Y-74730839D01*
X159072083Y-74368597D01*
X159592545Y-74030003D01*
X159752632Y-73939031D01*
X160434163Y-73575741D01*
X160917778Y-73357741D01*
X161022632Y-73330188D01*
X161022632Y-72828479D01*
X160263511Y-72705290D01*
X159394978Y-72466911D01*
X158833454Y-72145887D01*
X158833454Y-72828955D01*
X159202852Y-72955961D01*
X159480927Y-73180801D01*
X159325665Y-73490698D01*
X158945785Y-73809093D01*
X158784104Y-73860526D01*
X158593381Y-73636307D01*
X158549474Y-73325790D01*
X158591706Y-72888265D01*
X158833454Y-72828955D01*
X158833454Y-72145887D01*
X158775594Y-72112808D01*
X158549474Y-71738075D01*
X158761402Y-71508142D01*
X159297299Y-71140689D01*
X159610970Y-70956083D01*
X160286930Y-70541649D01*
X160746400Y-70196415D01*
X160831245Y-70102580D01*
X160701646Y-69862929D01*
X160196970Y-69528817D01*
X159750616Y-69314399D01*
X159248769Y-69099283D01*
X159248769Y-69644059D01*
X159461403Y-69907004D01*
X159331824Y-70274856D01*
X158950556Y-70597542D01*
X158784104Y-70652105D01*
X158576626Y-70456577D01*
X158589022Y-70053821D01*
X158811647Y-69719586D01*
X158816842Y-69716316D01*
X159248769Y-69644059D01*
X159248769Y-69099283D01*
X158511209Y-68783127D01*
X159115259Y-67912880D01*
X159703068Y-67103435D01*
X160305635Y-66326036D01*
X160337550Y-66286855D01*
X160745271Y-65739190D01*
X160950109Y-65367620D01*
X160955790Y-65334004D01*
X160714123Y-65247007D01*
X160086613Y-65220944D01*
X159377567Y-65251090D01*
X159084211Y-65265789D01*
X159084211Y-65839474D01*
X159530080Y-65943994D01*
X159545563Y-66284267D01*
X159130982Y-66900359D01*
X159093106Y-66946169D01*
X158567264Y-67577369D01*
X158558369Y-66708421D01*
X158620959Y-66093144D01*
X158883362Y-65858584D01*
X159084211Y-65839474D01*
X159084211Y-65265789D01*
X158478001Y-65296165D01*
X157942339Y-65233976D01*
X157602898Y-65015216D01*
X157330072Y-64649047D01*
X156988418Y-63951862D01*
X156668491Y-63019489D01*
X156560685Y-62600307D01*
X156343629Y-61836250D01*
X156116360Y-61338073D01*
X156001338Y-61233899D01*
X155716210Y-61409379D01*
X155716210Y-62263446D01*
X156051309Y-63048828D01*
X156323077Y-63756651D01*
X156305292Y-64106556D01*
X155936958Y-64224059D01*
X155474737Y-64235263D01*
X154826320Y-64205240D01*
X154593789Y-64045519D01*
X154745473Y-63651625D01*
X155127579Y-63090102D01*
X155716210Y-62263446D01*
X155716210Y-61409379D01*
X155715557Y-61409781D01*
X155209913Y-61904132D01*
X154591173Y-62612034D01*
X154559466Y-62650805D01*
X153715239Y-63591967D01*
X153073354Y-64057796D01*
X152588345Y-64046812D01*
X152214745Y-63557533D01*
X151907091Y-62588478D01*
X151901302Y-62564211D01*
X151680967Y-61748022D01*
X151480649Y-61194480D01*
X151366565Y-61036964D01*
X151167812Y-61199440D01*
X151167812Y-62401534D01*
X151336764Y-62691259D01*
X151500588Y-63435634D01*
X151561484Y-63767369D01*
X151362851Y-63918840D01*
X150945253Y-63967895D01*
X150322142Y-63869862D01*
X150180466Y-63554797D01*
X150507189Y-62991249D01*
X150529142Y-62963926D01*
X150922387Y-62510932D01*
X151167812Y-62401534D01*
X151167812Y-61199440D01*
X151122626Y-61236379D01*
X150669355Y-61740951D01*
X150261053Y-62243967D01*
X149325263Y-63440849D01*
X149245541Y-61669972D01*
X149165819Y-59899096D01*
X148523158Y-59922992D01*
X148523158Y-60625790D01*
X148602690Y-62294227D01*
X148668818Y-63126615D01*
X148827110Y-63731134D01*
X149154759Y-64149710D01*
X149728958Y-64424273D01*
X150626901Y-64596749D01*
X151925780Y-64709068D01*
X153174238Y-64777303D01*
X154555093Y-64849611D01*
X155509628Y-64922655D01*
X156145621Y-65023359D01*
X156570847Y-65178648D01*
X156893082Y-65415447D01*
X157220103Y-65760681D01*
X157251607Y-65795924D01*
X158014737Y-66650015D01*
X157957412Y-72995797D01*
X157900086Y-79341579D01*
X157756885Y-73031956D01*
X157701699Y-70907966D01*
X157641282Y-69261266D01*
X157571181Y-68034407D01*
X157486943Y-67169942D01*
X157384112Y-66610425D01*
X157258235Y-66298408D01*
X157232105Y-66263274D01*
X156714499Y-65761807D01*
X156069377Y-65412611D01*
X155197896Y-65191583D01*
X154001213Y-65074615D01*
X153959965Y-65073674D01*
X153959965Y-65580827D01*
X155037199Y-65793757D01*
X156075653Y-66288962D01*
X156611053Y-66705995D01*
X156881293Y-67003075D01*
X157056107Y-67362853D01*
X157155954Y-67900837D01*
X157201294Y-68732532D01*
X157212586Y-69973445D01*
X157212632Y-70102328D01*
X157212632Y-72935128D01*
X155140526Y-72834166D01*
X154107335Y-72752502D01*
X153265606Y-72628658D01*
X152773012Y-72487019D01*
X152734211Y-72462022D01*
X152425651Y-71891741D01*
X152554696Y-71072392D01*
X153099791Y-70072102D01*
X153565363Y-69237821D01*
X153591626Y-68632560D01*
X153162881Y-68158997D01*
X152754623Y-67932349D01*
X152090141Y-67415240D01*
X151925285Y-66780059D01*
X152277354Y-66094684D01*
X152284319Y-66086949D01*
X152992742Y-65671462D01*
X153959965Y-65580827D01*
X153959965Y-65073674D01*
X152380488Y-65037602D01*
X152205400Y-65037369D01*
X150521885Y-65005710D01*
X149311866Y-64895684D01*
X148517019Y-64684712D01*
X148079023Y-64350216D01*
X147939554Y-63869619D01*
X147994140Y-63407123D01*
X148016753Y-62801439D01*
X147797013Y-62640569D01*
X147440646Y-62963391D01*
X147322936Y-63160303D01*
X147162367Y-63914125D01*
X147340840Y-64699287D01*
X147795752Y-65268647D01*
X147867915Y-65311789D01*
X148390402Y-65452580D01*
X149237940Y-65547107D01*
X149976107Y-65572105D01*
X150966354Y-65607483D01*
X151474570Y-65731698D01*
X151549886Y-65971878D01*
X151296628Y-66301161D01*
X151097789Y-66831204D01*
X151269018Y-67490876D01*
X151740120Y-68106307D01*
X152136505Y-68381477D01*
X152717455Y-68714383D01*
X152885628Y-69009518D01*
X152679980Y-69453094D01*
X152435078Y-69808726D01*
X151833463Y-70906464D01*
X151716140Y-71813207D01*
X151859858Y-72246217D01*
X151995472Y-72577253D01*
X151863476Y-72737132D01*
X151357541Y-72787578D01*
X150921304Y-72791053D01*
X150543113Y-72821724D01*
X150543113Y-73271507D01*
X151271030Y-73443482D01*
X152043235Y-73841784D01*
X152764113Y-74555878D01*
X153243566Y-75385139D01*
X153303881Y-75588912D01*
X153389320Y-76451247D01*
X153357519Y-77568774D01*
X153229428Y-78727038D01*
X153025998Y-79711584D01*
X152856288Y-80170555D01*
X152384483Y-80776604D01*
X151722668Y-81305779D01*
X151084630Y-81597155D01*
X150938402Y-81614211D01*
X150924685Y-81405129D01*
X151106037Y-80874679D01*
X151416253Y-80168056D01*
X151789128Y-79430452D01*
X152158457Y-78807062D01*
X152319282Y-78585802D01*
X152835335Y-77715197D01*
X152846132Y-76938161D01*
X152352132Y-76174488D01*
X152333158Y-76154708D01*
X152053146Y-75802498D01*
X152053146Y-76968518D01*
X152090416Y-77336316D01*
X152048398Y-77715880D01*
X151955559Y-77670526D01*
X151920245Y-77123131D01*
X151955559Y-77002105D01*
X152053146Y-76968518D01*
X152053146Y-75802498D01*
X151830423Y-75522347D01*
X151296024Y-74688639D01*
X151137346Y-74401826D01*
X150543113Y-73271507D01*
X150543113Y-72821724D01*
X149795642Y-72882345D01*
X149641137Y-72947997D01*
X149641137Y-73764746D01*
X149931183Y-73919603D01*
X150330439Y-74405237D01*
X150692609Y-75063581D01*
X150904404Y-75871287D01*
X151022020Y-76971502D01*
X151040374Y-78150258D01*
X150954384Y-79193586D01*
X150804930Y-79792068D01*
X150421331Y-80515786D01*
X150138458Y-80927384D01*
X149840316Y-81251635D01*
X149576293Y-81249901D01*
X149152911Y-80901112D01*
X149055014Y-80809399D01*
X148558605Y-80134480D01*
X148115766Y-79187220D01*
X147804856Y-78182939D01*
X147704236Y-77336955D01*
X147725007Y-77154805D01*
X147855567Y-76515025D01*
X147972239Y-75953238D01*
X148245020Y-75275459D01*
X148723353Y-74528928D01*
X148820663Y-74408208D01*
X149306545Y-73895627D01*
X149641137Y-73764746D01*
X149641137Y-72947997D01*
X148987216Y-73225860D01*
X148308221Y-73926055D01*
X147962080Y-74436990D01*
X147282297Y-75991816D01*
X147109855Y-77651247D01*
X147450403Y-79334833D01*
X147592909Y-79696253D01*
X148270223Y-80949379D01*
X149054230Y-81729886D01*
X150021607Y-82099045D01*
X150662105Y-82148947D01*
X151930849Y-81927116D01*
X152900386Y-81264007D01*
X153568234Y-80163202D01*
X153931913Y-78628281D01*
X154004211Y-77327326D01*
X153955183Y-76047397D01*
X153768628Y-75106775D01*
X153385337Y-74315799D01*
X152838489Y-73593158D01*
X152565054Y-73240359D01*
X152601619Y-73212341D01*
X152658005Y-73258947D01*
X153135742Y-73444729D01*
X153971100Y-73564249D01*
X154704238Y-73593158D01*
X155779133Y-73601088D01*
X156492719Y-73685418D01*
X156918929Y-73936961D01*
X157131698Y-74446530D01*
X157204958Y-75304936D01*
X157212643Y-76602993D01*
X157212632Y-76674220D01*
X157240428Y-78115592D01*
X157325481Y-79047640D01*
X157470283Y-79492964D01*
X157528399Y-79535958D01*
X157646183Y-79789903D01*
X157461320Y-80405538D01*
X157261031Y-80845811D01*
X156914096Y-81691632D01*
X156705840Y-82448744D01*
X156678894Y-82701257D01*
X156862059Y-83526767D01*
X157321438Y-84359386D01*
X157925339Y-85002395D01*
X158376951Y-85237827D01*
X159013538Y-85311478D01*
X159975478Y-85328402D01*
X161092817Y-85296732D01*
X162195598Y-85224602D01*
X163113866Y-85120144D01*
X163677666Y-84991492D01*
X163696316Y-84983272D01*
X164079817Y-84933963D01*
X164140747Y-85262582D01*
X163881083Y-85922075D01*
X163638912Y-86349299D01*
X163002643Y-87188528D01*
X162193878Y-87849580D01*
X161156601Y-88345585D01*
X159834794Y-88689668D01*
X158172443Y-88894957D01*
X156113531Y-88974581D01*
X153602042Y-88941667D01*
X152711339Y-88910211D01*
X150926241Y-88830624D01*
X149603491Y-88726577D01*
X148670922Y-88558206D01*
X148056367Y-88285649D01*
X147687659Y-87869044D01*
X147492632Y-87268527D01*
X147399119Y-86444236D01*
X147369212Y-85959384D01*
X147263624Y-84090740D01*
X148227602Y-83355478D01*
X148911326Y-82760611D01*
X149182542Y-82348388D01*
X149019464Y-82157535D01*
X148906371Y-82148947D01*
X148532404Y-82299800D01*
X147936264Y-82678036D01*
X147701461Y-82850439D01*
X146721156Y-83353502D01*
X145710866Y-83353405D01*
X144599573Y-82849226D01*
X144538046Y-82809434D01*
X143799262Y-82053032D01*
X143172334Y-80898257D01*
X142689060Y-79475448D01*
X142381239Y-77914943D01*
X142280669Y-76347080D01*
X142419147Y-74902196D01*
X142512986Y-74508883D01*
X142891966Y-73527556D01*
X143411579Y-72648467D01*
X143976128Y-72003439D01*
X144489919Y-71724298D01*
X144536399Y-71721579D01*
X144876804Y-71578162D01*
X144913684Y-71469990D01*
X144759265Y-71096163D01*
X144358754Y-71073583D01*
X143806275Y-71340947D01*
X143195952Y-71836953D01*
X142621907Y-72500296D01*
X142189328Y-73244387D01*
X141936813Y-73894276D01*
X141786281Y-74546495D01*
X141722253Y-75348247D01*
X141729249Y-76446737D01*
X141761318Y-77314624D01*
X141963321Y-79408450D01*
X142388985Y-81057253D01*
X143067331Y-82314067D01*
X144027378Y-83231923D01*
X145298148Y-83863854D01*
X145356230Y-83884063D01*
X145927237Y-84105949D01*
X146253171Y-84376185D01*
X146428237Y-84847804D01*
X146546641Y-85673841D01*
X146566785Y-85850569D01*
X146716072Y-86822618D01*
X146911138Y-87649340D01*
X147056342Y-88037986D01*
X147258900Y-88499761D01*
X147274820Y-88681414D01*
X146987288Y-88767459D01*
X146325003Y-88922744D01*
X145527423Y-89093521D01*
X143545455Y-89404691D01*
X141994014Y-89433174D01*
X140880711Y-89179932D01*
X140213159Y-88645925D01*
X140091596Y-88407232D01*
X140019988Y-87957442D01*
X139956234Y-87055187D01*
X139903219Y-85782714D01*
X139863826Y-84222272D01*
X139840943Y-82456109D01*
X139836296Y-81128910D01*
X139839114Y-79071876D01*
X139849718Y-77474114D01*
X139874081Y-76260164D01*
X139918175Y-75354566D01*
X139987973Y-74681858D01*
X140089445Y-74166580D01*
X140228564Y-73733271D01*
X140411303Y-73306469D01*
X140464427Y-73192105D01*
X141222452Y-71919871D01*
X142203520Y-70768923D01*
X143280593Y-69864310D01*
X144326635Y-69331081D01*
X144411852Y-69306403D01*
X145844889Y-69162875D01*
X147350261Y-69421469D01*
X148175670Y-69752049D01*
X148811950Y-70046238D01*
X149109186Y-70072960D01*
X149190405Y-69833883D01*
X149191579Y-69765836D01*
X148945724Y-69335654D01*
X148289156Y-68977457D01*
X147343370Y-68711286D01*
X146229860Y-68557181D01*
X145070122Y-68535183D01*
X143985649Y-68665333D01*
X143441823Y-68817414D01*
X142420278Y-68937915D01*
X141486495Y-68596687D01*
X140719976Y-67866675D01*
X140200222Y-66820821D01*
X140009070Y-65667797D01*
X140166368Y-64035520D01*
X140755579Y-62715893D01*
X141782034Y-61699120D01*
X142356843Y-61353785D01*
X143120997Y-60999535D01*
X143850692Y-60785634D01*
X144727764Y-60677529D01*
X145934050Y-60640672D01*
X146116842Y-60639355D01*
X148523158Y-60625790D01*
X148523158Y-59922992D01*
X146304488Y-60005491D01*
X144906909Y-60077142D01*
X143890938Y-60189161D01*
X143103576Y-60370026D01*
X142391826Y-60648216D01*
X142106316Y-60786908D01*
X140808748Y-61691171D01*
X139953118Y-62881245D01*
X139526631Y-64379808D01*
X139471783Y-65457314D01*
X139653093Y-67044274D01*
X140134549Y-68205287D01*
X140926725Y-68963949D01*
X141080874Y-69048494D01*
X141636366Y-69332705D01*
X141934318Y-69492203D01*
X141937785Y-69494368D01*
X141848359Y-69724649D01*
X141515881Y-70258410D01*
X141111942Y-70840066D01*
X140590764Y-71583455D01*
X140180316Y-72252715D01*
X139867447Y-72923783D01*
X139639003Y-73672598D01*
X139481833Y-74575096D01*
X139382787Y-75707216D01*
X139328711Y-77144893D01*
X139306454Y-78964067D01*
X139302864Y-81240674D01*
X139302889Y-81285411D01*
%LPC*%
D11*
X153670000Y-80010000D03*
D12*
X151130000Y-80010000D03*
D11*
X157480000Y-80010000D03*
D12*
X157480000Y-82550000D03*
X157480000Y-85090000D03*
D11*
X162560000Y-80010000D03*
D12*
X162560000Y-82550000D03*
X162560000Y-85090000D03*
X162560000Y-87630000D03*
D11*
X143510000Y-80010000D03*
D12*
X146050000Y-80010000D03*
X143510000Y-82550000D03*
X146050000Y-82550000D03*
X143510000Y-85090000D03*
X146050000Y-85090000D03*
X143510000Y-87630000D03*
X146050000Y-87630000D03*
D13*
X152400000Y-91440000D03*
X152400000Y-58420000D03*
D11*
X163830000Y-64770000D03*
D12*
X163830000Y-67310000D03*
X161290000Y-64770000D03*
X161290000Y-67310000D03*
X158750000Y-64770000D03*
X158750000Y-67310000D03*
X156210000Y-64770000D03*
X156210000Y-67310000D03*
X153670000Y-64770000D03*
X153670000Y-67310000D03*
X151130000Y-64770000D03*
X151130000Y-67310000D03*
X148590000Y-64770000D03*
X148590000Y-67310000D03*
X146050000Y-64770000D03*
X146050000Y-67310000D03*
X143510000Y-64770000D03*
X143510000Y-67310000D03*
X140970000Y-64770000D03*
X140970000Y-67310000D03*
M02*
