G04 #@! TF.GenerationSoftware,KiCad,Pcbnew,(5.1.10)-1*
G04 #@! TF.CreationDate,2022-05-03T00:12:14-07:00*
G04 #@! TF.ProjectId,DUBloon,4455426c-6f6f-46e2-9e6b-696361645f70,rev?*
G04 #@! TF.SameCoordinates,Original*
G04 #@! TF.FileFunction,Copper,L2,Bot*
G04 #@! TF.FilePolarity,Positive*
%FSLAX46Y46*%
G04 Gerber Fmt 4.6, Leading zero omitted, Abs format (unit mm)*
G04 Created by KiCad (PCBNEW (5.1.10)-1) date 2022-05-03 00:12:14*
%MOMM*%
%LPD*%
G01*
G04 APERTURE LIST*
G04 #@! TA.AperFunction,ComponentPad*
%ADD10R,1.700000X1.700000*%
G04 #@! TD*
G04 #@! TA.AperFunction,ComponentPad*
%ADD11O,1.700000X1.700000*%
G04 #@! TD*
G04 #@! TA.AperFunction,Conductor*
%ADD12C,0.250000*%
G04 #@! TD*
G04 #@! TA.AperFunction,Conductor*
%ADD13C,0.254000*%
G04 #@! TD*
G04 #@! TA.AperFunction,Conductor*
%ADD14C,0.100000*%
G04 #@! TD*
G04 APERTURE END LIST*
D10*
X153670000Y-80010000D03*
D11*
X151130000Y-80010000D03*
D10*
X157480000Y-80010000D03*
D11*
X157480000Y-82550000D03*
X157480000Y-85090000D03*
D10*
X162560000Y-80010000D03*
D11*
X162560000Y-82550000D03*
X162560000Y-85090000D03*
X162560000Y-87630000D03*
D10*
X143510000Y-80010000D03*
D11*
X146050000Y-80010000D03*
X143510000Y-82550000D03*
X146050000Y-82550000D03*
X143510000Y-85090000D03*
X146050000Y-85090000D03*
X143510000Y-87630000D03*
X146050000Y-87630000D03*
D10*
X163830000Y-64770000D03*
D11*
X163830000Y-67310000D03*
X161290000Y-64770000D03*
X161290000Y-67310000D03*
X158750000Y-64770000D03*
X158750000Y-67310000D03*
X156210000Y-64770000D03*
X156210000Y-67310000D03*
X153670000Y-64770000D03*
X153670000Y-67310000D03*
X151130000Y-64770000D03*
X151130000Y-67310000D03*
X148590000Y-64770000D03*
X148590000Y-67310000D03*
X146050000Y-64770000D03*
X146050000Y-67310000D03*
X143510000Y-64770000D03*
X143510000Y-67310000D03*
X140970000Y-64770000D03*
X140970000Y-67310000D03*
D12*
X162560000Y-66040000D02*
X163830000Y-64770000D01*
X162560000Y-80010000D02*
X162560000Y-66040000D01*
X162560000Y-82550000D02*
X163830000Y-82550000D01*
X163830000Y-82550000D02*
X165100000Y-81280000D01*
X165100000Y-68580000D02*
X163830000Y-67310000D01*
X165100000Y-81280000D02*
X165100000Y-68580000D01*
X162560000Y-87630000D02*
X161290000Y-86360000D01*
X161290000Y-86360000D02*
X161290000Y-67310000D01*
X157480000Y-82550000D02*
X158750000Y-82550000D01*
X158750000Y-82550000D02*
X160020000Y-81280000D01*
X160020000Y-81280000D02*
X160020000Y-69850000D01*
X160020000Y-69850000D02*
X158750000Y-68580000D01*
X158750000Y-68580000D02*
X158750000Y-67310000D01*
X146050000Y-77470000D02*
X156210000Y-67310000D01*
X146050000Y-80010000D02*
X146050000Y-77470000D01*
X146050000Y-85090000D02*
X144780000Y-83820000D01*
X144780000Y-83820000D02*
X144780000Y-77470000D01*
X144780000Y-77470000D02*
X153670000Y-68580000D01*
X153670000Y-68580000D02*
X153670000Y-67310000D01*
D13*
X154570346Y-55390164D02*
X156288786Y-55658442D01*
X157976791Y-56077546D01*
X159621149Y-56644197D01*
X161208993Y-57353958D01*
X162727894Y-58201276D01*
X164165966Y-59179519D01*
X165511953Y-60281031D01*
X166755321Y-61497190D01*
X167886339Y-62818480D01*
X168896155Y-64234559D01*
X169776867Y-65734344D01*
X170521581Y-67306098D01*
X171124470Y-68937519D01*
X171580814Y-70615839D01*
X171887042Y-72327923D01*
X172040757Y-74060372D01*
X172040757Y-75799628D01*
X171887042Y-77532077D01*
X171580814Y-79244161D01*
X171124470Y-80922481D01*
X170521581Y-82553902D01*
X169776867Y-84125656D01*
X168896155Y-85625441D01*
X167886339Y-87041520D01*
X166755321Y-88362810D01*
X165511953Y-89578969D01*
X164165966Y-90680481D01*
X162727894Y-91658724D01*
X161208993Y-92506042D01*
X159621149Y-93215803D01*
X157976791Y-93782454D01*
X156288786Y-94201558D01*
X154570346Y-94469836D01*
X152834920Y-94585189D01*
X151096091Y-94546713D01*
X149367466Y-94354709D01*
X147662575Y-94010681D01*
X145994761Y-93517321D01*
X144377076Y-92878490D01*
X142822182Y-92099188D01*
X141397901Y-91219872D01*
X150165000Y-91219872D01*
X150165000Y-91660128D01*
X150250890Y-92091925D01*
X150419369Y-92498669D01*
X150663962Y-92864729D01*
X150975271Y-93176038D01*
X151341331Y-93420631D01*
X151748075Y-93589110D01*
X152179872Y-93675000D01*
X152620128Y-93675000D01*
X153051925Y-93589110D01*
X153458669Y-93420631D01*
X153824729Y-93176038D01*
X154136038Y-92864729D01*
X154380631Y-92498669D01*
X154549110Y-92091925D01*
X154635000Y-91660128D01*
X154635000Y-91219872D01*
X154549110Y-90788075D01*
X154380631Y-90381331D01*
X154136038Y-90015271D01*
X153824729Y-89703962D01*
X153458669Y-89459369D01*
X153051925Y-89290890D01*
X152620128Y-89205000D01*
X152179872Y-89205000D01*
X151748075Y-89290890D01*
X151341331Y-89459369D01*
X150975271Y-89703962D01*
X150663962Y-90015271D01*
X150419369Y-90381331D01*
X150250890Y-90788075D01*
X150165000Y-91219872D01*
X141397901Y-91219872D01*
X141342247Y-91185513D01*
X139948854Y-90144617D01*
X138652908Y-88984646D01*
X137464552Y-87714678D01*
X136393086Y-86344653D01*
X135446896Y-84885292D01*
X134633386Y-83348018D01*
X133958925Y-81744862D01*
X133428790Y-80088370D01*
X133219981Y-79160000D01*
X142021928Y-79160000D01*
X142021928Y-80860000D01*
X142034188Y-80984482D01*
X142070498Y-81104180D01*
X142129463Y-81214494D01*
X142208815Y-81311185D01*
X142305506Y-81390537D01*
X142415820Y-81449502D01*
X142488380Y-81471513D01*
X142356525Y-81603368D01*
X142194010Y-81846589D01*
X142082068Y-82116842D01*
X142025000Y-82403740D01*
X142025000Y-82696260D01*
X142082068Y-82983158D01*
X142194010Y-83253411D01*
X142356525Y-83496632D01*
X142563368Y-83703475D01*
X142737760Y-83820000D01*
X142563368Y-83936525D01*
X142356525Y-84143368D01*
X142194010Y-84386589D01*
X142082068Y-84656842D01*
X142025000Y-84943740D01*
X142025000Y-85236260D01*
X142082068Y-85523158D01*
X142194010Y-85793411D01*
X142356525Y-86036632D01*
X142563368Y-86243475D01*
X142737760Y-86360000D01*
X142563368Y-86476525D01*
X142356525Y-86683368D01*
X142194010Y-86926589D01*
X142082068Y-87196842D01*
X142025000Y-87483740D01*
X142025000Y-87776260D01*
X142082068Y-88063158D01*
X142194010Y-88333411D01*
X142356525Y-88576632D01*
X142563368Y-88783475D01*
X142806589Y-88945990D01*
X143076842Y-89057932D01*
X143363740Y-89115000D01*
X143656260Y-89115000D01*
X143943158Y-89057932D01*
X144213411Y-88945990D01*
X144456632Y-88783475D01*
X144663475Y-88576632D01*
X144780000Y-88402240D01*
X144896525Y-88576632D01*
X145103368Y-88783475D01*
X145346589Y-88945990D01*
X145616842Y-89057932D01*
X145903740Y-89115000D01*
X146196260Y-89115000D01*
X146483158Y-89057932D01*
X146753411Y-88945990D01*
X146996632Y-88783475D01*
X147203475Y-88576632D01*
X147365990Y-88333411D01*
X147477932Y-88063158D01*
X147535000Y-87776260D01*
X147535000Y-87483740D01*
X147477932Y-87196842D01*
X147365990Y-86926589D01*
X147203475Y-86683368D01*
X146996632Y-86476525D01*
X146822240Y-86360000D01*
X146996632Y-86243475D01*
X147203475Y-86036632D01*
X147365990Y-85793411D01*
X147477932Y-85523158D01*
X147535000Y-85236260D01*
X147535000Y-84943740D01*
X147477932Y-84656842D01*
X147365990Y-84386589D01*
X147203475Y-84143368D01*
X146996632Y-83936525D01*
X146822240Y-83820000D01*
X146996632Y-83703475D01*
X147203475Y-83496632D01*
X147365990Y-83253411D01*
X147477932Y-82983158D01*
X147535000Y-82696260D01*
X147535000Y-82403740D01*
X147477932Y-82116842D01*
X147365990Y-81846589D01*
X147203475Y-81603368D01*
X146996632Y-81396525D01*
X146822240Y-81280000D01*
X146996632Y-81163475D01*
X147203475Y-80956632D01*
X147365990Y-80713411D01*
X147477932Y-80443158D01*
X147535000Y-80156260D01*
X147535000Y-79863740D01*
X149645000Y-79863740D01*
X149645000Y-80156260D01*
X149702068Y-80443158D01*
X149814010Y-80713411D01*
X149976525Y-80956632D01*
X150183368Y-81163475D01*
X150426589Y-81325990D01*
X150696842Y-81437932D01*
X150983740Y-81495000D01*
X151276260Y-81495000D01*
X151563158Y-81437932D01*
X151833411Y-81325990D01*
X152076632Y-81163475D01*
X152208487Y-81031620D01*
X152230498Y-81104180D01*
X152289463Y-81214494D01*
X152368815Y-81311185D01*
X152465506Y-81390537D01*
X152575820Y-81449502D01*
X152695518Y-81485812D01*
X152820000Y-81498072D01*
X153384250Y-81495000D01*
X153543000Y-81336250D01*
X153543000Y-80137000D01*
X153797000Y-80137000D01*
X153797000Y-81336250D01*
X153955750Y-81495000D01*
X154520000Y-81498072D01*
X154644482Y-81485812D01*
X154764180Y-81449502D01*
X154874494Y-81390537D01*
X154971185Y-81311185D01*
X155050537Y-81214494D01*
X155109502Y-81104180D01*
X155145812Y-80984482D01*
X155158072Y-80860000D01*
X155155000Y-80295750D01*
X154996250Y-80137000D01*
X153797000Y-80137000D01*
X153543000Y-80137000D01*
X153523000Y-80137000D01*
X153523000Y-79883000D01*
X153543000Y-79883000D01*
X153543000Y-78683750D01*
X153797000Y-78683750D01*
X153797000Y-79883000D01*
X154996250Y-79883000D01*
X155155000Y-79724250D01*
X155158072Y-79160000D01*
X155145812Y-79035518D01*
X155109502Y-78915820D01*
X155050537Y-78805506D01*
X154971185Y-78708815D01*
X154874494Y-78629463D01*
X154764180Y-78570498D01*
X154644482Y-78534188D01*
X154520000Y-78521928D01*
X153955750Y-78525000D01*
X153797000Y-78683750D01*
X153543000Y-78683750D01*
X153384250Y-78525000D01*
X152820000Y-78521928D01*
X152695518Y-78534188D01*
X152575820Y-78570498D01*
X152465506Y-78629463D01*
X152368815Y-78708815D01*
X152289463Y-78805506D01*
X152230498Y-78915820D01*
X152208487Y-78988380D01*
X152076632Y-78856525D01*
X151833411Y-78694010D01*
X151563158Y-78582068D01*
X151276260Y-78525000D01*
X150983740Y-78525000D01*
X150696842Y-78582068D01*
X150426589Y-78694010D01*
X150183368Y-78856525D01*
X149976525Y-79063368D01*
X149814010Y-79306589D01*
X149702068Y-79576842D01*
X149645000Y-79863740D01*
X147535000Y-79863740D01*
X147477932Y-79576842D01*
X147365990Y-79306589D01*
X147203475Y-79063368D01*
X146996632Y-78856525D01*
X146810000Y-78731822D01*
X146810000Y-77784801D01*
X155843592Y-68751210D01*
X156063740Y-68795000D01*
X156356260Y-68795000D01*
X156643158Y-68737932D01*
X156913411Y-68625990D01*
X157156632Y-68463475D01*
X157363475Y-68256632D01*
X157480000Y-68082240D01*
X157596525Y-68256632D01*
X157803368Y-68463475D01*
X157986927Y-68586125D01*
X157990000Y-68617322D01*
X157990000Y-68617332D01*
X158000997Y-68728985D01*
X158044454Y-68872246D01*
X158115026Y-69004276D01*
X158154871Y-69052826D01*
X158209999Y-69120001D01*
X158239003Y-69143804D01*
X159260001Y-70164803D01*
X159260000Y-80965198D01*
X158627653Y-81597546D01*
X158501620Y-81471513D01*
X158574180Y-81449502D01*
X158684494Y-81390537D01*
X158781185Y-81311185D01*
X158860537Y-81214494D01*
X158919502Y-81104180D01*
X158955812Y-80984482D01*
X158968072Y-80860000D01*
X158968072Y-79160000D01*
X158955812Y-79035518D01*
X158919502Y-78915820D01*
X158860537Y-78805506D01*
X158781185Y-78708815D01*
X158684494Y-78629463D01*
X158574180Y-78570498D01*
X158454482Y-78534188D01*
X158330000Y-78521928D01*
X156630000Y-78521928D01*
X156505518Y-78534188D01*
X156385820Y-78570498D01*
X156275506Y-78629463D01*
X156178815Y-78708815D01*
X156099463Y-78805506D01*
X156040498Y-78915820D01*
X156004188Y-79035518D01*
X155991928Y-79160000D01*
X155991928Y-80860000D01*
X156004188Y-80984482D01*
X156040498Y-81104180D01*
X156099463Y-81214494D01*
X156178815Y-81311185D01*
X156275506Y-81390537D01*
X156385820Y-81449502D01*
X156458380Y-81471513D01*
X156326525Y-81603368D01*
X156164010Y-81846589D01*
X156052068Y-82116842D01*
X155995000Y-82403740D01*
X155995000Y-82696260D01*
X156052068Y-82983158D01*
X156164010Y-83253411D01*
X156326525Y-83496632D01*
X156533368Y-83703475D01*
X156707760Y-83820000D01*
X156533368Y-83936525D01*
X156326525Y-84143368D01*
X156164010Y-84386589D01*
X156052068Y-84656842D01*
X155995000Y-84943740D01*
X155995000Y-85236260D01*
X156052068Y-85523158D01*
X156164010Y-85793411D01*
X156326525Y-86036632D01*
X156533368Y-86243475D01*
X156776589Y-86405990D01*
X157046842Y-86517932D01*
X157333740Y-86575000D01*
X157626260Y-86575000D01*
X157913158Y-86517932D01*
X158183411Y-86405990D01*
X158426632Y-86243475D01*
X158633475Y-86036632D01*
X158795990Y-85793411D01*
X158907932Y-85523158D01*
X158965000Y-85236260D01*
X158965000Y-84943740D01*
X158907932Y-84656842D01*
X158795990Y-84386589D01*
X158633475Y-84143368D01*
X158426632Y-83936525D01*
X158252240Y-83820000D01*
X158426632Y-83703475D01*
X158633475Y-83496632D01*
X158756125Y-83313073D01*
X158787322Y-83310000D01*
X158787333Y-83310000D01*
X158898986Y-83299003D01*
X159042247Y-83255546D01*
X159174276Y-83184974D01*
X159290001Y-83090001D01*
X159313804Y-83060997D01*
X160530000Y-81844802D01*
X160530000Y-86322678D01*
X160526324Y-86360000D01*
X160530000Y-86397322D01*
X160530000Y-86397332D01*
X160540997Y-86508985D01*
X160584454Y-86652246D01*
X160655026Y-86784276D01*
X160694871Y-86832826D01*
X160749999Y-86900001D01*
X160779003Y-86923804D01*
X161118791Y-87263592D01*
X161075000Y-87483740D01*
X161075000Y-87776260D01*
X161132068Y-88063158D01*
X161244010Y-88333411D01*
X161406525Y-88576632D01*
X161613368Y-88783475D01*
X161856589Y-88945990D01*
X162126842Y-89057932D01*
X162413740Y-89115000D01*
X162706260Y-89115000D01*
X162993158Y-89057932D01*
X163263411Y-88945990D01*
X163506632Y-88783475D01*
X163713475Y-88576632D01*
X163875990Y-88333411D01*
X163987932Y-88063158D01*
X164045000Y-87776260D01*
X164045000Y-87483740D01*
X163987932Y-87196842D01*
X163875990Y-86926589D01*
X163713475Y-86683368D01*
X163506632Y-86476525D01*
X163332240Y-86360000D01*
X163506632Y-86243475D01*
X163713475Y-86036632D01*
X163875990Y-85793411D01*
X163987932Y-85523158D01*
X164045000Y-85236260D01*
X164045000Y-84943740D01*
X163987932Y-84656842D01*
X163875990Y-84386589D01*
X163713475Y-84143368D01*
X163506632Y-83936525D01*
X163332240Y-83820000D01*
X163506632Y-83703475D01*
X163713475Y-83496632D01*
X163836125Y-83313073D01*
X163867322Y-83310000D01*
X163867333Y-83310000D01*
X163978986Y-83299003D01*
X164122247Y-83255546D01*
X164254276Y-83184974D01*
X164370001Y-83090001D01*
X164393804Y-83060997D01*
X165611004Y-81843798D01*
X165640001Y-81820001D01*
X165734974Y-81704276D01*
X165805546Y-81572247D01*
X165849003Y-81428986D01*
X165860000Y-81317333D01*
X165860000Y-81317324D01*
X165863676Y-81280001D01*
X165860000Y-81242678D01*
X165860000Y-68617322D01*
X165863676Y-68579999D01*
X165860000Y-68542676D01*
X165860000Y-68542667D01*
X165849003Y-68431014D01*
X165805546Y-68287753D01*
X165734974Y-68155724D01*
X165640001Y-68039999D01*
X165611003Y-68016201D01*
X165271210Y-67676408D01*
X165315000Y-67456260D01*
X165315000Y-67163740D01*
X165257932Y-66876842D01*
X165145990Y-66606589D01*
X164983475Y-66363368D01*
X164851620Y-66231513D01*
X164924180Y-66209502D01*
X165034494Y-66150537D01*
X165131185Y-66071185D01*
X165210537Y-65974494D01*
X165269502Y-65864180D01*
X165305812Y-65744482D01*
X165318072Y-65620000D01*
X165318072Y-63920000D01*
X165305812Y-63795518D01*
X165269502Y-63675820D01*
X165210537Y-63565506D01*
X165131185Y-63468815D01*
X165034494Y-63389463D01*
X164924180Y-63330498D01*
X164804482Y-63294188D01*
X164680000Y-63281928D01*
X162980000Y-63281928D01*
X162855518Y-63294188D01*
X162735820Y-63330498D01*
X162625506Y-63389463D01*
X162528815Y-63468815D01*
X162449463Y-63565506D01*
X162390498Y-63675820D01*
X162368487Y-63748380D01*
X162236632Y-63616525D01*
X161993411Y-63454010D01*
X161723158Y-63342068D01*
X161436260Y-63285000D01*
X161143740Y-63285000D01*
X160856842Y-63342068D01*
X160586589Y-63454010D01*
X160343368Y-63616525D01*
X160136525Y-63823368D01*
X160020000Y-63997760D01*
X159903475Y-63823368D01*
X159696632Y-63616525D01*
X159453411Y-63454010D01*
X159183158Y-63342068D01*
X158896260Y-63285000D01*
X158603740Y-63285000D01*
X158316842Y-63342068D01*
X158046589Y-63454010D01*
X157803368Y-63616525D01*
X157596525Y-63823368D01*
X157480000Y-63997760D01*
X157363475Y-63823368D01*
X157156632Y-63616525D01*
X156913411Y-63454010D01*
X156643158Y-63342068D01*
X156356260Y-63285000D01*
X156063740Y-63285000D01*
X155776842Y-63342068D01*
X155506589Y-63454010D01*
X155263368Y-63616525D01*
X155056525Y-63823368D01*
X154940000Y-63997760D01*
X154823475Y-63823368D01*
X154616632Y-63616525D01*
X154373411Y-63454010D01*
X154103158Y-63342068D01*
X153816260Y-63285000D01*
X153523740Y-63285000D01*
X153236842Y-63342068D01*
X152966589Y-63454010D01*
X152723368Y-63616525D01*
X152516525Y-63823368D01*
X152400000Y-63997760D01*
X152283475Y-63823368D01*
X152076632Y-63616525D01*
X151833411Y-63454010D01*
X151563158Y-63342068D01*
X151276260Y-63285000D01*
X150983740Y-63285000D01*
X150696842Y-63342068D01*
X150426589Y-63454010D01*
X150183368Y-63616525D01*
X149976525Y-63823368D01*
X149860000Y-63997760D01*
X149743475Y-63823368D01*
X149536632Y-63616525D01*
X149293411Y-63454010D01*
X149023158Y-63342068D01*
X148736260Y-63285000D01*
X148443740Y-63285000D01*
X148156842Y-63342068D01*
X147886589Y-63454010D01*
X147643368Y-63616525D01*
X147436525Y-63823368D01*
X147320000Y-63997760D01*
X147203475Y-63823368D01*
X146996632Y-63616525D01*
X146753411Y-63454010D01*
X146483158Y-63342068D01*
X146196260Y-63285000D01*
X145903740Y-63285000D01*
X145616842Y-63342068D01*
X145346589Y-63454010D01*
X145103368Y-63616525D01*
X144896525Y-63823368D01*
X144774805Y-64005534D01*
X144705178Y-63888645D01*
X144510269Y-63672412D01*
X144276920Y-63498359D01*
X144014099Y-63373175D01*
X143866890Y-63328524D01*
X143637000Y-63449845D01*
X143637000Y-64643000D01*
X143657000Y-64643000D01*
X143657000Y-64897000D01*
X143637000Y-64897000D01*
X143637000Y-67183000D01*
X143657000Y-67183000D01*
X143657000Y-67437000D01*
X143637000Y-67437000D01*
X143637000Y-68630155D01*
X143866890Y-68751476D01*
X144014099Y-68706825D01*
X144276920Y-68581641D01*
X144510269Y-68407588D01*
X144705178Y-68191355D01*
X144774805Y-68074466D01*
X144896525Y-68256632D01*
X145103368Y-68463475D01*
X145346589Y-68625990D01*
X145616842Y-68737932D01*
X145903740Y-68795000D01*
X146196260Y-68795000D01*
X146483158Y-68737932D01*
X146753411Y-68625990D01*
X146996632Y-68463475D01*
X147203475Y-68256632D01*
X147320000Y-68082240D01*
X147436525Y-68256632D01*
X147643368Y-68463475D01*
X147886589Y-68625990D01*
X148156842Y-68737932D01*
X148443740Y-68795000D01*
X148736260Y-68795000D01*
X149023158Y-68737932D01*
X149293411Y-68625990D01*
X149536632Y-68463475D01*
X149743475Y-68256632D01*
X149865195Y-68074466D01*
X149934822Y-68191355D01*
X150129731Y-68407588D01*
X150363080Y-68581641D01*
X150625901Y-68706825D01*
X150773110Y-68751476D01*
X151003000Y-68630155D01*
X151003000Y-67437000D01*
X150983000Y-67437000D01*
X150983000Y-67183000D01*
X151003000Y-67183000D01*
X151003000Y-67163000D01*
X151257000Y-67163000D01*
X151257000Y-67183000D01*
X151277000Y-67183000D01*
X151277000Y-67437000D01*
X151257000Y-67437000D01*
X151257000Y-68630155D01*
X151486890Y-68751476D01*
X151634099Y-68706825D01*
X151896920Y-68581641D01*
X152130269Y-68407588D01*
X152325178Y-68191355D01*
X152394805Y-68074466D01*
X152516525Y-68256632D01*
X152717546Y-68457653D01*
X144268998Y-76906201D01*
X144240000Y-76929999D01*
X144216202Y-76958997D01*
X144216201Y-76958998D01*
X144145026Y-77045724D01*
X144074454Y-77177754D01*
X144030998Y-77321015D01*
X144016324Y-77470000D01*
X144020001Y-77507332D01*
X144020001Y-78521928D01*
X142660000Y-78521928D01*
X142535518Y-78534188D01*
X142415820Y-78570498D01*
X142305506Y-78629463D01*
X142208815Y-78708815D01*
X142129463Y-78805506D01*
X142070498Y-78915820D01*
X142034188Y-79035518D01*
X142021928Y-79160000D01*
X133219981Y-79160000D01*
X133047130Y-78391507D01*
X132816933Y-76667553D01*
X132740000Y-74930000D01*
X132816933Y-73192447D01*
X133047130Y-71468493D01*
X133428790Y-69771630D01*
X133958925Y-68115138D01*
X134633386Y-66511982D01*
X135446896Y-64974708D01*
X135674449Y-64623740D01*
X139485000Y-64623740D01*
X139485000Y-64916260D01*
X139542068Y-65203158D01*
X139654010Y-65473411D01*
X139816525Y-65716632D01*
X140023368Y-65923475D01*
X140197760Y-66040000D01*
X140023368Y-66156525D01*
X139816525Y-66363368D01*
X139654010Y-66606589D01*
X139542068Y-66876842D01*
X139485000Y-67163740D01*
X139485000Y-67456260D01*
X139542068Y-67743158D01*
X139654010Y-68013411D01*
X139816525Y-68256632D01*
X140023368Y-68463475D01*
X140266589Y-68625990D01*
X140536842Y-68737932D01*
X140823740Y-68795000D01*
X141116260Y-68795000D01*
X141403158Y-68737932D01*
X141673411Y-68625990D01*
X141916632Y-68463475D01*
X142123475Y-68256632D01*
X142245195Y-68074466D01*
X142314822Y-68191355D01*
X142509731Y-68407588D01*
X142743080Y-68581641D01*
X143005901Y-68706825D01*
X143153110Y-68751476D01*
X143383000Y-68630155D01*
X143383000Y-67437000D01*
X143363000Y-67437000D01*
X143363000Y-67183000D01*
X143383000Y-67183000D01*
X143383000Y-64897000D01*
X143363000Y-64897000D01*
X143363000Y-64643000D01*
X143383000Y-64643000D01*
X143383000Y-63449845D01*
X143153110Y-63328524D01*
X143005901Y-63373175D01*
X142743080Y-63498359D01*
X142509731Y-63672412D01*
X142314822Y-63888645D01*
X142245195Y-64005534D01*
X142123475Y-63823368D01*
X141916632Y-63616525D01*
X141673411Y-63454010D01*
X141403158Y-63342068D01*
X141116260Y-63285000D01*
X140823740Y-63285000D01*
X140536842Y-63342068D01*
X140266589Y-63454010D01*
X140023368Y-63616525D01*
X139816525Y-63823368D01*
X139654010Y-64066589D01*
X139542068Y-64336842D01*
X139485000Y-64623740D01*
X135674449Y-64623740D01*
X136393086Y-63515347D01*
X137464552Y-62145322D01*
X138652908Y-60875354D01*
X139948854Y-59715383D01*
X141342247Y-58674487D01*
X142111009Y-58199872D01*
X150165000Y-58199872D01*
X150165000Y-58640128D01*
X150250890Y-59071925D01*
X150419369Y-59478669D01*
X150663962Y-59844729D01*
X150975271Y-60156038D01*
X151341331Y-60400631D01*
X151748075Y-60569110D01*
X152179872Y-60655000D01*
X152620128Y-60655000D01*
X153051925Y-60569110D01*
X153458669Y-60400631D01*
X153824729Y-60156038D01*
X154136038Y-59844729D01*
X154380631Y-59478669D01*
X154549110Y-59071925D01*
X154635000Y-58640128D01*
X154635000Y-58199872D01*
X154549110Y-57768075D01*
X154380631Y-57361331D01*
X154136038Y-56995271D01*
X153824729Y-56683962D01*
X153458669Y-56439369D01*
X153051925Y-56270890D01*
X152620128Y-56185000D01*
X152179872Y-56185000D01*
X151748075Y-56270890D01*
X151341331Y-56439369D01*
X150975271Y-56683962D01*
X150663962Y-56995271D01*
X150419369Y-57361331D01*
X150250890Y-57768075D01*
X150165000Y-58199872D01*
X142111009Y-58199872D01*
X142822182Y-57760812D01*
X144377076Y-56981510D01*
X145994761Y-56342679D01*
X147662575Y-55849319D01*
X149367466Y-55505291D01*
X151096091Y-55313287D01*
X152834920Y-55274811D01*
X154570346Y-55390164D01*
G04 #@! TA.AperFunction,Conductor*
D14*
G36*
X154570346Y-55390164D02*
G01*
X156288786Y-55658442D01*
X157976791Y-56077546D01*
X159621149Y-56644197D01*
X161208993Y-57353958D01*
X162727894Y-58201276D01*
X164165966Y-59179519D01*
X165511953Y-60281031D01*
X166755321Y-61497190D01*
X167886339Y-62818480D01*
X168896155Y-64234559D01*
X169776867Y-65734344D01*
X170521581Y-67306098D01*
X171124470Y-68937519D01*
X171580814Y-70615839D01*
X171887042Y-72327923D01*
X172040757Y-74060372D01*
X172040757Y-75799628D01*
X171887042Y-77532077D01*
X171580814Y-79244161D01*
X171124470Y-80922481D01*
X170521581Y-82553902D01*
X169776867Y-84125656D01*
X168896155Y-85625441D01*
X167886339Y-87041520D01*
X166755321Y-88362810D01*
X165511953Y-89578969D01*
X164165966Y-90680481D01*
X162727894Y-91658724D01*
X161208993Y-92506042D01*
X159621149Y-93215803D01*
X157976791Y-93782454D01*
X156288786Y-94201558D01*
X154570346Y-94469836D01*
X152834920Y-94585189D01*
X151096091Y-94546713D01*
X149367466Y-94354709D01*
X147662575Y-94010681D01*
X145994761Y-93517321D01*
X144377076Y-92878490D01*
X142822182Y-92099188D01*
X141397901Y-91219872D01*
X150165000Y-91219872D01*
X150165000Y-91660128D01*
X150250890Y-92091925D01*
X150419369Y-92498669D01*
X150663962Y-92864729D01*
X150975271Y-93176038D01*
X151341331Y-93420631D01*
X151748075Y-93589110D01*
X152179872Y-93675000D01*
X152620128Y-93675000D01*
X153051925Y-93589110D01*
X153458669Y-93420631D01*
X153824729Y-93176038D01*
X154136038Y-92864729D01*
X154380631Y-92498669D01*
X154549110Y-92091925D01*
X154635000Y-91660128D01*
X154635000Y-91219872D01*
X154549110Y-90788075D01*
X154380631Y-90381331D01*
X154136038Y-90015271D01*
X153824729Y-89703962D01*
X153458669Y-89459369D01*
X153051925Y-89290890D01*
X152620128Y-89205000D01*
X152179872Y-89205000D01*
X151748075Y-89290890D01*
X151341331Y-89459369D01*
X150975271Y-89703962D01*
X150663962Y-90015271D01*
X150419369Y-90381331D01*
X150250890Y-90788075D01*
X150165000Y-91219872D01*
X141397901Y-91219872D01*
X141342247Y-91185513D01*
X139948854Y-90144617D01*
X138652908Y-88984646D01*
X137464552Y-87714678D01*
X136393086Y-86344653D01*
X135446896Y-84885292D01*
X134633386Y-83348018D01*
X133958925Y-81744862D01*
X133428790Y-80088370D01*
X133219981Y-79160000D01*
X142021928Y-79160000D01*
X142021928Y-80860000D01*
X142034188Y-80984482D01*
X142070498Y-81104180D01*
X142129463Y-81214494D01*
X142208815Y-81311185D01*
X142305506Y-81390537D01*
X142415820Y-81449502D01*
X142488380Y-81471513D01*
X142356525Y-81603368D01*
X142194010Y-81846589D01*
X142082068Y-82116842D01*
X142025000Y-82403740D01*
X142025000Y-82696260D01*
X142082068Y-82983158D01*
X142194010Y-83253411D01*
X142356525Y-83496632D01*
X142563368Y-83703475D01*
X142737760Y-83820000D01*
X142563368Y-83936525D01*
X142356525Y-84143368D01*
X142194010Y-84386589D01*
X142082068Y-84656842D01*
X142025000Y-84943740D01*
X142025000Y-85236260D01*
X142082068Y-85523158D01*
X142194010Y-85793411D01*
X142356525Y-86036632D01*
X142563368Y-86243475D01*
X142737760Y-86360000D01*
X142563368Y-86476525D01*
X142356525Y-86683368D01*
X142194010Y-86926589D01*
X142082068Y-87196842D01*
X142025000Y-87483740D01*
X142025000Y-87776260D01*
X142082068Y-88063158D01*
X142194010Y-88333411D01*
X142356525Y-88576632D01*
X142563368Y-88783475D01*
X142806589Y-88945990D01*
X143076842Y-89057932D01*
X143363740Y-89115000D01*
X143656260Y-89115000D01*
X143943158Y-89057932D01*
X144213411Y-88945990D01*
X144456632Y-88783475D01*
X144663475Y-88576632D01*
X144780000Y-88402240D01*
X144896525Y-88576632D01*
X145103368Y-88783475D01*
X145346589Y-88945990D01*
X145616842Y-89057932D01*
X145903740Y-89115000D01*
X146196260Y-89115000D01*
X146483158Y-89057932D01*
X146753411Y-88945990D01*
X146996632Y-88783475D01*
X147203475Y-88576632D01*
X147365990Y-88333411D01*
X147477932Y-88063158D01*
X147535000Y-87776260D01*
X147535000Y-87483740D01*
X147477932Y-87196842D01*
X147365990Y-86926589D01*
X147203475Y-86683368D01*
X146996632Y-86476525D01*
X146822240Y-86360000D01*
X146996632Y-86243475D01*
X147203475Y-86036632D01*
X147365990Y-85793411D01*
X147477932Y-85523158D01*
X147535000Y-85236260D01*
X147535000Y-84943740D01*
X147477932Y-84656842D01*
X147365990Y-84386589D01*
X147203475Y-84143368D01*
X146996632Y-83936525D01*
X146822240Y-83820000D01*
X146996632Y-83703475D01*
X147203475Y-83496632D01*
X147365990Y-83253411D01*
X147477932Y-82983158D01*
X147535000Y-82696260D01*
X147535000Y-82403740D01*
X147477932Y-82116842D01*
X147365990Y-81846589D01*
X147203475Y-81603368D01*
X146996632Y-81396525D01*
X146822240Y-81280000D01*
X146996632Y-81163475D01*
X147203475Y-80956632D01*
X147365990Y-80713411D01*
X147477932Y-80443158D01*
X147535000Y-80156260D01*
X147535000Y-79863740D01*
X149645000Y-79863740D01*
X149645000Y-80156260D01*
X149702068Y-80443158D01*
X149814010Y-80713411D01*
X149976525Y-80956632D01*
X150183368Y-81163475D01*
X150426589Y-81325990D01*
X150696842Y-81437932D01*
X150983740Y-81495000D01*
X151276260Y-81495000D01*
X151563158Y-81437932D01*
X151833411Y-81325990D01*
X152076632Y-81163475D01*
X152208487Y-81031620D01*
X152230498Y-81104180D01*
X152289463Y-81214494D01*
X152368815Y-81311185D01*
X152465506Y-81390537D01*
X152575820Y-81449502D01*
X152695518Y-81485812D01*
X152820000Y-81498072D01*
X153384250Y-81495000D01*
X153543000Y-81336250D01*
X153543000Y-80137000D01*
X153797000Y-80137000D01*
X153797000Y-81336250D01*
X153955750Y-81495000D01*
X154520000Y-81498072D01*
X154644482Y-81485812D01*
X154764180Y-81449502D01*
X154874494Y-81390537D01*
X154971185Y-81311185D01*
X155050537Y-81214494D01*
X155109502Y-81104180D01*
X155145812Y-80984482D01*
X155158072Y-80860000D01*
X155155000Y-80295750D01*
X154996250Y-80137000D01*
X153797000Y-80137000D01*
X153543000Y-80137000D01*
X153523000Y-80137000D01*
X153523000Y-79883000D01*
X153543000Y-79883000D01*
X153543000Y-78683750D01*
X153797000Y-78683750D01*
X153797000Y-79883000D01*
X154996250Y-79883000D01*
X155155000Y-79724250D01*
X155158072Y-79160000D01*
X155145812Y-79035518D01*
X155109502Y-78915820D01*
X155050537Y-78805506D01*
X154971185Y-78708815D01*
X154874494Y-78629463D01*
X154764180Y-78570498D01*
X154644482Y-78534188D01*
X154520000Y-78521928D01*
X153955750Y-78525000D01*
X153797000Y-78683750D01*
X153543000Y-78683750D01*
X153384250Y-78525000D01*
X152820000Y-78521928D01*
X152695518Y-78534188D01*
X152575820Y-78570498D01*
X152465506Y-78629463D01*
X152368815Y-78708815D01*
X152289463Y-78805506D01*
X152230498Y-78915820D01*
X152208487Y-78988380D01*
X152076632Y-78856525D01*
X151833411Y-78694010D01*
X151563158Y-78582068D01*
X151276260Y-78525000D01*
X150983740Y-78525000D01*
X150696842Y-78582068D01*
X150426589Y-78694010D01*
X150183368Y-78856525D01*
X149976525Y-79063368D01*
X149814010Y-79306589D01*
X149702068Y-79576842D01*
X149645000Y-79863740D01*
X147535000Y-79863740D01*
X147477932Y-79576842D01*
X147365990Y-79306589D01*
X147203475Y-79063368D01*
X146996632Y-78856525D01*
X146810000Y-78731822D01*
X146810000Y-77784801D01*
X155843592Y-68751210D01*
X156063740Y-68795000D01*
X156356260Y-68795000D01*
X156643158Y-68737932D01*
X156913411Y-68625990D01*
X157156632Y-68463475D01*
X157363475Y-68256632D01*
X157480000Y-68082240D01*
X157596525Y-68256632D01*
X157803368Y-68463475D01*
X157986927Y-68586125D01*
X157990000Y-68617322D01*
X157990000Y-68617332D01*
X158000997Y-68728985D01*
X158044454Y-68872246D01*
X158115026Y-69004276D01*
X158154871Y-69052826D01*
X158209999Y-69120001D01*
X158239003Y-69143804D01*
X159260001Y-70164803D01*
X159260000Y-80965198D01*
X158627653Y-81597546D01*
X158501620Y-81471513D01*
X158574180Y-81449502D01*
X158684494Y-81390537D01*
X158781185Y-81311185D01*
X158860537Y-81214494D01*
X158919502Y-81104180D01*
X158955812Y-80984482D01*
X158968072Y-80860000D01*
X158968072Y-79160000D01*
X158955812Y-79035518D01*
X158919502Y-78915820D01*
X158860537Y-78805506D01*
X158781185Y-78708815D01*
X158684494Y-78629463D01*
X158574180Y-78570498D01*
X158454482Y-78534188D01*
X158330000Y-78521928D01*
X156630000Y-78521928D01*
X156505518Y-78534188D01*
X156385820Y-78570498D01*
X156275506Y-78629463D01*
X156178815Y-78708815D01*
X156099463Y-78805506D01*
X156040498Y-78915820D01*
X156004188Y-79035518D01*
X155991928Y-79160000D01*
X155991928Y-80860000D01*
X156004188Y-80984482D01*
X156040498Y-81104180D01*
X156099463Y-81214494D01*
X156178815Y-81311185D01*
X156275506Y-81390537D01*
X156385820Y-81449502D01*
X156458380Y-81471513D01*
X156326525Y-81603368D01*
X156164010Y-81846589D01*
X156052068Y-82116842D01*
X155995000Y-82403740D01*
X155995000Y-82696260D01*
X156052068Y-82983158D01*
X156164010Y-83253411D01*
X156326525Y-83496632D01*
X156533368Y-83703475D01*
X156707760Y-83820000D01*
X156533368Y-83936525D01*
X156326525Y-84143368D01*
X156164010Y-84386589D01*
X156052068Y-84656842D01*
X155995000Y-84943740D01*
X155995000Y-85236260D01*
X156052068Y-85523158D01*
X156164010Y-85793411D01*
X156326525Y-86036632D01*
X156533368Y-86243475D01*
X156776589Y-86405990D01*
X157046842Y-86517932D01*
X157333740Y-86575000D01*
X157626260Y-86575000D01*
X157913158Y-86517932D01*
X158183411Y-86405990D01*
X158426632Y-86243475D01*
X158633475Y-86036632D01*
X158795990Y-85793411D01*
X158907932Y-85523158D01*
X158965000Y-85236260D01*
X158965000Y-84943740D01*
X158907932Y-84656842D01*
X158795990Y-84386589D01*
X158633475Y-84143368D01*
X158426632Y-83936525D01*
X158252240Y-83820000D01*
X158426632Y-83703475D01*
X158633475Y-83496632D01*
X158756125Y-83313073D01*
X158787322Y-83310000D01*
X158787333Y-83310000D01*
X158898986Y-83299003D01*
X159042247Y-83255546D01*
X159174276Y-83184974D01*
X159290001Y-83090001D01*
X159313804Y-83060997D01*
X160530000Y-81844802D01*
X160530000Y-86322678D01*
X160526324Y-86360000D01*
X160530000Y-86397322D01*
X160530000Y-86397332D01*
X160540997Y-86508985D01*
X160584454Y-86652246D01*
X160655026Y-86784276D01*
X160694871Y-86832826D01*
X160749999Y-86900001D01*
X160779003Y-86923804D01*
X161118791Y-87263592D01*
X161075000Y-87483740D01*
X161075000Y-87776260D01*
X161132068Y-88063158D01*
X161244010Y-88333411D01*
X161406525Y-88576632D01*
X161613368Y-88783475D01*
X161856589Y-88945990D01*
X162126842Y-89057932D01*
X162413740Y-89115000D01*
X162706260Y-89115000D01*
X162993158Y-89057932D01*
X163263411Y-88945990D01*
X163506632Y-88783475D01*
X163713475Y-88576632D01*
X163875990Y-88333411D01*
X163987932Y-88063158D01*
X164045000Y-87776260D01*
X164045000Y-87483740D01*
X163987932Y-87196842D01*
X163875990Y-86926589D01*
X163713475Y-86683368D01*
X163506632Y-86476525D01*
X163332240Y-86360000D01*
X163506632Y-86243475D01*
X163713475Y-86036632D01*
X163875990Y-85793411D01*
X163987932Y-85523158D01*
X164045000Y-85236260D01*
X164045000Y-84943740D01*
X163987932Y-84656842D01*
X163875990Y-84386589D01*
X163713475Y-84143368D01*
X163506632Y-83936525D01*
X163332240Y-83820000D01*
X163506632Y-83703475D01*
X163713475Y-83496632D01*
X163836125Y-83313073D01*
X163867322Y-83310000D01*
X163867333Y-83310000D01*
X163978986Y-83299003D01*
X164122247Y-83255546D01*
X164254276Y-83184974D01*
X164370001Y-83090001D01*
X164393804Y-83060997D01*
X165611004Y-81843798D01*
X165640001Y-81820001D01*
X165734974Y-81704276D01*
X165805546Y-81572247D01*
X165849003Y-81428986D01*
X165860000Y-81317333D01*
X165860000Y-81317324D01*
X165863676Y-81280001D01*
X165860000Y-81242678D01*
X165860000Y-68617322D01*
X165863676Y-68579999D01*
X165860000Y-68542676D01*
X165860000Y-68542667D01*
X165849003Y-68431014D01*
X165805546Y-68287753D01*
X165734974Y-68155724D01*
X165640001Y-68039999D01*
X165611003Y-68016201D01*
X165271210Y-67676408D01*
X165315000Y-67456260D01*
X165315000Y-67163740D01*
X165257932Y-66876842D01*
X165145990Y-66606589D01*
X164983475Y-66363368D01*
X164851620Y-66231513D01*
X164924180Y-66209502D01*
X165034494Y-66150537D01*
X165131185Y-66071185D01*
X165210537Y-65974494D01*
X165269502Y-65864180D01*
X165305812Y-65744482D01*
X165318072Y-65620000D01*
X165318072Y-63920000D01*
X165305812Y-63795518D01*
X165269502Y-63675820D01*
X165210537Y-63565506D01*
X165131185Y-63468815D01*
X165034494Y-63389463D01*
X164924180Y-63330498D01*
X164804482Y-63294188D01*
X164680000Y-63281928D01*
X162980000Y-63281928D01*
X162855518Y-63294188D01*
X162735820Y-63330498D01*
X162625506Y-63389463D01*
X162528815Y-63468815D01*
X162449463Y-63565506D01*
X162390498Y-63675820D01*
X162368487Y-63748380D01*
X162236632Y-63616525D01*
X161993411Y-63454010D01*
X161723158Y-63342068D01*
X161436260Y-63285000D01*
X161143740Y-63285000D01*
X160856842Y-63342068D01*
X160586589Y-63454010D01*
X160343368Y-63616525D01*
X160136525Y-63823368D01*
X160020000Y-63997760D01*
X159903475Y-63823368D01*
X159696632Y-63616525D01*
X159453411Y-63454010D01*
X159183158Y-63342068D01*
X158896260Y-63285000D01*
X158603740Y-63285000D01*
X158316842Y-63342068D01*
X158046589Y-63454010D01*
X157803368Y-63616525D01*
X157596525Y-63823368D01*
X157480000Y-63997760D01*
X157363475Y-63823368D01*
X157156632Y-63616525D01*
X156913411Y-63454010D01*
X156643158Y-63342068D01*
X156356260Y-63285000D01*
X156063740Y-63285000D01*
X155776842Y-63342068D01*
X155506589Y-63454010D01*
X155263368Y-63616525D01*
X155056525Y-63823368D01*
X154940000Y-63997760D01*
X154823475Y-63823368D01*
X154616632Y-63616525D01*
X154373411Y-63454010D01*
X154103158Y-63342068D01*
X153816260Y-63285000D01*
X153523740Y-63285000D01*
X153236842Y-63342068D01*
X152966589Y-63454010D01*
X152723368Y-63616525D01*
X152516525Y-63823368D01*
X152400000Y-63997760D01*
X152283475Y-63823368D01*
X152076632Y-63616525D01*
X151833411Y-63454010D01*
X151563158Y-63342068D01*
X151276260Y-63285000D01*
X150983740Y-63285000D01*
X150696842Y-63342068D01*
X150426589Y-63454010D01*
X150183368Y-63616525D01*
X149976525Y-63823368D01*
X149860000Y-63997760D01*
X149743475Y-63823368D01*
X149536632Y-63616525D01*
X149293411Y-63454010D01*
X149023158Y-63342068D01*
X148736260Y-63285000D01*
X148443740Y-63285000D01*
X148156842Y-63342068D01*
X147886589Y-63454010D01*
X147643368Y-63616525D01*
X147436525Y-63823368D01*
X147320000Y-63997760D01*
X147203475Y-63823368D01*
X146996632Y-63616525D01*
X146753411Y-63454010D01*
X146483158Y-63342068D01*
X146196260Y-63285000D01*
X145903740Y-63285000D01*
X145616842Y-63342068D01*
X145346589Y-63454010D01*
X145103368Y-63616525D01*
X144896525Y-63823368D01*
X144774805Y-64005534D01*
X144705178Y-63888645D01*
X144510269Y-63672412D01*
X144276920Y-63498359D01*
X144014099Y-63373175D01*
X143866890Y-63328524D01*
X143637000Y-63449845D01*
X143637000Y-64643000D01*
X143657000Y-64643000D01*
X143657000Y-64897000D01*
X143637000Y-64897000D01*
X143637000Y-67183000D01*
X143657000Y-67183000D01*
X143657000Y-67437000D01*
X143637000Y-67437000D01*
X143637000Y-68630155D01*
X143866890Y-68751476D01*
X144014099Y-68706825D01*
X144276920Y-68581641D01*
X144510269Y-68407588D01*
X144705178Y-68191355D01*
X144774805Y-68074466D01*
X144896525Y-68256632D01*
X145103368Y-68463475D01*
X145346589Y-68625990D01*
X145616842Y-68737932D01*
X145903740Y-68795000D01*
X146196260Y-68795000D01*
X146483158Y-68737932D01*
X146753411Y-68625990D01*
X146996632Y-68463475D01*
X147203475Y-68256632D01*
X147320000Y-68082240D01*
X147436525Y-68256632D01*
X147643368Y-68463475D01*
X147886589Y-68625990D01*
X148156842Y-68737932D01*
X148443740Y-68795000D01*
X148736260Y-68795000D01*
X149023158Y-68737932D01*
X149293411Y-68625990D01*
X149536632Y-68463475D01*
X149743475Y-68256632D01*
X149865195Y-68074466D01*
X149934822Y-68191355D01*
X150129731Y-68407588D01*
X150363080Y-68581641D01*
X150625901Y-68706825D01*
X150773110Y-68751476D01*
X151003000Y-68630155D01*
X151003000Y-67437000D01*
X150983000Y-67437000D01*
X150983000Y-67183000D01*
X151003000Y-67183000D01*
X151003000Y-67163000D01*
X151257000Y-67163000D01*
X151257000Y-67183000D01*
X151277000Y-67183000D01*
X151277000Y-67437000D01*
X151257000Y-67437000D01*
X151257000Y-68630155D01*
X151486890Y-68751476D01*
X151634099Y-68706825D01*
X151896920Y-68581641D01*
X152130269Y-68407588D01*
X152325178Y-68191355D01*
X152394805Y-68074466D01*
X152516525Y-68256632D01*
X152717546Y-68457653D01*
X144268998Y-76906201D01*
X144240000Y-76929999D01*
X144216202Y-76958997D01*
X144216201Y-76958998D01*
X144145026Y-77045724D01*
X144074454Y-77177754D01*
X144030998Y-77321015D01*
X144016324Y-77470000D01*
X144020001Y-77507332D01*
X144020001Y-78521928D01*
X142660000Y-78521928D01*
X142535518Y-78534188D01*
X142415820Y-78570498D01*
X142305506Y-78629463D01*
X142208815Y-78708815D01*
X142129463Y-78805506D01*
X142070498Y-78915820D01*
X142034188Y-79035518D01*
X142021928Y-79160000D01*
X133219981Y-79160000D01*
X133047130Y-78391507D01*
X132816933Y-76667553D01*
X132740000Y-74930000D01*
X132816933Y-73192447D01*
X133047130Y-71468493D01*
X133428790Y-69771630D01*
X133958925Y-68115138D01*
X134633386Y-66511982D01*
X135446896Y-64974708D01*
X135674449Y-64623740D01*
X139485000Y-64623740D01*
X139485000Y-64916260D01*
X139542068Y-65203158D01*
X139654010Y-65473411D01*
X139816525Y-65716632D01*
X140023368Y-65923475D01*
X140197760Y-66040000D01*
X140023368Y-66156525D01*
X139816525Y-66363368D01*
X139654010Y-66606589D01*
X139542068Y-66876842D01*
X139485000Y-67163740D01*
X139485000Y-67456260D01*
X139542068Y-67743158D01*
X139654010Y-68013411D01*
X139816525Y-68256632D01*
X140023368Y-68463475D01*
X140266589Y-68625990D01*
X140536842Y-68737932D01*
X140823740Y-68795000D01*
X141116260Y-68795000D01*
X141403158Y-68737932D01*
X141673411Y-68625990D01*
X141916632Y-68463475D01*
X142123475Y-68256632D01*
X142245195Y-68074466D01*
X142314822Y-68191355D01*
X142509731Y-68407588D01*
X142743080Y-68581641D01*
X143005901Y-68706825D01*
X143153110Y-68751476D01*
X143383000Y-68630155D01*
X143383000Y-67437000D01*
X143363000Y-67437000D01*
X143363000Y-67183000D01*
X143383000Y-67183000D01*
X143383000Y-64897000D01*
X143363000Y-64897000D01*
X143363000Y-64643000D01*
X143383000Y-64643000D01*
X143383000Y-63449845D01*
X143153110Y-63328524D01*
X143005901Y-63373175D01*
X142743080Y-63498359D01*
X142509731Y-63672412D01*
X142314822Y-63888645D01*
X142245195Y-64005534D01*
X142123475Y-63823368D01*
X141916632Y-63616525D01*
X141673411Y-63454010D01*
X141403158Y-63342068D01*
X141116260Y-63285000D01*
X140823740Y-63285000D01*
X140536842Y-63342068D01*
X140266589Y-63454010D01*
X140023368Y-63616525D01*
X139816525Y-63823368D01*
X139654010Y-64066589D01*
X139542068Y-64336842D01*
X139485000Y-64623740D01*
X135674449Y-64623740D01*
X136393086Y-63515347D01*
X137464552Y-62145322D01*
X138652908Y-60875354D01*
X139948854Y-59715383D01*
X141342247Y-58674487D01*
X142111009Y-58199872D01*
X150165000Y-58199872D01*
X150165000Y-58640128D01*
X150250890Y-59071925D01*
X150419369Y-59478669D01*
X150663962Y-59844729D01*
X150975271Y-60156038D01*
X151341331Y-60400631D01*
X151748075Y-60569110D01*
X152179872Y-60655000D01*
X152620128Y-60655000D01*
X153051925Y-60569110D01*
X153458669Y-60400631D01*
X153824729Y-60156038D01*
X154136038Y-59844729D01*
X154380631Y-59478669D01*
X154549110Y-59071925D01*
X154635000Y-58640128D01*
X154635000Y-58199872D01*
X154549110Y-57768075D01*
X154380631Y-57361331D01*
X154136038Y-56995271D01*
X153824729Y-56683962D01*
X153458669Y-56439369D01*
X153051925Y-56270890D01*
X152620128Y-56185000D01*
X152179872Y-56185000D01*
X151748075Y-56270890D01*
X151341331Y-56439369D01*
X150975271Y-56683962D01*
X150663962Y-56995271D01*
X150419369Y-57361331D01*
X150250890Y-57768075D01*
X150165000Y-58199872D01*
X142111009Y-58199872D01*
X142822182Y-57760812D01*
X144377076Y-56981510D01*
X145994761Y-56342679D01*
X147662575Y-55849319D01*
X149367466Y-55505291D01*
X151096091Y-55313287D01*
X152834920Y-55274811D01*
X154570346Y-55390164D01*
G37*
G04 #@! TD.AperFunction*
M02*
