G04 #@! TF.GenerationSoftware,KiCad,Pcbnew,(5.1.10)-1*
G04 #@! TF.CreationDate,2022-05-03T00:12:14-07:00*
G04 #@! TF.ProjectId,DUBloon,4455426c-6f6f-46e2-9e6b-696361645f70,rev?*
G04 #@! TF.SameCoordinates,Original*
G04 #@! TF.FileFunction,Legend,Top*
G04 #@! TF.FilePolarity,Positive*
%FSLAX46Y46*%
G04 Gerber Fmt 4.6, Leading zero omitted, Abs format (unit mm)*
G04 Created by KiCad (PCBNEW (5.1.10)-1) date 2022-05-03 00:12:14*
%MOMM*%
%LPD*%
G01*
G04 APERTURE LIST*
%ADD10C,0.150000*%
%ADD11C,0.250000*%
%ADD12C,0.120000*%
%ADD13R,1.700000X1.700000*%
%ADD14O,1.700000X1.700000*%
%ADD15R,2.000000X3.000000*%
%ADD16C,3.200000*%
G04 APERTURE END LIST*
D10*
X157721428Y-59645714D02*
X158292857Y-62045714D01*
X158750000Y-60331428D01*
X159207142Y-62045714D01*
X159778571Y-59645714D01*
X157607142Y-61474285D02*
X159892857Y-61474285D01*
X157607142Y-60788571D02*
X159892857Y-60788571D01*
X144526190Y-60055238D02*
X144621428Y-59960000D01*
X144811904Y-59864761D01*
X145288095Y-59864761D01*
X145478571Y-59960000D01*
X145573809Y-60055238D01*
X145669047Y-60245714D01*
X145669047Y-60436190D01*
X145573809Y-60721904D01*
X144430952Y-61864761D01*
X145669047Y-61864761D01*
X146907142Y-59864761D02*
X147097619Y-59864761D01*
X147288095Y-59960000D01*
X147383333Y-60055238D01*
X147478571Y-60245714D01*
X147573809Y-60626666D01*
X147573809Y-61102857D01*
X147478571Y-61483809D01*
X147383333Y-61674285D01*
X147288095Y-61769523D01*
X147097619Y-61864761D01*
X146907142Y-61864761D01*
X146716666Y-61769523D01*
X146621428Y-61674285D01*
X146526190Y-61483809D01*
X146430952Y-61102857D01*
X146430952Y-60626666D01*
X146526190Y-60245714D01*
X146621428Y-60055238D01*
X146716666Y-59960000D01*
X146907142Y-59864761D01*
D11*
X134542857Y-77922380D02*
X134542857Y-76922380D01*
X134542857Y-77874761D02*
X134400000Y-77922380D01*
X134114285Y-77922380D01*
X133971428Y-77874761D01*
X133899999Y-77827142D01*
X133828571Y-77731904D01*
X133828571Y-77446190D01*
X133899999Y-77350952D01*
X133971428Y-77303333D01*
X134114285Y-77255714D01*
X134400000Y-77255714D01*
X134542857Y-77303333D01*
X135900000Y-77255714D02*
X135900000Y-77922380D01*
X135257142Y-77255714D02*
X135257142Y-77779523D01*
X135328571Y-77874761D01*
X135471428Y-77922380D01*
X135685714Y-77922380D01*
X135828571Y-77874761D01*
X135900000Y-77827142D01*
X136614285Y-77922380D02*
X136614285Y-76922380D01*
X136614285Y-77303333D02*
X136757142Y-77255714D01*
X137042857Y-77255714D01*
X137185714Y-77303333D01*
X137257142Y-77350952D01*
X137328571Y-77446190D01*
X137328571Y-77731904D01*
X137257142Y-77827142D01*
X137185714Y-77874761D01*
X137042857Y-77922380D01*
X136757142Y-77922380D01*
X136614285Y-77874761D01*
X138185714Y-77922380D02*
X138042857Y-77874761D01*
X137971428Y-77779523D01*
X137971428Y-76922380D01*
X138971428Y-77922380D02*
X138828571Y-77874761D01*
X138757142Y-77827142D01*
X138685714Y-77731904D01*
X138685714Y-77446190D01*
X138757142Y-77350952D01*
X138828571Y-77303333D01*
X138971428Y-77255714D01*
X139185714Y-77255714D01*
X139328571Y-77303333D01*
X139400000Y-77350952D01*
X139471428Y-77446190D01*
X139471428Y-77731904D01*
X139400000Y-77827142D01*
X139328571Y-77874761D01*
X139185714Y-77922380D01*
X138971428Y-77922380D01*
X140328571Y-77922380D02*
X140185714Y-77874761D01*
X140114285Y-77827142D01*
X140042857Y-77731904D01*
X140042857Y-77446190D01*
X140114285Y-77350952D01*
X140185714Y-77303333D01*
X140328571Y-77255714D01*
X140542857Y-77255714D01*
X140685714Y-77303333D01*
X140757142Y-77350952D01*
X140828571Y-77446190D01*
X140828571Y-77731904D01*
X140757142Y-77827142D01*
X140685714Y-77874761D01*
X140542857Y-77922380D01*
X140328571Y-77922380D01*
X141471428Y-77255714D02*
X141471428Y-77922380D01*
X141471428Y-77350952D02*
X141542857Y-77303333D01*
X141685714Y-77255714D01*
X141900000Y-77255714D01*
X142042857Y-77303333D01*
X142114285Y-77398571D01*
X142114285Y-77922380D01*
X143828571Y-77255714D02*
X144185714Y-77922380D01*
X144542857Y-77255714D01*
X145900000Y-77922380D02*
X145042857Y-77922380D01*
X145471428Y-77922380D02*
X145471428Y-76922380D01*
X145328571Y-77065238D01*
X145185714Y-77160476D01*
X145042857Y-77208095D01*
X146542857Y-77827142D02*
X146614285Y-77874761D01*
X146542857Y-77922380D01*
X146471428Y-77874761D01*
X146542857Y-77827142D01*
X146542857Y-77922380D01*
X147542857Y-76922380D02*
X147685714Y-76922380D01*
X147828571Y-76970000D01*
X147900000Y-77017619D01*
X147971428Y-77112857D01*
X148042857Y-77303333D01*
X148042857Y-77541428D01*
X147971428Y-77731904D01*
X147900000Y-77827142D01*
X147828571Y-77874761D01*
X147685714Y-77922380D01*
X147542857Y-77922380D01*
X147400000Y-77874761D01*
X147328571Y-77827142D01*
X147257142Y-77731904D01*
X147185714Y-77541428D01*
X147185714Y-77303333D01*
X147257142Y-77112857D01*
X147328571Y-77017619D01*
X147400000Y-76970000D01*
X147542857Y-76922380D01*
X150185714Y-78255714D02*
X150185714Y-76827142D01*
X152328571Y-77017619D02*
X152400000Y-76970000D01*
X152542857Y-76922380D01*
X152900000Y-76922380D01*
X153042857Y-76970000D01*
X153114285Y-77017619D01*
X153185714Y-77112857D01*
X153185714Y-77208095D01*
X153114285Y-77350952D01*
X152257142Y-77922380D01*
X153185714Y-77922380D01*
X154114285Y-76922380D02*
X154257142Y-76922380D01*
X154400000Y-76970000D01*
X154471428Y-77017619D01*
X154542857Y-77112857D01*
X154614285Y-77303333D01*
X154614285Y-77541428D01*
X154542857Y-77731904D01*
X154471428Y-77827142D01*
X154400000Y-77874761D01*
X154257142Y-77922380D01*
X154114285Y-77922380D01*
X153971428Y-77874761D01*
X153900000Y-77827142D01*
X153828571Y-77731904D01*
X153757142Y-77541428D01*
X153757142Y-77303333D01*
X153828571Y-77112857D01*
X153900000Y-77017619D01*
X153971428Y-76970000D01*
X154114285Y-76922380D01*
X155257142Y-77541428D02*
X156400000Y-77541428D01*
X157114285Y-77255714D02*
X157114285Y-78255714D01*
X157114285Y-77303333D02*
X157257142Y-77255714D01*
X157542857Y-77255714D01*
X157685714Y-77303333D01*
X157757142Y-77350952D01*
X157828571Y-77446190D01*
X157828571Y-77731904D01*
X157757142Y-77827142D01*
X157685714Y-77874761D01*
X157542857Y-77922380D01*
X157257142Y-77922380D01*
X157114285Y-77874761D01*
X158471428Y-77922380D02*
X158471428Y-77255714D01*
X158471428Y-76922380D02*
X158400000Y-76970000D01*
X158471428Y-77017619D01*
X158542857Y-76970000D01*
X158471428Y-76922380D01*
X158471428Y-77017619D01*
X159185714Y-77255714D02*
X159185714Y-77922380D01*
X159185714Y-77350952D02*
X159257142Y-77303333D01*
X159400000Y-77255714D01*
X159614285Y-77255714D01*
X159757142Y-77303333D01*
X159828571Y-77398571D01*
X159828571Y-77922380D01*
X161685714Y-77922380D02*
X161685714Y-77255714D01*
X161685714Y-76922380D02*
X161614285Y-76970000D01*
X161685714Y-77017619D01*
X161757142Y-76970000D01*
X161685714Y-76922380D01*
X161685714Y-77017619D01*
X162400000Y-77255714D02*
X162400000Y-77922380D01*
X162400000Y-77350952D02*
X162471428Y-77303333D01*
X162614285Y-77255714D01*
X162828571Y-77255714D01*
X162971428Y-77303333D01*
X163042857Y-77398571D01*
X163042857Y-77922380D01*
X163542857Y-77255714D02*
X164114285Y-77255714D01*
X163757142Y-76922380D02*
X163757142Y-77779523D01*
X163828571Y-77874761D01*
X163971428Y-77922380D01*
X164114285Y-77922380D01*
X165185714Y-77874761D02*
X165042857Y-77922380D01*
X164757142Y-77922380D01*
X164614285Y-77874761D01*
X164542857Y-77779523D01*
X164542857Y-77398571D01*
X164614285Y-77303333D01*
X164757142Y-77255714D01*
X165042857Y-77255714D01*
X165185714Y-77303333D01*
X165257142Y-77398571D01*
X165257142Y-77493809D01*
X164542857Y-77589047D01*
X165900000Y-77922380D02*
X165900000Y-77255714D01*
X165900000Y-77446190D02*
X165971428Y-77350952D01*
X166042857Y-77303333D01*
X166185714Y-77255714D01*
X166328571Y-77255714D01*
X166614285Y-77255714D02*
X167185714Y-77255714D01*
X166828571Y-77922380D02*
X166828571Y-77065238D01*
X166900000Y-76970000D01*
X167042857Y-76922380D01*
X167185714Y-76922380D01*
X168328571Y-77922380D02*
X168328571Y-77398571D01*
X168257142Y-77303333D01*
X168114285Y-77255714D01*
X167828571Y-77255714D01*
X167685714Y-77303333D01*
X168328571Y-77874761D02*
X168185714Y-77922380D01*
X167828571Y-77922380D01*
X167685714Y-77874761D01*
X167614285Y-77779523D01*
X167614285Y-77684285D01*
X167685714Y-77589047D01*
X167828571Y-77541428D01*
X168185714Y-77541428D01*
X168328571Y-77493809D01*
X169685714Y-77874761D02*
X169542857Y-77922380D01*
X169257142Y-77922380D01*
X169114285Y-77874761D01*
X169042857Y-77827142D01*
X168971428Y-77731904D01*
X168971428Y-77446190D01*
X169042857Y-77350952D01*
X169114285Y-77303333D01*
X169257142Y-77255714D01*
X169542857Y-77255714D01*
X169685714Y-77303333D01*
X170900000Y-77874761D02*
X170757142Y-77922380D01*
X170471428Y-77922380D01*
X170328571Y-77874761D01*
X170257142Y-77779523D01*
X170257142Y-77398571D01*
X170328571Y-77303333D01*
X170471428Y-77255714D01*
X170757142Y-77255714D01*
X170900000Y-77303333D01*
X170971428Y-77398571D01*
X170971428Y-77493809D01*
X170257142Y-77589047D01*
D10*
X159329523Y-85494761D02*
X159472380Y-85542380D01*
X159710476Y-85542380D01*
X159805714Y-85494761D01*
X159853333Y-85447142D01*
X159900952Y-85351904D01*
X159900952Y-85256666D01*
X159853333Y-85161428D01*
X159805714Y-85113809D01*
X159710476Y-85066190D01*
X159520000Y-85018571D01*
X159424761Y-84970952D01*
X159377142Y-84923333D01*
X159329523Y-84828095D01*
X159329523Y-84732857D01*
X159377142Y-84637619D01*
X159424761Y-84590000D01*
X159520000Y-84542380D01*
X159758095Y-84542380D01*
X159900952Y-84590000D01*
X160805714Y-85542380D02*
X160329523Y-85542380D01*
X160329523Y-84542380D01*
X159734285Y-83002380D02*
X159734285Y-82002380D01*
X159734285Y-82478571D02*
X160305714Y-82478571D01*
X160305714Y-83002380D02*
X160305714Y-82002380D01*
X159353333Y-80414761D02*
X159496190Y-80462380D01*
X159734285Y-80462380D01*
X159829523Y-80414761D01*
X159877142Y-80367142D01*
X159924761Y-80271904D01*
X159924761Y-80176666D01*
X159877142Y-80081428D01*
X159829523Y-80033809D01*
X159734285Y-79986190D01*
X159543809Y-79938571D01*
X159448571Y-79890952D01*
X159400952Y-79843333D01*
X159353333Y-79748095D01*
X159353333Y-79652857D01*
X159400952Y-79557619D01*
X159448571Y-79510000D01*
X159543809Y-79462380D01*
X159781904Y-79462380D01*
X159924761Y-79510000D01*
X160210476Y-79462380D02*
X160781904Y-79462380D01*
X160496190Y-80462380D02*
X160496190Y-79462380D01*
X140660476Y-87415714D02*
X140660476Y-88082380D01*
X140422380Y-87034761D02*
X140184285Y-87749047D01*
X140803333Y-87749047D01*
X141184285Y-88082380D02*
X141184285Y-87082380D01*
X141755714Y-88082380D02*
X141327142Y-87510952D01*
X141755714Y-87082380D02*
X141184285Y-87653809D01*
X140184285Y-82097619D02*
X140231904Y-82050000D01*
X140327142Y-82002380D01*
X140565238Y-82002380D01*
X140660476Y-82050000D01*
X140708095Y-82097619D01*
X140755714Y-82192857D01*
X140755714Y-82288095D01*
X140708095Y-82430952D01*
X140136666Y-83002380D01*
X140755714Y-83002380D01*
X141184285Y-83002380D02*
X141184285Y-82002380D01*
X141755714Y-83002380D02*
X141327142Y-82430952D01*
X141755714Y-82002380D02*
X141184285Y-82573809D01*
X140136666Y-84542380D02*
X140755714Y-84542380D01*
X140422380Y-84923333D01*
X140565238Y-84923333D01*
X140660476Y-84970952D01*
X140708095Y-85018571D01*
X140755714Y-85113809D01*
X140755714Y-85351904D01*
X140708095Y-85447142D01*
X140660476Y-85494761D01*
X140565238Y-85542380D01*
X140279523Y-85542380D01*
X140184285Y-85494761D01*
X140136666Y-85447142D01*
X141184285Y-85542380D02*
X141184285Y-84542380D01*
X141755714Y-85542380D02*
X141327142Y-84970952D01*
X141755714Y-84542380D02*
X141184285Y-85113809D01*
X140755714Y-80462380D02*
X140184285Y-80462380D01*
X140470000Y-80462380D02*
X140470000Y-79462380D01*
X140374761Y-79605238D01*
X140279523Y-79700476D01*
X140184285Y-79748095D01*
X141184285Y-80462380D02*
X141184285Y-79462380D01*
X141755714Y-80462380D02*
X141327142Y-79890952D01*
X141755714Y-79462380D02*
X141184285Y-80033809D01*
X148280476Y-87415714D02*
X148280476Y-88082380D01*
X148042380Y-87034761D02*
X147804285Y-87749047D01*
X148423333Y-87749047D01*
X148804285Y-88082380D02*
X148804285Y-87082380D01*
X149185238Y-87082380D01*
X149280476Y-87130000D01*
X149328095Y-87177619D01*
X149375714Y-87272857D01*
X149375714Y-87415714D01*
X149328095Y-87510952D01*
X149280476Y-87558571D01*
X149185238Y-87606190D01*
X148804285Y-87606190D01*
X147756666Y-84542380D02*
X148375714Y-84542380D01*
X148042380Y-84923333D01*
X148185238Y-84923333D01*
X148280476Y-84970952D01*
X148328095Y-85018571D01*
X148375714Y-85113809D01*
X148375714Y-85351904D01*
X148328095Y-85447142D01*
X148280476Y-85494761D01*
X148185238Y-85542380D01*
X147899523Y-85542380D01*
X147804285Y-85494761D01*
X147756666Y-85447142D01*
X148804285Y-85542380D02*
X148804285Y-84542380D01*
X149185238Y-84542380D01*
X149280476Y-84590000D01*
X149328095Y-84637619D01*
X149375714Y-84732857D01*
X149375714Y-84875714D01*
X149328095Y-84970952D01*
X149280476Y-85018571D01*
X149185238Y-85066190D01*
X148804285Y-85066190D01*
X147804285Y-82097619D02*
X147851904Y-82050000D01*
X147947142Y-82002380D01*
X148185238Y-82002380D01*
X148280476Y-82050000D01*
X148328095Y-82097619D01*
X148375714Y-82192857D01*
X148375714Y-82288095D01*
X148328095Y-82430952D01*
X147756666Y-83002380D01*
X148375714Y-83002380D01*
X148804285Y-83002380D02*
X148804285Y-82002380D01*
X149185238Y-82002380D01*
X149280476Y-82050000D01*
X149328095Y-82097619D01*
X149375714Y-82192857D01*
X149375714Y-82335714D01*
X149328095Y-82430952D01*
X149280476Y-82478571D01*
X149185238Y-82526190D01*
X148804285Y-82526190D01*
X148375714Y-80462380D02*
X147804285Y-80462380D01*
X148090000Y-80462380D02*
X148090000Y-79462380D01*
X147994761Y-79605238D01*
X147899523Y-79700476D01*
X147804285Y-79748095D01*
X148804285Y-80462380D02*
X148804285Y-79462380D01*
X149185238Y-79462380D01*
X149280476Y-79510000D01*
X149328095Y-79557619D01*
X149375714Y-79652857D01*
X149375714Y-79795714D01*
X149328095Y-79890952D01*
X149280476Y-79938571D01*
X149185238Y-79986190D01*
X148804285Y-79986190D01*
X165409523Y-88082380D02*
X164933333Y-88082380D01*
X164933333Y-87082380D01*
X165036666Y-85542380D02*
X164703333Y-85066190D01*
X164465238Y-85542380D02*
X164465238Y-84542380D01*
X164846190Y-84542380D01*
X164941428Y-84590000D01*
X164989047Y-84637619D01*
X165036666Y-84732857D01*
X165036666Y-84875714D01*
X164989047Y-84970952D01*
X164941428Y-85018571D01*
X164846190Y-85066190D01*
X164465238Y-85066190D01*
X165465238Y-85542380D02*
X165465238Y-84542380D01*
X166465238Y-84590000D02*
X166370000Y-84542380D01*
X166227142Y-84542380D01*
X166084285Y-84590000D01*
X165989047Y-84685238D01*
X165941428Y-84780476D01*
X165893809Y-84970952D01*
X165893809Y-85113809D01*
X165941428Y-85304285D01*
X165989047Y-85399523D01*
X166084285Y-85494761D01*
X166227142Y-85542380D01*
X166322380Y-85542380D01*
X166465238Y-85494761D01*
X166512857Y-85447142D01*
X166512857Y-85113809D01*
X166322380Y-85113809D01*
X166941428Y-85542380D02*
X166941428Y-84542380D01*
X166941428Y-85018571D02*
X167512857Y-85018571D01*
X167512857Y-85542380D02*
X167512857Y-84542380D01*
X167846190Y-84542380D02*
X168417619Y-84542380D01*
X168131904Y-85542380D02*
X168131904Y-84542380D01*
X164489047Y-83002380D02*
X164489047Y-82002380D01*
X164727142Y-82002380D01*
X164870000Y-82050000D01*
X164965238Y-82145238D01*
X165012857Y-82240476D01*
X165060476Y-82430952D01*
X165060476Y-82573809D01*
X165012857Y-82764285D01*
X164965238Y-82859523D01*
X164870000Y-82954761D01*
X164727142Y-83002380D01*
X164489047Y-83002380D01*
X165679523Y-82002380D02*
X165870000Y-82002380D01*
X165965238Y-82050000D01*
X166060476Y-82145238D01*
X166108095Y-82335714D01*
X166108095Y-82669047D01*
X166060476Y-82859523D01*
X165965238Y-82954761D01*
X165870000Y-83002380D01*
X165679523Y-83002380D01*
X165584285Y-82954761D01*
X165489047Y-82859523D01*
X165441428Y-82669047D01*
X165441428Y-82335714D01*
X165489047Y-82145238D01*
X165584285Y-82050000D01*
X165679523Y-82002380D01*
X166441428Y-82002380D02*
X166679523Y-83002380D01*
X166870000Y-82288095D01*
X167060476Y-83002380D01*
X167298571Y-82002380D01*
X167679523Y-83002380D02*
X167679523Y-82002380D01*
X168250952Y-83002380D01*
X168250952Y-82002380D01*
X164314285Y-79462380D02*
X164314285Y-80271904D01*
X164361904Y-80367142D01*
X164409523Y-80414761D01*
X164504761Y-80462380D01*
X164695238Y-80462380D01*
X164790476Y-80414761D01*
X164838095Y-80367142D01*
X164885714Y-80271904D01*
X164885714Y-79462380D01*
X165361904Y-80462380D02*
X165361904Y-79462380D01*
X165742857Y-79462380D01*
X165838095Y-79510000D01*
X165885714Y-79557619D01*
X165933333Y-79652857D01*
X165933333Y-79795714D01*
X165885714Y-79890952D01*
X165838095Y-79938571D01*
X165742857Y-79986190D01*
X165361904Y-79986190D01*
X134405714Y-71429523D02*
X135072380Y-71429523D01*
X134024761Y-71667619D02*
X134739047Y-71905714D01*
X134739047Y-71286666D01*
X135072380Y-70905714D02*
X134072380Y-70905714D01*
X135072380Y-70334285D02*
X134500952Y-70762857D01*
X134072380Y-70334285D02*
X134643809Y-70905714D01*
X136612380Y-71953333D02*
X136612380Y-71334285D01*
X136993333Y-71667619D01*
X136993333Y-71524761D01*
X137040952Y-71429523D01*
X137088571Y-71381904D01*
X137183809Y-71334285D01*
X137421904Y-71334285D01*
X137517142Y-71381904D01*
X137564761Y-71429523D01*
X137612380Y-71524761D01*
X137612380Y-71810476D01*
X137564761Y-71905714D01*
X137517142Y-71953333D01*
X137612380Y-70905714D02*
X136612380Y-70905714D01*
X137612380Y-70334285D02*
X137040952Y-70762857D01*
X136612380Y-70334285D02*
X137183809Y-70905714D01*
X139247619Y-71905714D02*
X139200000Y-71858095D01*
X139152380Y-71762857D01*
X139152380Y-71524761D01*
X139200000Y-71429523D01*
X139247619Y-71381904D01*
X139342857Y-71334285D01*
X139438095Y-71334285D01*
X139580952Y-71381904D01*
X140152380Y-71953333D01*
X140152380Y-71334285D01*
X140152380Y-70905714D02*
X139152380Y-70905714D01*
X140152380Y-70334285D02*
X139580952Y-70762857D01*
X139152380Y-70334285D02*
X139723809Y-70905714D01*
X142692380Y-71334285D02*
X142692380Y-71905714D01*
X142692380Y-71620000D02*
X141692380Y-71620000D01*
X141835238Y-71715238D01*
X141930476Y-71810476D01*
X141978095Y-71905714D01*
X142692380Y-70905714D02*
X141692380Y-70905714D01*
X142692380Y-70334285D02*
X142120952Y-70762857D01*
X141692380Y-70334285D02*
X142263809Y-70905714D01*
X144565714Y-71429523D02*
X145232380Y-71429523D01*
X144184761Y-71667619D02*
X144899047Y-71905714D01*
X144899047Y-71286666D01*
X145232380Y-70905714D02*
X144232380Y-70905714D01*
X144232380Y-70524761D01*
X144280000Y-70429523D01*
X144327619Y-70381904D01*
X144422857Y-70334285D01*
X144565714Y-70334285D01*
X144660952Y-70381904D01*
X144708571Y-70429523D01*
X144756190Y-70524761D01*
X144756190Y-70905714D01*
X146772380Y-71953333D02*
X146772380Y-71334285D01*
X147153333Y-71667619D01*
X147153333Y-71524761D01*
X147200952Y-71429523D01*
X147248571Y-71381904D01*
X147343809Y-71334285D01*
X147581904Y-71334285D01*
X147677142Y-71381904D01*
X147724761Y-71429523D01*
X147772380Y-71524761D01*
X147772380Y-71810476D01*
X147724761Y-71905714D01*
X147677142Y-71953333D01*
X147772380Y-70905714D02*
X146772380Y-70905714D01*
X146772380Y-70524761D01*
X146820000Y-70429523D01*
X146867619Y-70381904D01*
X146962857Y-70334285D01*
X147105714Y-70334285D01*
X147200952Y-70381904D01*
X147248571Y-70429523D01*
X147296190Y-70524761D01*
X147296190Y-70905714D01*
X149407619Y-71905714D02*
X149360000Y-71858095D01*
X149312380Y-71762857D01*
X149312380Y-71524761D01*
X149360000Y-71429523D01*
X149407619Y-71381904D01*
X149502857Y-71334285D01*
X149598095Y-71334285D01*
X149740952Y-71381904D01*
X150312380Y-71953333D01*
X150312380Y-71334285D01*
X150312380Y-70905714D02*
X149312380Y-70905714D01*
X149312380Y-70524761D01*
X149360000Y-70429523D01*
X149407619Y-70381904D01*
X149502857Y-70334285D01*
X149645714Y-70334285D01*
X149740952Y-70381904D01*
X149788571Y-70429523D01*
X149836190Y-70524761D01*
X149836190Y-70905714D01*
X152852380Y-71334285D02*
X152852380Y-71905714D01*
X152852380Y-71620000D02*
X151852380Y-71620000D01*
X151995238Y-71715238D01*
X152090476Y-71810476D01*
X152138095Y-71905714D01*
X152852380Y-70905714D02*
X151852380Y-70905714D01*
X151852380Y-70524761D01*
X151900000Y-70429523D01*
X151947619Y-70381904D01*
X152042857Y-70334285D01*
X152185714Y-70334285D01*
X152280952Y-70381904D01*
X152328571Y-70429523D01*
X152376190Y-70524761D01*
X152376190Y-70905714D01*
X155344761Y-73096190D02*
X155392380Y-72953333D01*
X155392380Y-72715238D01*
X155344761Y-72620000D01*
X155297142Y-72572380D01*
X155201904Y-72524761D01*
X155106666Y-72524761D01*
X155011428Y-72572380D01*
X154963809Y-72620000D01*
X154916190Y-72715238D01*
X154868571Y-72905714D01*
X154820952Y-73000952D01*
X154773333Y-73048571D01*
X154678095Y-73096190D01*
X154582857Y-73096190D01*
X154487619Y-73048571D01*
X154440000Y-73000952D01*
X154392380Y-72905714D01*
X154392380Y-72667619D01*
X154440000Y-72524761D01*
X154392380Y-72239047D02*
X154392380Y-71667619D01*
X155392380Y-71953333D02*
X154392380Y-71953333D01*
X155106666Y-71381904D02*
X155106666Y-70905714D01*
X155392380Y-71477142D02*
X154392380Y-71143809D01*
X155392380Y-70810476D01*
X155392380Y-69905714D02*
X154916190Y-70239047D01*
X155392380Y-70477142D02*
X154392380Y-70477142D01*
X154392380Y-70096190D01*
X154440000Y-70000952D01*
X154487619Y-69953333D01*
X154582857Y-69905714D01*
X154725714Y-69905714D01*
X154820952Y-69953333D01*
X154868571Y-70000952D01*
X154916190Y-70096190D01*
X154916190Y-70477142D01*
X154392380Y-69620000D02*
X154392380Y-69048571D01*
X155392380Y-69334285D02*
X154392380Y-69334285D01*
X157932380Y-72953333D02*
X156932380Y-72953333D01*
X157408571Y-72953333D02*
X157408571Y-72381904D01*
X157932380Y-72381904D02*
X156932380Y-72381904D01*
X156932380Y-71715238D02*
X156932380Y-71524761D01*
X156980000Y-71429523D01*
X157075238Y-71334285D01*
X157265714Y-71286666D01*
X157599047Y-71286666D01*
X157789523Y-71334285D01*
X157884761Y-71429523D01*
X157932380Y-71524761D01*
X157932380Y-71715238D01*
X157884761Y-71810476D01*
X157789523Y-71905714D01*
X157599047Y-71953333D01*
X157265714Y-71953333D01*
X157075238Y-71905714D01*
X156980000Y-71810476D01*
X156932380Y-71715238D01*
X157932380Y-70858095D02*
X156932380Y-70858095D01*
X157646666Y-70524761D01*
X156932380Y-70191428D01*
X157932380Y-70191428D01*
X157408571Y-69715238D02*
X157408571Y-69381904D01*
X157932380Y-69239047D02*
X157932380Y-69715238D01*
X156932380Y-69715238D01*
X156932380Y-69239047D01*
X160424761Y-73143809D02*
X160472380Y-73000952D01*
X160472380Y-72762857D01*
X160424761Y-72667619D01*
X160377142Y-72620000D01*
X160281904Y-72572380D01*
X160186666Y-72572380D01*
X160091428Y-72620000D01*
X160043809Y-72667619D01*
X159996190Y-72762857D01*
X159948571Y-72953333D01*
X159900952Y-73048571D01*
X159853333Y-73096190D01*
X159758095Y-73143809D01*
X159662857Y-73143809D01*
X159567619Y-73096190D01*
X159520000Y-73048571D01*
X159472380Y-72953333D01*
X159472380Y-72715238D01*
X159520000Y-72572380D01*
X159948571Y-72143809D02*
X159948571Y-71810476D01*
X160472380Y-71667619D02*
X160472380Y-72143809D01*
X159472380Y-72143809D01*
X159472380Y-71667619D01*
X160472380Y-70762857D02*
X160472380Y-71239047D01*
X159472380Y-71239047D01*
X160377142Y-69858095D02*
X160424761Y-69905714D01*
X160472380Y-70048571D01*
X160472380Y-70143809D01*
X160424761Y-70286666D01*
X160329523Y-70381904D01*
X160234285Y-70429523D01*
X160043809Y-70477142D01*
X159900952Y-70477142D01*
X159710476Y-70429523D01*
X159615238Y-70381904D01*
X159520000Y-70286666D01*
X159472380Y-70143809D01*
X159472380Y-70048571D01*
X159520000Y-69905714D01*
X159567619Y-69858095D01*
X159472380Y-69572380D02*
X159472380Y-69000952D01*
X160472380Y-69286666D02*
X159472380Y-69286666D01*
X163012380Y-72072380D02*
X163012380Y-72548571D01*
X162012380Y-72548571D01*
X162488571Y-71739047D02*
X162488571Y-71405714D01*
X163012380Y-71262857D02*
X163012380Y-71739047D01*
X162012380Y-71739047D01*
X162012380Y-71262857D01*
X162488571Y-70500952D02*
X162488571Y-70834285D01*
X163012380Y-70834285D02*
X162012380Y-70834285D01*
X162012380Y-70358095D01*
X162012380Y-70120000D02*
X162012380Y-69548571D01*
X163012380Y-69834285D02*
X162012380Y-69834285D01*
X165552380Y-72453333D02*
X165076190Y-72786666D01*
X165552380Y-73024761D02*
X164552380Y-73024761D01*
X164552380Y-72643809D01*
X164600000Y-72548571D01*
X164647619Y-72500952D01*
X164742857Y-72453333D01*
X164885714Y-72453333D01*
X164980952Y-72500952D01*
X165028571Y-72548571D01*
X165076190Y-72643809D01*
X165076190Y-73024761D01*
X165552380Y-72024761D02*
X164552380Y-72024761D01*
X164600000Y-71024761D02*
X164552380Y-71120000D01*
X164552380Y-71262857D01*
X164600000Y-71405714D01*
X164695238Y-71500952D01*
X164790476Y-71548571D01*
X164980952Y-71596190D01*
X165123809Y-71596190D01*
X165314285Y-71548571D01*
X165409523Y-71500952D01*
X165504761Y-71405714D01*
X165552380Y-71262857D01*
X165552380Y-71167619D01*
X165504761Y-71024761D01*
X165457142Y-70977142D01*
X165123809Y-70977142D01*
X165123809Y-71167619D01*
X165552380Y-70548571D02*
X164552380Y-70548571D01*
X165028571Y-70548571D02*
X165028571Y-69977142D01*
X165552380Y-69977142D02*
X164552380Y-69977142D01*
X164552380Y-69643809D02*
X164552380Y-69072380D01*
X165552380Y-69358095D02*
X164552380Y-69358095D01*
X168092380Y-73000952D02*
X167092380Y-73000952D01*
X167092380Y-72762857D01*
X167140000Y-72620000D01*
X167235238Y-72524761D01*
X167330476Y-72477142D01*
X167520952Y-72429523D01*
X167663809Y-72429523D01*
X167854285Y-72477142D01*
X167949523Y-72524761D01*
X168044761Y-72620000D01*
X168092380Y-72762857D01*
X168092380Y-73000952D01*
X167092380Y-71810476D02*
X167092380Y-71620000D01*
X167140000Y-71524761D01*
X167235238Y-71429523D01*
X167425714Y-71381904D01*
X167759047Y-71381904D01*
X167949523Y-71429523D01*
X168044761Y-71524761D01*
X168092380Y-71620000D01*
X168092380Y-71810476D01*
X168044761Y-71905714D01*
X167949523Y-72000952D01*
X167759047Y-72048571D01*
X167425714Y-72048571D01*
X167235238Y-72000952D01*
X167140000Y-71905714D01*
X167092380Y-71810476D01*
X167092380Y-71048571D02*
X168092380Y-70810476D01*
X167378095Y-70620000D01*
X168092380Y-70429523D01*
X167092380Y-70191428D01*
X168092380Y-69810476D02*
X167092380Y-69810476D01*
X168092380Y-69239047D01*
X167092380Y-69239047D01*
X169632380Y-71905714D02*
X170441904Y-71905714D01*
X170537142Y-71858095D01*
X170584761Y-71810476D01*
X170632380Y-71715238D01*
X170632380Y-71524761D01*
X170584761Y-71429523D01*
X170537142Y-71381904D01*
X170441904Y-71334285D01*
X169632380Y-71334285D01*
X170632380Y-70858095D02*
X169632380Y-70858095D01*
X169632380Y-70477142D01*
X169680000Y-70381904D01*
X169727619Y-70334285D01*
X169822857Y-70286666D01*
X169965714Y-70286666D01*
X170060952Y-70334285D01*
X170108571Y-70381904D01*
X170156190Y-70477142D01*
X170156190Y-70858095D01*
X137668095Y-68127619D02*
X137715714Y-68080000D01*
X137810952Y-68032380D01*
X138049047Y-68032380D01*
X138144285Y-68080000D01*
X138191904Y-68127619D01*
X138239523Y-68222857D01*
X138239523Y-68318095D01*
X138191904Y-68460952D01*
X137620476Y-69032380D01*
X138239523Y-69032380D01*
X138858571Y-68032380D02*
X138953809Y-68032380D01*
X139049047Y-68080000D01*
X139096666Y-68127619D01*
X139144285Y-68222857D01*
X139191904Y-68413333D01*
X139191904Y-68651428D01*
X139144285Y-68841904D01*
X139096666Y-68937142D01*
X139049047Y-68984761D01*
X138953809Y-69032380D01*
X138858571Y-69032380D01*
X138763333Y-68984761D01*
X138715714Y-68937142D01*
X138668095Y-68841904D01*
X138620476Y-68651428D01*
X138620476Y-68413333D01*
X138668095Y-68222857D01*
X138715714Y-68127619D01*
X138763333Y-68080000D01*
X138858571Y-68032380D01*
X138239523Y-63952380D02*
X137668095Y-63952380D01*
X137953809Y-63952380D02*
X137953809Y-62952380D01*
X137858571Y-63095238D01*
X137763333Y-63190476D01*
X137668095Y-63238095D01*
X138715714Y-63952380D02*
X138906190Y-63952380D01*
X139001428Y-63904761D01*
X139049047Y-63857142D01*
X139144285Y-63714285D01*
X139191904Y-63523809D01*
X139191904Y-63142857D01*
X139144285Y-63047619D01*
X139096666Y-63000000D01*
X139001428Y-62952380D01*
X138810952Y-62952380D01*
X138715714Y-63000000D01*
X138668095Y-63047619D01*
X138620476Y-63142857D01*
X138620476Y-63380952D01*
X138668095Y-63476190D01*
X138715714Y-63523809D01*
X138810952Y-63571428D01*
X139001428Y-63571428D01*
X139096666Y-63523809D01*
X139144285Y-63476190D01*
X139191904Y-63380952D01*
X166084285Y-68127619D02*
X166131904Y-68080000D01*
X166227142Y-68032380D01*
X166465238Y-68032380D01*
X166560476Y-68080000D01*
X166608095Y-68127619D01*
X166655714Y-68222857D01*
X166655714Y-68318095D01*
X166608095Y-68460952D01*
X166036666Y-69032380D01*
X166655714Y-69032380D01*
X166655714Y-63952380D02*
X166084285Y-63952380D01*
X166370000Y-63952380D02*
X166370000Y-62952380D01*
X166274761Y-63095238D01*
X166179523Y-63190476D01*
X166084285Y-63238095D01*
D12*
X149800000Y-78680000D02*
X149800000Y-81340000D01*
X152400000Y-78680000D02*
X149800000Y-78680000D01*
X152400000Y-81340000D02*
X149800000Y-81340000D01*
X152400000Y-78680000D02*
X152400000Y-81340000D01*
X153670000Y-78680000D02*
X155000000Y-78680000D01*
X155000000Y-78680000D02*
X155000000Y-80010000D01*
X156150000Y-86420000D02*
X158810000Y-86420000D01*
X156150000Y-81280000D02*
X156150000Y-86420000D01*
X158810000Y-81280000D02*
X158810000Y-86420000D01*
X156150000Y-81280000D02*
X158810000Y-81280000D01*
X156150000Y-80010000D02*
X156150000Y-78680000D01*
X156150000Y-78680000D02*
X157480000Y-78680000D01*
X161230000Y-88960000D02*
X163890000Y-88960000D01*
X161230000Y-81280000D02*
X161230000Y-88960000D01*
X163890000Y-81280000D02*
X163890000Y-88960000D01*
X161230000Y-81280000D02*
X163890000Y-81280000D01*
X161230000Y-80010000D02*
X161230000Y-78680000D01*
X161230000Y-78680000D02*
X162560000Y-78680000D01*
X142180000Y-78680000D02*
X143510000Y-78680000D01*
X142180000Y-80010000D02*
X142180000Y-78680000D01*
X144780000Y-78680000D02*
X147380000Y-78680000D01*
X144780000Y-81280000D02*
X144780000Y-78680000D01*
X142180000Y-81280000D02*
X144780000Y-81280000D01*
X147380000Y-78680000D02*
X147380000Y-88960000D01*
X142180000Y-81280000D02*
X142180000Y-88960000D01*
X142180000Y-88960000D02*
X147380000Y-88960000D01*
X165160000Y-63440000D02*
X165160000Y-64770000D01*
X163830000Y-63440000D02*
X165160000Y-63440000D01*
X165160000Y-66040000D02*
X165160000Y-68640000D01*
X162560000Y-66040000D02*
X165160000Y-66040000D01*
X162560000Y-63440000D02*
X162560000Y-66040000D01*
X165160000Y-68640000D02*
X139640000Y-68640000D01*
X162560000Y-63440000D02*
X139640000Y-63440000D01*
X139640000Y-63440000D02*
X139640000Y-68640000D01*
D10*
X152908095Y-85860000D02*
X152812857Y-85812380D01*
X152670000Y-85812380D01*
X152527142Y-85860000D01*
X152431904Y-85955238D01*
X152384285Y-86050476D01*
X152336666Y-86240952D01*
X152336666Y-86383809D01*
X152384285Y-86574285D01*
X152431904Y-86669523D01*
X152527142Y-86764761D01*
X152670000Y-86812380D01*
X152765238Y-86812380D01*
X152908095Y-86764761D01*
X152955714Y-86717142D01*
X152955714Y-86383809D01*
X152765238Y-86383809D01*
X153384285Y-86812380D02*
X153384285Y-85812380D01*
X153955714Y-86812380D01*
X153955714Y-85812380D01*
X154431904Y-86812380D02*
X154431904Y-85812380D01*
X154670000Y-85812380D01*
X154812857Y-85860000D01*
X154908095Y-85955238D01*
X154955714Y-86050476D01*
X155003333Y-86240952D01*
X155003333Y-86383809D01*
X154955714Y-86574285D01*
X154908095Y-86669523D01*
X154812857Y-86764761D01*
X154670000Y-86812380D01*
X154431904Y-86812380D01*
X149939523Y-85812380D02*
X150558571Y-85812380D01*
X150225238Y-86193333D01*
X150368095Y-86193333D01*
X150463333Y-86240952D01*
X150510952Y-86288571D01*
X150558571Y-86383809D01*
X150558571Y-86621904D01*
X150510952Y-86717142D01*
X150463333Y-86764761D01*
X150368095Y-86812380D01*
X150082380Y-86812380D01*
X149987142Y-86764761D01*
X149939523Y-86717142D01*
X150891904Y-86145714D02*
X151130000Y-86812380D01*
X151368095Y-86145714D01*
X151653809Y-85812380D02*
X152272857Y-85812380D01*
X151939523Y-86193333D01*
X152082380Y-86193333D01*
X152177619Y-86240952D01*
X152225238Y-86288571D01*
X152272857Y-86383809D01*
X152272857Y-86621904D01*
X152225238Y-86717142D01*
X152177619Y-86764761D01*
X152082380Y-86812380D01*
X151796666Y-86812380D01*
X151701428Y-86764761D01*
X151653809Y-86717142D01*
X165612380Y-66373333D02*
X166326666Y-66373333D01*
X166469523Y-66420952D01*
X166564761Y-66516190D01*
X166612380Y-66659047D01*
X166612380Y-66754285D01*
X166612380Y-65373333D02*
X166612380Y-65944761D01*
X166612380Y-65659047D02*
X165612380Y-65659047D01*
X165755238Y-65754285D01*
X165850476Y-65849523D01*
X165898095Y-65944761D01*
%LPC*%
D13*
X153670000Y-80010000D03*
D14*
X151130000Y-80010000D03*
D13*
X157480000Y-80010000D03*
D14*
X157480000Y-82550000D03*
X157480000Y-85090000D03*
D13*
X162560000Y-80010000D03*
D14*
X162560000Y-82550000D03*
X162560000Y-85090000D03*
X162560000Y-87630000D03*
D13*
X143510000Y-80010000D03*
D14*
X146050000Y-80010000D03*
X143510000Y-82550000D03*
X146050000Y-82550000D03*
X143510000Y-85090000D03*
X146050000Y-85090000D03*
X143510000Y-87630000D03*
X146050000Y-87630000D03*
D15*
X153670000Y-83820000D03*
X151130000Y-83820000D03*
D16*
X152400000Y-91440000D03*
X152400000Y-58420000D03*
D15*
X134620000Y-74930000D03*
X137160000Y-74930000D03*
X139700000Y-74930000D03*
X142240000Y-74930000D03*
X144780000Y-74930000D03*
X147320000Y-74930000D03*
X149860000Y-74930000D03*
X152400000Y-74930000D03*
X154940000Y-74930000D03*
X157480000Y-74930000D03*
X160020000Y-74930000D03*
X162560000Y-74930000D03*
X165100000Y-74930000D03*
X167640000Y-74930000D03*
X170180000Y-74930000D03*
D13*
X163830000Y-64770000D03*
D14*
X163830000Y-67310000D03*
X161290000Y-64770000D03*
X161290000Y-67310000D03*
X158750000Y-64770000D03*
X158750000Y-67310000D03*
X156210000Y-64770000D03*
X156210000Y-67310000D03*
X153670000Y-64770000D03*
X153670000Y-67310000D03*
X151130000Y-64770000D03*
X151130000Y-67310000D03*
X148590000Y-64770000D03*
X148590000Y-67310000D03*
X146050000Y-64770000D03*
X146050000Y-67310000D03*
X143510000Y-64770000D03*
X143510000Y-67310000D03*
X140970000Y-64770000D03*
X140970000Y-67310000D03*
M02*
