G04 #@! TF.GenerationSoftware,KiCad,Pcbnew,(5.1.10)-1*
G04 #@! TF.CreationDate,2022-05-03T00:12:14-07:00*
G04 #@! TF.ProjectId,DUBloon,4455426c-6f6f-46e2-9e6b-696361645f70,rev?*
G04 #@! TF.SameCoordinates,Original*
G04 #@! TF.FileFunction,Copper,L1,Top*
G04 #@! TF.FilePolarity,Positive*
%FSLAX46Y46*%
G04 Gerber Fmt 4.6, Leading zero omitted, Abs format (unit mm)*
G04 Created by KiCad (PCBNEW (5.1.10)-1) date 2022-05-03 00:12:14*
%MOMM*%
%LPD*%
G01*
G04 APERTURE LIST*
G04 #@! TA.AperFunction,ComponentPad*
%ADD10R,1.700000X1.700000*%
G04 #@! TD*
G04 #@! TA.AperFunction,ComponentPad*
%ADD11O,1.700000X1.700000*%
G04 #@! TD*
G04 #@! TA.AperFunction,SMDPad,CuDef*
%ADD12R,2.000000X3.000000*%
G04 #@! TD*
G04 #@! TA.AperFunction,Conductor*
%ADD13C,0.250000*%
G04 #@! TD*
G04 #@! TA.AperFunction,Conductor*
%ADD14C,0.500000*%
G04 #@! TD*
G04 #@! TA.AperFunction,Conductor*
%ADD15C,0.254000*%
G04 #@! TD*
G04 #@! TA.AperFunction,Conductor*
%ADD16C,0.100000*%
G04 #@! TD*
G04 APERTURE END LIST*
D10*
X153670000Y-80010000D03*
D11*
X151130000Y-80010000D03*
D10*
X157480000Y-80010000D03*
D11*
X157480000Y-82550000D03*
X157480000Y-85090000D03*
D10*
X162560000Y-80010000D03*
D11*
X162560000Y-82550000D03*
X162560000Y-85090000D03*
X162560000Y-87630000D03*
D10*
X143510000Y-80010000D03*
D11*
X146050000Y-80010000D03*
X143510000Y-82550000D03*
X146050000Y-82550000D03*
X143510000Y-85090000D03*
X146050000Y-85090000D03*
X143510000Y-87630000D03*
X146050000Y-87630000D03*
D12*
X153670000Y-83820000D03*
X151130000Y-83820000D03*
X134620000Y-74930000D03*
X137160000Y-74930000D03*
X139700000Y-74930000D03*
X142240000Y-74930000D03*
X144780000Y-74930000D03*
X147320000Y-74930000D03*
X149860000Y-74930000D03*
X152400000Y-74930000D03*
X154940000Y-74930000D03*
X157480000Y-74930000D03*
X160020000Y-74930000D03*
X162560000Y-74930000D03*
X165100000Y-74930000D03*
X167640000Y-74930000D03*
X170180000Y-74930000D03*
D10*
X163830000Y-64770000D03*
D11*
X163830000Y-67310000D03*
X161290000Y-64770000D03*
X161290000Y-67310000D03*
X158750000Y-64770000D03*
X158750000Y-67310000D03*
X156210000Y-64770000D03*
X156210000Y-67310000D03*
X153670000Y-64770000D03*
X153670000Y-67310000D03*
X151130000Y-64770000D03*
X151130000Y-67310000D03*
X148590000Y-64770000D03*
X148590000Y-67310000D03*
X146050000Y-64770000D03*
X146050000Y-67310000D03*
X143510000Y-64770000D03*
X143510000Y-67310000D03*
X140970000Y-64770000D03*
X140970000Y-67310000D03*
D13*
X170180000Y-73104999D02*
X170180000Y-74479990D01*
X170180000Y-73104999D02*
X170180000Y-71120000D01*
X170180000Y-71120000D02*
X168910000Y-69850000D01*
X168910000Y-69850000D02*
X168910000Y-67310000D01*
X168910000Y-67310000D02*
X166370000Y-64770000D01*
X163830000Y-64770000D02*
X166370000Y-64770000D01*
X167640000Y-73660000D02*
X167640000Y-73555009D01*
X167640000Y-74930000D02*
X167640000Y-73660000D01*
X167640000Y-73104999D02*
X167640000Y-73660000D01*
X167640000Y-68580000D02*
X167640000Y-73104999D01*
X166370000Y-67310000D02*
X167640000Y-68580000D01*
X163830000Y-67310000D02*
X166370000Y-67310000D01*
X162560000Y-85090000D02*
X163830000Y-85090000D01*
X165100000Y-83820000D02*
X165100000Y-74930000D01*
X163830000Y-85090000D02*
X165100000Y-83820000D01*
X161290000Y-64770000D02*
X162560000Y-66040000D01*
X162560000Y-66040000D02*
X162560000Y-68580000D01*
X162560000Y-68580000D02*
X163830000Y-69850000D01*
X163830000Y-69850000D02*
X165100000Y-71120000D01*
X165100000Y-72390000D02*
X165100000Y-73104999D01*
X165100000Y-71120000D02*
X165100000Y-72390000D01*
X165100000Y-72390000D02*
X165100000Y-74930000D01*
X161290000Y-67310000D02*
X161290000Y-69850000D01*
X161290000Y-69850000D02*
X162560000Y-71120000D01*
X162560000Y-72390000D02*
X162560000Y-74930000D01*
X162560000Y-71120000D02*
X162560000Y-72390000D01*
X162560000Y-72390000D02*
X162560000Y-73104999D01*
X157480000Y-85090000D02*
X158750000Y-85090000D01*
X160020000Y-83820000D02*
X160020000Y-74930000D01*
X158750000Y-85090000D02*
X160020000Y-83820000D01*
X158750000Y-64770000D02*
X160020000Y-66040000D01*
X160020000Y-66040000D02*
X160020000Y-73104999D01*
X160020000Y-73104999D02*
X160020000Y-74930000D01*
X158750000Y-67310000D02*
X158750000Y-71120000D01*
X158750000Y-71120000D02*
X157480000Y-72390000D01*
X157480000Y-72390000D02*
X157480000Y-73104999D01*
X157480000Y-73104999D02*
X157480000Y-74930000D01*
X154940000Y-74930000D02*
X154940000Y-72390000D01*
X154940000Y-72390000D02*
X157480000Y-69850000D01*
X157480000Y-80010000D02*
X154940000Y-77470000D01*
X154940000Y-77470000D02*
X154940000Y-74930000D01*
X156210000Y-64770000D02*
X157480000Y-66040000D01*
X157480000Y-66040000D02*
X157480000Y-69850000D01*
X152400000Y-74930000D02*
X152400000Y-72390000D01*
X152400000Y-72390000D02*
X154940000Y-69850000D01*
X154940000Y-69850000D02*
X156210000Y-68580000D01*
X156210000Y-68580000D02*
X156210000Y-67310000D01*
X149860000Y-74930000D02*
X149860000Y-73660000D01*
X149860000Y-73660000D02*
X153670000Y-69850000D01*
X146050000Y-82550000D02*
X147320000Y-82550000D01*
X147320000Y-82550000D02*
X148590000Y-81280000D01*
X148590000Y-81280000D02*
X148590000Y-78740000D01*
X149860000Y-77470000D02*
X149860000Y-74930000D01*
X148590000Y-78740000D02*
X149860000Y-77470000D01*
X153670000Y-64770000D02*
X154940000Y-66040000D01*
X153670000Y-69850000D02*
X154940000Y-68580000D01*
X154940000Y-66040000D02*
X154940000Y-68580000D01*
X147770010Y-71939990D02*
X147320000Y-72390000D01*
X147320000Y-72390000D02*
X147320000Y-74930000D01*
X147770010Y-71939990D02*
X149040010Y-71939990D01*
X149040010Y-71939990D02*
X149860000Y-71120000D01*
X149860000Y-71120000D02*
X151130000Y-71120000D01*
X153670000Y-68580000D02*
X153670000Y-67310000D01*
X151130000Y-71120000D02*
X153670000Y-68580000D01*
X144780000Y-72390000D02*
X144780000Y-74930000D01*
X146050000Y-71120000D02*
X144780000Y-72390000D01*
X146050000Y-71120000D02*
X148590000Y-71120000D01*
X148590000Y-71120000D02*
X149860000Y-69850000D01*
X149860000Y-69850000D02*
X151130000Y-69850000D01*
X151130000Y-69850000D02*
X152400000Y-68580000D01*
X146050000Y-87630000D02*
X144780000Y-86360000D01*
X144780000Y-86360000D02*
X144780000Y-74930000D01*
X152400000Y-66040000D02*
X152400000Y-68580000D01*
X151130000Y-64770000D02*
X152400000Y-66040000D01*
X144780000Y-76200000D02*
X144780000Y-74930000D01*
D14*
X153670000Y-80010000D02*
X153670000Y-83820000D01*
D13*
X142240000Y-74930000D02*
X142240000Y-76200000D01*
X143510000Y-80010000D02*
X142240000Y-78740000D01*
X142240000Y-78740000D02*
X142240000Y-74930000D01*
X149860000Y-66040000D02*
X148590000Y-64770000D01*
X149860000Y-68580000D02*
X149860000Y-66040000D01*
X147770010Y-70669990D02*
X149860000Y-68580000D01*
X143960010Y-70669990D02*
X147770010Y-70669990D01*
X142240000Y-76200000D02*
X142240000Y-72390000D01*
X142240000Y-72390000D02*
X143960010Y-70669990D01*
X139700000Y-74930000D02*
X139700000Y-72390000D01*
X139700000Y-72390000D02*
X140970000Y-71120000D01*
X140970000Y-71120000D02*
X142240000Y-71120000D01*
X142240000Y-71120000D02*
X143510000Y-69850000D01*
X143510000Y-82550000D02*
X142240000Y-82550000D01*
X139700000Y-80010000D02*
X139700000Y-74930000D01*
X142240000Y-82550000D02*
X139700000Y-80010000D01*
X148590000Y-67310000D02*
X148590000Y-68580000D01*
X148590000Y-68580000D02*
X147320000Y-69850000D01*
X147320000Y-69850000D02*
X143510000Y-69850000D01*
X143510000Y-85090000D02*
X142240000Y-85090000D01*
X137160000Y-80010000D02*
X137160000Y-74930000D01*
X142240000Y-85090000D02*
X137160000Y-80010000D01*
X142873590Y-69850000D02*
X138430000Y-69850000D01*
X137160000Y-71120000D02*
X137160000Y-74930000D01*
X143323599Y-69399991D02*
X142873590Y-69850000D01*
X138430000Y-69850000D02*
X137160000Y-71120000D01*
X146500010Y-69399990D02*
X143323599Y-69399991D01*
X147320000Y-66040000D02*
X147320000Y-68580000D01*
X147320000Y-68580000D02*
X146500010Y-69399990D01*
X146050000Y-64770000D02*
X147320000Y-66040000D01*
X143510000Y-87630000D02*
X142240000Y-87630000D01*
X142240000Y-87630000D02*
X139700000Y-85090000D01*
X139700000Y-85090000D02*
X139700000Y-83820000D01*
X139700000Y-83820000D02*
X134620000Y-78740000D01*
X134620000Y-78740000D02*
X134620000Y-74930000D01*
X137610010Y-69399990D02*
X134620000Y-72390000D01*
X141420010Y-69399990D02*
X137610010Y-69399990D01*
X142240000Y-68580000D02*
X141420010Y-69399990D01*
X144780000Y-68580000D02*
X142240000Y-68580000D01*
X146050000Y-67310000D02*
X144780000Y-68580000D01*
X134620000Y-72390000D02*
X134620000Y-74930000D01*
D14*
X151130000Y-80010000D02*
X151130000Y-83820000D01*
D15*
X154570346Y-55390164D02*
X156288786Y-55658442D01*
X157976791Y-56077546D01*
X159621149Y-56644197D01*
X161208993Y-57353958D01*
X162727894Y-58201276D01*
X164165966Y-59179519D01*
X165511953Y-60281031D01*
X166755321Y-61497190D01*
X167886339Y-62818480D01*
X168896155Y-64234559D01*
X169776867Y-65734344D01*
X170521581Y-67306098D01*
X171124470Y-68937519D01*
X171580814Y-70615839D01*
X171887042Y-72327923D01*
X172040757Y-74060372D01*
X172040757Y-75799628D01*
X171887042Y-77532077D01*
X171580814Y-79244161D01*
X171124470Y-80922481D01*
X170521581Y-82553902D01*
X169776867Y-84125656D01*
X168896155Y-85625441D01*
X167886339Y-87041520D01*
X166755321Y-88362810D01*
X165511953Y-89578969D01*
X164165966Y-90680481D01*
X162727894Y-91658724D01*
X161208993Y-92506042D01*
X159621149Y-93215803D01*
X157976791Y-93782454D01*
X156288786Y-94201558D01*
X154570346Y-94469836D01*
X152834920Y-94585189D01*
X151096091Y-94546713D01*
X149367466Y-94354709D01*
X147662575Y-94010681D01*
X145994761Y-93517321D01*
X144377076Y-92878490D01*
X142822182Y-92099188D01*
X141397901Y-91219872D01*
X150165000Y-91219872D01*
X150165000Y-91660128D01*
X150250890Y-92091925D01*
X150419369Y-92498669D01*
X150663962Y-92864729D01*
X150975271Y-93176038D01*
X151341331Y-93420631D01*
X151748075Y-93589110D01*
X152179872Y-93675000D01*
X152620128Y-93675000D01*
X153051925Y-93589110D01*
X153458669Y-93420631D01*
X153824729Y-93176038D01*
X154136038Y-92864729D01*
X154380631Y-92498669D01*
X154549110Y-92091925D01*
X154635000Y-91660128D01*
X154635000Y-91219872D01*
X154549110Y-90788075D01*
X154380631Y-90381331D01*
X154136038Y-90015271D01*
X153824729Y-89703962D01*
X153458669Y-89459369D01*
X153051925Y-89290890D01*
X152620128Y-89205000D01*
X152179872Y-89205000D01*
X151748075Y-89290890D01*
X151341331Y-89459369D01*
X150975271Y-89703962D01*
X150663962Y-90015271D01*
X150419369Y-90381331D01*
X150250890Y-90788075D01*
X150165000Y-91219872D01*
X141397901Y-91219872D01*
X141342247Y-91185513D01*
X139948854Y-90144617D01*
X138652908Y-88984646D01*
X137464552Y-87714678D01*
X136393086Y-86344653D01*
X135446896Y-84885292D01*
X134633386Y-83348018D01*
X133958925Y-81744862D01*
X133428790Y-80088370D01*
X133047130Y-78391507D01*
X132816933Y-76667553D01*
X132740000Y-74930000D01*
X132806414Y-73430000D01*
X132981928Y-73430000D01*
X132981928Y-76430000D01*
X132994188Y-76554482D01*
X133030498Y-76674180D01*
X133089463Y-76784494D01*
X133168815Y-76881185D01*
X133265506Y-76960537D01*
X133375820Y-77019502D01*
X133495518Y-77055812D01*
X133620000Y-77068072D01*
X133860000Y-77068072D01*
X133860000Y-78702677D01*
X133856324Y-78740000D01*
X133860000Y-78777322D01*
X133860000Y-78777332D01*
X133870997Y-78888985D01*
X133914454Y-79032246D01*
X133985026Y-79164276D01*
X134024871Y-79212826D01*
X134079999Y-79280001D01*
X134109003Y-79303804D01*
X138940001Y-84134803D01*
X138940000Y-85052677D01*
X138936324Y-85090000D01*
X138940000Y-85127322D01*
X138940000Y-85127332D01*
X138950997Y-85238985D01*
X138994454Y-85382246D01*
X139065026Y-85514276D01*
X139104871Y-85562826D01*
X139159999Y-85630001D01*
X139189003Y-85653804D01*
X141676205Y-88141008D01*
X141699999Y-88170001D01*
X141728992Y-88193795D01*
X141728996Y-88193799D01*
X141799685Y-88251811D01*
X141815724Y-88264974D01*
X141947753Y-88335546D01*
X142091014Y-88379003D01*
X142202667Y-88390000D01*
X142202676Y-88390000D01*
X142233875Y-88393073D01*
X142356525Y-88576632D01*
X142563368Y-88783475D01*
X142806589Y-88945990D01*
X143076842Y-89057932D01*
X143363740Y-89115000D01*
X143656260Y-89115000D01*
X143943158Y-89057932D01*
X144213411Y-88945990D01*
X144456632Y-88783475D01*
X144663475Y-88576632D01*
X144780000Y-88402240D01*
X144896525Y-88576632D01*
X145103368Y-88783475D01*
X145346589Y-88945990D01*
X145616842Y-89057932D01*
X145903740Y-89115000D01*
X146196260Y-89115000D01*
X146483158Y-89057932D01*
X146753411Y-88945990D01*
X146996632Y-88783475D01*
X147203475Y-88576632D01*
X147365990Y-88333411D01*
X147477932Y-88063158D01*
X147535000Y-87776260D01*
X147535000Y-87483740D01*
X147477932Y-87196842D01*
X147365990Y-86926589D01*
X147203475Y-86683368D01*
X146996632Y-86476525D01*
X146822240Y-86360000D01*
X146996632Y-86243475D01*
X147203475Y-86036632D01*
X147365990Y-85793411D01*
X147477932Y-85523158D01*
X147518342Y-85320000D01*
X149491928Y-85320000D01*
X149504188Y-85444482D01*
X149540498Y-85564180D01*
X149599463Y-85674494D01*
X149678815Y-85771185D01*
X149775506Y-85850537D01*
X149885820Y-85909502D01*
X150005518Y-85945812D01*
X150130000Y-85958072D01*
X150844250Y-85955000D01*
X151003000Y-85796250D01*
X151003000Y-83947000D01*
X149653750Y-83947000D01*
X149495000Y-84105750D01*
X149491928Y-85320000D01*
X147518342Y-85320000D01*
X147535000Y-85236260D01*
X147535000Y-84943740D01*
X147477932Y-84656842D01*
X147365990Y-84386589D01*
X147203475Y-84143368D01*
X146996632Y-83936525D01*
X146822240Y-83820000D01*
X146996632Y-83703475D01*
X147203475Y-83496632D01*
X147326125Y-83313073D01*
X147357322Y-83310000D01*
X147357333Y-83310000D01*
X147468986Y-83299003D01*
X147612247Y-83255546D01*
X147744276Y-83184974D01*
X147860001Y-83090001D01*
X147883804Y-83060997D01*
X148624801Y-82320000D01*
X149491928Y-82320000D01*
X149495000Y-83534250D01*
X149653750Y-83693000D01*
X151003000Y-83693000D01*
X151003000Y-81843750D01*
X150844250Y-81685000D01*
X150130000Y-81681928D01*
X150005518Y-81694188D01*
X149885820Y-81730498D01*
X149775506Y-81789463D01*
X149678815Y-81868815D01*
X149599463Y-81965506D01*
X149540498Y-82075820D01*
X149504188Y-82195518D01*
X149491928Y-82320000D01*
X148624801Y-82320000D01*
X149101004Y-81843798D01*
X149130001Y-81820001D01*
X149224974Y-81704276D01*
X149295546Y-81572247D01*
X149339003Y-81428986D01*
X149350000Y-81317333D01*
X149350000Y-81317324D01*
X149353676Y-81280001D01*
X149350000Y-81242678D01*
X149350000Y-80366891D01*
X149688519Y-80366891D01*
X149785843Y-80641252D01*
X149934822Y-80891355D01*
X150129731Y-81107588D01*
X150363080Y-81281641D01*
X150625901Y-81406825D01*
X150773110Y-81451476D01*
X151003000Y-81330155D01*
X151003000Y-80137000D01*
X149809186Y-80137000D01*
X149688519Y-80366891D01*
X149350000Y-80366891D01*
X149350000Y-79653109D01*
X149688519Y-79653109D01*
X149809186Y-79883000D01*
X151003000Y-79883000D01*
X151003000Y-78689845D01*
X151257000Y-78689845D01*
X151257000Y-79883000D01*
X151277000Y-79883000D01*
X151277000Y-80137000D01*
X151257000Y-80137000D01*
X151257000Y-81330155D01*
X151486890Y-81451476D01*
X151634099Y-81406825D01*
X151896920Y-81281641D01*
X152130269Y-81107588D01*
X152206034Y-81023534D01*
X152230498Y-81104180D01*
X152289463Y-81214494D01*
X152368815Y-81311185D01*
X152465506Y-81390537D01*
X152575820Y-81449502D01*
X152695518Y-81485812D01*
X152785000Y-81494625D01*
X152785000Y-81681928D01*
X152670000Y-81681928D01*
X152545518Y-81694188D01*
X152425820Y-81730498D01*
X152400000Y-81744299D01*
X152374180Y-81730498D01*
X152254482Y-81694188D01*
X152130000Y-81681928D01*
X151415750Y-81685000D01*
X151257000Y-81843750D01*
X151257000Y-83693000D01*
X151277000Y-83693000D01*
X151277000Y-83947000D01*
X151257000Y-83947000D01*
X151257000Y-85796250D01*
X151415750Y-85955000D01*
X152130000Y-85958072D01*
X152254482Y-85945812D01*
X152374180Y-85909502D01*
X152400000Y-85895701D01*
X152425820Y-85909502D01*
X152545518Y-85945812D01*
X152670000Y-85958072D01*
X154670000Y-85958072D01*
X154794482Y-85945812D01*
X154914180Y-85909502D01*
X155024494Y-85850537D01*
X155121185Y-85771185D01*
X155200537Y-85674494D01*
X155259502Y-85564180D01*
X155295812Y-85444482D01*
X155308072Y-85320000D01*
X155308072Y-82320000D01*
X155295812Y-82195518D01*
X155259502Y-82075820D01*
X155200537Y-81965506D01*
X155121185Y-81868815D01*
X155024494Y-81789463D01*
X154914180Y-81730498D01*
X154794482Y-81694188D01*
X154670000Y-81681928D01*
X154555000Y-81681928D01*
X154555000Y-81494625D01*
X154644482Y-81485812D01*
X154764180Y-81449502D01*
X154874494Y-81390537D01*
X154971185Y-81311185D01*
X155050537Y-81214494D01*
X155109502Y-81104180D01*
X155145812Y-80984482D01*
X155158072Y-80860000D01*
X155158072Y-79160000D01*
X155145812Y-79035518D01*
X155109502Y-78915820D01*
X155050537Y-78805506D01*
X154971185Y-78708815D01*
X154874494Y-78629463D01*
X154764180Y-78570498D01*
X154644482Y-78534188D01*
X154520000Y-78521928D01*
X152820000Y-78521928D01*
X152695518Y-78534188D01*
X152575820Y-78570498D01*
X152465506Y-78629463D01*
X152368815Y-78708815D01*
X152289463Y-78805506D01*
X152230498Y-78915820D01*
X152206034Y-78996466D01*
X152130269Y-78912412D01*
X151896920Y-78738359D01*
X151634099Y-78613175D01*
X151486890Y-78568524D01*
X151257000Y-78689845D01*
X151003000Y-78689845D01*
X150773110Y-78568524D01*
X150625901Y-78613175D01*
X150363080Y-78738359D01*
X150129731Y-78912412D01*
X149934822Y-79128645D01*
X149785843Y-79378748D01*
X149688519Y-79653109D01*
X149350000Y-79653109D01*
X149350000Y-79054801D01*
X150371004Y-78033798D01*
X150400001Y-78010001D01*
X150494974Y-77894276D01*
X150565546Y-77762247D01*
X150609003Y-77618986D01*
X150620000Y-77507333D01*
X150620000Y-77507324D01*
X150623676Y-77470001D01*
X150620000Y-77432678D01*
X150620000Y-77068072D01*
X150860000Y-77068072D01*
X150984482Y-77055812D01*
X151104180Y-77019502D01*
X151130000Y-77005701D01*
X151155820Y-77019502D01*
X151275518Y-77055812D01*
X151400000Y-77068072D01*
X153400000Y-77068072D01*
X153524482Y-77055812D01*
X153644180Y-77019502D01*
X153670000Y-77005701D01*
X153695820Y-77019502D01*
X153815518Y-77055812D01*
X153940000Y-77068072D01*
X154180000Y-77068072D01*
X154180000Y-77432677D01*
X154176324Y-77470000D01*
X154180000Y-77507322D01*
X154180000Y-77507332D01*
X154190997Y-77618985D01*
X154218433Y-77709431D01*
X154234454Y-77762246D01*
X154305026Y-77894276D01*
X154344871Y-77942826D01*
X154399999Y-78010001D01*
X154429003Y-78033804D01*
X155991928Y-79596730D01*
X155991928Y-80860000D01*
X156004188Y-80984482D01*
X156040498Y-81104180D01*
X156099463Y-81214494D01*
X156178815Y-81311185D01*
X156275506Y-81390537D01*
X156385820Y-81449502D01*
X156458380Y-81471513D01*
X156326525Y-81603368D01*
X156164010Y-81846589D01*
X156052068Y-82116842D01*
X155995000Y-82403740D01*
X155995000Y-82696260D01*
X156052068Y-82983158D01*
X156164010Y-83253411D01*
X156326525Y-83496632D01*
X156533368Y-83703475D01*
X156707760Y-83820000D01*
X156533368Y-83936525D01*
X156326525Y-84143368D01*
X156164010Y-84386589D01*
X156052068Y-84656842D01*
X155995000Y-84943740D01*
X155995000Y-85236260D01*
X156052068Y-85523158D01*
X156164010Y-85793411D01*
X156326525Y-86036632D01*
X156533368Y-86243475D01*
X156776589Y-86405990D01*
X157046842Y-86517932D01*
X157333740Y-86575000D01*
X157626260Y-86575000D01*
X157913158Y-86517932D01*
X158183411Y-86405990D01*
X158426632Y-86243475D01*
X158633475Y-86036632D01*
X158756125Y-85853073D01*
X158787322Y-85850000D01*
X158787333Y-85850000D01*
X158898986Y-85839003D01*
X159042247Y-85795546D01*
X159174276Y-85724974D01*
X159290001Y-85630001D01*
X159313804Y-85600997D01*
X160531004Y-84383798D01*
X160560001Y-84360001D01*
X160654974Y-84244276D01*
X160725546Y-84112247D01*
X160769003Y-83968986D01*
X160780000Y-83857333D01*
X160780000Y-83857324D01*
X160783676Y-83820001D01*
X160780000Y-83782678D01*
X160780000Y-77068072D01*
X161020000Y-77068072D01*
X161144482Y-77055812D01*
X161264180Y-77019502D01*
X161290000Y-77005701D01*
X161315820Y-77019502D01*
X161435518Y-77055812D01*
X161560000Y-77068072D01*
X163560000Y-77068072D01*
X163684482Y-77055812D01*
X163804180Y-77019502D01*
X163830000Y-77005701D01*
X163855820Y-77019502D01*
X163975518Y-77055812D01*
X164100000Y-77068072D01*
X164340001Y-77068072D01*
X164340000Y-83505198D01*
X163707653Y-84137546D01*
X163506632Y-83936525D01*
X163332240Y-83820000D01*
X163506632Y-83703475D01*
X163713475Y-83496632D01*
X163875990Y-83253411D01*
X163987932Y-82983158D01*
X164045000Y-82696260D01*
X164045000Y-82403740D01*
X163987932Y-82116842D01*
X163875990Y-81846589D01*
X163713475Y-81603368D01*
X163581620Y-81471513D01*
X163654180Y-81449502D01*
X163764494Y-81390537D01*
X163861185Y-81311185D01*
X163940537Y-81214494D01*
X163999502Y-81104180D01*
X164035812Y-80984482D01*
X164048072Y-80860000D01*
X164048072Y-79160000D01*
X164035812Y-79035518D01*
X163999502Y-78915820D01*
X163940537Y-78805506D01*
X163861185Y-78708815D01*
X163764494Y-78629463D01*
X163654180Y-78570498D01*
X163534482Y-78534188D01*
X163410000Y-78521928D01*
X161710000Y-78521928D01*
X161585518Y-78534188D01*
X161465820Y-78570498D01*
X161355506Y-78629463D01*
X161258815Y-78708815D01*
X161179463Y-78805506D01*
X161120498Y-78915820D01*
X161084188Y-79035518D01*
X161071928Y-79160000D01*
X161071928Y-80860000D01*
X161084188Y-80984482D01*
X161120498Y-81104180D01*
X161179463Y-81214494D01*
X161258815Y-81311185D01*
X161355506Y-81390537D01*
X161465820Y-81449502D01*
X161538380Y-81471513D01*
X161406525Y-81603368D01*
X161244010Y-81846589D01*
X161132068Y-82116842D01*
X161075000Y-82403740D01*
X161075000Y-82696260D01*
X161132068Y-82983158D01*
X161244010Y-83253411D01*
X161406525Y-83496632D01*
X161613368Y-83703475D01*
X161787760Y-83820000D01*
X161613368Y-83936525D01*
X161406525Y-84143368D01*
X161244010Y-84386589D01*
X161132068Y-84656842D01*
X161075000Y-84943740D01*
X161075000Y-85236260D01*
X161132068Y-85523158D01*
X161244010Y-85793411D01*
X161406525Y-86036632D01*
X161613368Y-86243475D01*
X161787760Y-86360000D01*
X161613368Y-86476525D01*
X161406525Y-86683368D01*
X161244010Y-86926589D01*
X161132068Y-87196842D01*
X161075000Y-87483740D01*
X161075000Y-87776260D01*
X161132068Y-88063158D01*
X161244010Y-88333411D01*
X161406525Y-88576632D01*
X161613368Y-88783475D01*
X161856589Y-88945990D01*
X162126842Y-89057932D01*
X162413740Y-89115000D01*
X162706260Y-89115000D01*
X162993158Y-89057932D01*
X163263411Y-88945990D01*
X163506632Y-88783475D01*
X163713475Y-88576632D01*
X163875990Y-88333411D01*
X163987932Y-88063158D01*
X164045000Y-87776260D01*
X164045000Y-87483740D01*
X163987932Y-87196842D01*
X163875990Y-86926589D01*
X163713475Y-86683368D01*
X163506632Y-86476525D01*
X163332240Y-86360000D01*
X163506632Y-86243475D01*
X163713475Y-86036632D01*
X163836125Y-85853073D01*
X163867322Y-85850000D01*
X163867333Y-85850000D01*
X163978986Y-85839003D01*
X164122247Y-85795546D01*
X164254276Y-85724974D01*
X164370001Y-85630001D01*
X164393804Y-85600997D01*
X165611004Y-84383798D01*
X165640001Y-84360001D01*
X165734974Y-84244276D01*
X165805546Y-84112247D01*
X165849003Y-83968986D01*
X165860000Y-83857333D01*
X165860000Y-83857324D01*
X165863676Y-83820001D01*
X165860000Y-83782678D01*
X165860000Y-77068072D01*
X166100000Y-77068072D01*
X166224482Y-77055812D01*
X166344180Y-77019502D01*
X166370000Y-77005701D01*
X166395820Y-77019502D01*
X166515518Y-77055812D01*
X166640000Y-77068072D01*
X168640000Y-77068072D01*
X168764482Y-77055812D01*
X168884180Y-77019502D01*
X168910000Y-77005701D01*
X168935820Y-77019502D01*
X169055518Y-77055812D01*
X169180000Y-77068072D01*
X171180000Y-77068072D01*
X171304482Y-77055812D01*
X171424180Y-77019502D01*
X171534494Y-76960537D01*
X171631185Y-76881185D01*
X171710537Y-76784494D01*
X171769502Y-76674180D01*
X171805812Y-76554482D01*
X171818072Y-76430000D01*
X171818072Y-73430000D01*
X171805812Y-73305518D01*
X171769502Y-73185820D01*
X171710537Y-73075506D01*
X171631185Y-72978815D01*
X171534494Y-72899463D01*
X171424180Y-72840498D01*
X171304482Y-72804188D01*
X171180000Y-72791928D01*
X170940000Y-72791928D01*
X170940000Y-71157322D01*
X170943676Y-71119999D01*
X170940000Y-71082676D01*
X170940000Y-71082667D01*
X170929003Y-70971014D01*
X170885546Y-70827753D01*
X170814974Y-70695724D01*
X170720001Y-70579999D01*
X170691003Y-70556201D01*
X169670000Y-69535199D01*
X169670000Y-67347322D01*
X169673676Y-67309999D01*
X169670000Y-67272676D01*
X169670000Y-67272667D01*
X169659003Y-67161014D01*
X169615546Y-67017753D01*
X169544974Y-66885724D01*
X169531811Y-66869685D01*
X169473799Y-66798996D01*
X169473795Y-66798992D01*
X169450001Y-66769999D01*
X169421008Y-66746205D01*
X166933804Y-64259003D01*
X166910001Y-64229999D01*
X166794276Y-64135026D01*
X166662247Y-64064454D01*
X166518986Y-64020997D01*
X166407333Y-64010000D01*
X166407322Y-64010000D01*
X166370000Y-64006324D01*
X166332678Y-64010000D01*
X165318072Y-64010000D01*
X165318072Y-63920000D01*
X165305812Y-63795518D01*
X165269502Y-63675820D01*
X165210537Y-63565506D01*
X165131185Y-63468815D01*
X165034494Y-63389463D01*
X164924180Y-63330498D01*
X164804482Y-63294188D01*
X164680000Y-63281928D01*
X162980000Y-63281928D01*
X162855518Y-63294188D01*
X162735820Y-63330498D01*
X162625506Y-63389463D01*
X162528815Y-63468815D01*
X162449463Y-63565506D01*
X162390498Y-63675820D01*
X162368487Y-63748380D01*
X162236632Y-63616525D01*
X161993411Y-63454010D01*
X161723158Y-63342068D01*
X161436260Y-63285000D01*
X161143740Y-63285000D01*
X160856842Y-63342068D01*
X160586589Y-63454010D01*
X160343368Y-63616525D01*
X160136525Y-63823368D01*
X160020000Y-63997760D01*
X159903475Y-63823368D01*
X159696632Y-63616525D01*
X159453411Y-63454010D01*
X159183158Y-63342068D01*
X158896260Y-63285000D01*
X158603740Y-63285000D01*
X158316842Y-63342068D01*
X158046589Y-63454010D01*
X157803368Y-63616525D01*
X157596525Y-63823368D01*
X157480000Y-63997760D01*
X157363475Y-63823368D01*
X157156632Y-63616525D01*
X156913411Y-63454010D01*
X156643158Y-63342068D01*
X156356260Y-63285000D01*
X156063740Y-63285000D01*
X155776842Y-63342068D01*
X155506589Y-63454010D01*
X155263368Y-63616525D01*
X155056525Y-63823368D01*
X154940000Y-63997760D01*
X154823475Y-63823368D01*
X154616632Y-63616525D01*
X154373411Y-63454010D01*
X154103158Y-63342068D01*
X153816260Y-63285000D01*
X153523740Y-63285000D01*
X153236842Y-63342068D01*
X152966589Y-63454010D01*
X152723368Y-63616525D01*
X152516525Y-63823368D01*
X152400000Y-63997760D01*
X152283475Y-63823368D01*
X152076632Y-63616525D01*
X151833411Y-63454010D01*
X151563158Y-63342068D01*
X151276260Y-63285000D01*
X150983740Y-63285000D01*
X150696842Y-63342068D01*
X150426589Y-63454010D01*
X150183368Y-63616525D01*
X149976525Y-63823368D01*
X149860000Y-63997760D01*
X149743475Y-63823368D01*
X149536632Y-63616525D01*
X149293411Y-63454010D01*
X149023158Y-63342068D01*
X148736260Y-63285000D01*
X148443740Y-63285000D01*
X148156842Y-63342068D01*
X147886589Y-63454010D01*
X147643368Y-63616525D01*
X147436525Y-63823368D01*
X147320000Y-63997760D01*
X147203475Y-63823368D01*
X146996632Y-63616525D01*
X146753411Y-63454010D01*
X146483158Y-63342068D01*
X146196260Y-63285000D01*
X145903740Y-63285000D01*
X145616842Y-63342068D01*
X145346589Y-63454010D01*
X145103368Y-63616525D01*
X144896525Y-63823368D01*
X144780000Y-63997760D01*
X144663475Y-63823368D01*
X144456632Y-63616525D01*
X144213411Y-63454010D01*
X143943158Y-63342068D01*
X143656260Y-63285000D01*
X143363740Y-63285000D01*
X143076842Y-63342068D01*
X142806589Y-63454010D01*
X142563368Y-63616525D01*
X142356525Y-63823368D01*
X142234805Y-64005534D01*
X142165178Y-63888645D01*
X141970269Y-63672412D01*
X141736920Y-63498359D01*
X141474099Y-63373175D01*
X141326890Y-63328524D01*
X141097000Y-63449845D01*
X141097000Y-64643000D01*
X141117000Y-64643000D01*
X141117000Y-64897000D01*
X141097000Y-64897000D01*
X141097000Y-67183000D01*
X141117000Y-67183000D01*
X141117000Y-67437000D01*
X141097000Y-67437000D01*
X141097000Y-67457000D01*
X140843000Y-67457000D01*
X140843000Y-67437000D01*
X139649186Y-67437000D01*
X139528519Y-67666891D01*
X139625843Y-67941252D01*
X139774822Y-68191355D01*
X139969731Y-68407588D01*
X140203080Y-68581641D01*
X140325582Y-68639990D01*
X137647335Y-68639990D01*
X137610010Y-68636314D01*
X137572685Y-68639990D01*
X137572677Y-68639990D01*
X137461024Y-68650987D01*
X137317763Y-68694444D01*
X137185734Y-68765016D01*
X137070009Y-68859989D01*
X137046211Y-68888987D01*
X134109003Y-71826196D01*
X134079999Y-71849999D01*
X134024871Y-71917174D01*
X133985026Y-71965724D01*
X133919147Y-72088975D01*
X133914454Y-72097754D01*
X133870997Y-72241015D01*
X133860000Y-72352668D01*
X133860000Y-72352678D01*
X133856324Y-72390000D01*
X133860000Y-72427323D01*
X133860000Y-72791928D01*
X133620000Y-72791928D01*
X133495518Y-72804188D01*
X133375820Y-72840498D01*
X133265506Y-72899463D01*
X133168815Y-72978815D01*
X133089463Y-73075506D01*
X133030498Y-73185820D01*
X132994188Y-73305518D01*
X132981928Y-73430000D01*
X132806414Y-73430000D01*
X132816933Y-73192447D01*
X133047130Y-71468493D01*
X133428790Y-69771630D01*
X133958925Y-68115138D01*
X134633386Y-66511982D01*
X135366362Y-65126891D01*
X139528519Y-65126891D01*
X139625843Y-65401252D01*
X139774822Y-65651355D01*
X139969731Y-65867588D01*
X140200880Y-66040000D01*
X139969731Y-66212412D01*
X139774822Y-66428645D01*
X139625843Y-66678748D01*
X139528519Y-66953109D01*
X139649186Y-67183000D01*
X140843000Y-67183000D01*
X140843000Y-64897000D01*
X139649186Y-64897000D01*
X139528519Y-65126891D01*
X135366362Y-65126891D01*
X135446896Y-64974708D01*
X135811013Y-64413109D01*
X139528519Y-64413109D01*
X139649186Y-64643000D01*
X140843000Y-64643000D01*
X140843000Y-63449845D01*
X140613110Y-63328524D01*
X140465901Y-63373175D01*
X140203080Y-63498359D01*
X139969731Y-63672412D01*
X139774822Y-63888645D01*
X139625843Y-64138748D01*
X139528519Y-64413109D01*
X135811013Y-64413109D01*
X136393086Y-63515347D01*
X137464552Y-62145322D01*
X138652908Y-60875354D01*
X139948854Y-59715383D01*
X141342247Y-58674487D01*
X142111009Y-58199872D01*
X150165000Y-58199872D01*
X150165000Y-58640128D01*
X150250890Y-59071925D01*
X150419369Y-59478669D01*
X150663962Y-59844729D01*
X150975271Y-60156038D01*
X151341331Y-60400631D01*
X151748075Y-60569110D01*
X152179872Y-60655000D01*
X152620128Y-60655000D01*
X153051925Y-60569110D01*
X153458669Y-60400631D01*
X153824729Y-60156038D01*
X154136038Y-59844729D01*
X154380631Y-59478669D01*
X154549110Y-59071925D01*
X154635000Y-58640128D01*
X154635000Y-58199872D01*
X154549110Y-57768075D01*
X154380631Y-57361331D01*
X154136038Y-56995271D01*
X153824729Y-56683962D01*
X153458669Y-56439369D01*
X153051925Y-56270890D01*
X152620128Y-56185000D01*
X152179872Y-56185000D01*
X151748075Y-56270890D01*
X151341331Y-56439369D01*
X150975271Y-56683962D01*
X150663962Y-56995271D01*
X150419369Y-57361331D01*
X150250890Y-57768075D01*
X150165000Y-58199872D01*
X142111009Y-58199872D01*
X142822182Y-57760812D01*
X144377076Y-56981510D01*
X145994761Y-56342679D01*
X147662575Y-55849319D01*
X149367466Y-55505291D01*
X151096091Y-55313287D01*
X152834920Y-55274811D01*
X154570346Y-55390164D01*
G04 #@! TA.AperFunction,Conductor*
D16*
G36*
X154570346Y-55390164D02*
G01*
X156288786Y-55658442D01*
X157976791Y-56077546D01*
X159621149Y-56644197D01*
X161208993Y-57353958D01*
X162727894Y-58201276D01*
X164165966Y-59179519D01*
X165511953Y-60281031D01*
X166755321Y-61497190D01*
X167886339Y-62818480D01*
X168896155Y-64234559D01*
X169776867Y-65734344D01*
X170521581Y-67306098D01*
X171124470Y-68937519D01*
X171580814Y-70615839D01*
X171887042Y-72327923D01*
X172040757Y-74060372D01*
X172040757Y-75799628D01*
X171887042Y-77532077D01*
X171580814Y-79244161D01*
X171124470Y-80922481D01*
X170521581Y-82553902D01*
X169776867Y-84125656D01*
X168896155Y-85625441D01*
X167886339Y-87041520D01*
X166755321Y-88362810D01*
X165511953Y-89578969D01*
X164165966Y-90680481D01*
X162727894Y-91658724D01*
X161208993Y-92506042D01*
X159621149Y-93215803D01*
X157976791Y-93782454D01*
X156288786Y-94201558D01*
X154570346Y-94469836D01*
X152834920Y-94585189D01*
X151096091Y-94546713D01*
X149367466Y-94354709D01*
X147662575Y-94010681D01*
X145994761Y-93517321D01*
X144377076Y-92878490D01*
X142822182Y-92099188D01*
X141397901Y-91219872D01*
X150165000Y-91219872D01*
X150165000Y-91660128D01*
X150250890Y-92091925D01*
X150419369Y-92498669D01*
X150663962Y-92864729D01*
X150975271Y-93176038D01*
X151341331Y-93420631D01*
X151748075Y-93589110D01*
X152179872Y-93675000D01*
X152620128Y-93675000D01*
X153051925Y-93589110D01*
X153458669Y-93420631D01*
X153824729Y-93176038D01*
X154136038Y-92864729D01*
X154380631Y-92498669D01*
X154549110Y-92091925D01*
X154635000Y-91660128D01*
X154635000Y-91219872D01*
X154549110Y-90788075D01*
X154380631Y-90381331D01*
X154136038Y-90015271D01*
X153824729Y-89703962D01*
X153458669Y-89459369D01*
X153051925Y-89290890D01*
X152620128Y-89205000D01*
X152179872Y-89205000D01*
X151748075Y-89290890D01*
X151341331Y-89459369D01*
X150975271Y-89703962D01*
X150663962Y-90015271D01*
X150419369Y-90381331D01*
X150250890Y-90788075D01*
X150165000Y-91219872D01*
X141397901Y-91219872D01*
X141342247Y-91185513D01*
X139948854Y-90144617D01*
X138652908Y-88984646D01*
X137464552Y-87714678D01*
X136393086Y-86344653D01*
X135446896Y-84885292D01*
X134633386Y-83348018D01*
X133958925Y-81744862D01*
X133428790Y-80088370D01*
X133047130Y-78391507D01*
X132816933Y-76667553D01*
X132740000Y-74930000D01*
X132806414Y-73430000D01*
X132981928Y-73430000D01*
X132981928Y-76430000D01*
X132994188Y-76554482D01*
X133030498Y-76674180D01*
X133089463Y-76784494D01*
X133168815Y-76881185D01*
X133265506Y-76960537D01*
X133375820Y-77019502D01*
X133495518Y-77055812D01*
X133620000Y-77068072D01*
X133860000Y-77068072D01*
X133860000Y-78702677D01*
X133856324Y-78740000D01*
X133860000Y-78777322D01*
X133860000Y-78777332D01*
X133870997Y-78888985D01*
X133914454Y-79032246D01*
X133985026Y-79164276D01*
X134024871Y-79212826D01*
X134079999Y-79280001D01*
X134109003Y-79303804D01*
X138940001Y-84134803D01*
X138940000Y-85052677D01*
X138936324Y-85090000D01*
X138940000Y-85127322D01*
X138940000Y-85127332D01*
X138950997Y-85238985D01*
X138994454Y-85382246D01*
X139065026Y-85514276D01*
X139104871Y-85562826D01*
X139159999Y-85630001D01*
X139189003Y-85653804D01*
X141676205Y-88141008D01*
X141699999Y-88170001D01*
X141728992Y-88193795D01*
X141728996Y-88193799D01*
X141799685Y-88251811D01*
X141815724Y-88264974D01*
X141947753Y-88335546D01*
X142091014Y-88379003D01*
X142202667Y-88390000D01*
X142202676Y-88390000D01*
X142233875Y-88393073D01*
X142356525Y-88576632D01*
X142563368Y-88783475D01*
X142806589Y-88945990D01*
X143076842Y-89057932D01*
X143363740Y-89115000D01*
X143656260Y-89115000D01*
X143943158Y-89057932D01*
X144213411Y-88945990D01*
X144456632Y-88783475D01*
X144663475Y-88576632D01*
X144780000Y-88402240D01*
X144896525Y-88576632D01*
X145103368Y-88783475D01*
X145346589Y-88945990D01*
X145616842Y-89057932D01*
X145903740Y-89115000D01*
X146196260Y-89115000D01*
X146483158Y-89057932D01*
X146753411Y-88945990D01*
X146996632Y-88783475D01*
X147203475Y-88576632D01*
X147365990Y-88333411D01*
X147477932Y-88063158D01*
X147535000Y-87776260D01*
X147535000Y-87483740D01*
X147477932Y-87196842D01*
X147365990Y-86926589D01*
X147203475Y-86683368D01*
X146996632Y-86476525D01*
X146822240Y-86360000D01*
X146996632Y-86243475D01*
X147203475Y-86036632D01*
X147365990Y-85793411D01*
X147477932Y-85523158D01*
X147518342Y-85320000D01*
X149491928Y-85320000D01*
X149504188Y-85444482D01*
X149540498Y-85564180D01*
X149599463Y-85674494D01*
X149678815Y-85771185D01*
X149775506Y-85850537D01*
X149885820Y-85909502D01*
X150005518Y-85945812D01*
X150130000Y-85958072D01*
X150844250Y-85955000D01*
X151003000Y-85796250D01*
X151003000Y-83947000D01*
X149653750Y-83947000D01*
X149495000Y-84105750D01*
X149491928Y-85320000D01*
X147518342Y-85320000D01*
X147535000Y-85236260D01*
X147535000Y-84943740D01*
X147477932Y-84656842D01*
X147365990Y-84386589D01*
X147203475Y-84143368D01*
X146996632Y-83936525D01*
X146822240Y-83820000D01*
X146996632Y-83703475D01*
X147203475Y-83496632D01*
X147326125Y-83313073D01*
X147357322Y-83310000D01*
X147357333Y-83310000D01*
X147468986Y-83299003D01*
X147612247Y-83255546D01*
X147744276Y-83184974D01*
X147860001Y-83090001D01*
X147883804Y-83060997D01*
X148624801Y-82320000D01*
X149491928Y-82320000D01*
X149495000Y-83534250D01*
X149653750Y-83693000D01*
X151003000Y-83693000D01*
X151003000Y-81843750D01*
X150844250Y-81685000D01*
X150130000Y-81681928D01*
X150005518Y-81694188D01*
X149885820Y-81730498D01*
X149775506Y-81789463D01*
X149678815Y-81868815D01*
X149599463Y-81965506D01*
X149540498Y-82075820D01*
X149504188Y-82195518D01*
X149491928Y-82320000D01*
X148624801Y-82320000D01*
X149101004Y-81843798D01*
X149130001Y-81820001D01*
X149224974Y-81704276D01*
X149295546Y-81572247D01*
X149339003Y-81428986D01*
X149350000Y-81317333D01*
X149350000Y-81317324D01*
X149353676Y-81280001D01*
X149350000Y-81242678D01*
X149350000Y-80366891D01*
X149688519Y-80366891D01*
X149785843Y-80641252D01*
X149934822Y-80891355D01*
X150129731Y-81107588D01*
X150363080Y-81281641D01*
X150625901Y-81406825D01*
X150773110Y-81451476D01*
X151003000Y-81330155D01*
X151003000Y-80137000D01*
X149809186Y-80137000D01*
X149688519Y-80366891D01*
X149350000Y-80366891D01*
X149350000Y-79653109D01*
X149688519Y-79653109D01*
X149809186Y-79883000D01*
X151003000Y-79883000D01*
X151003000Y-78689845D01*
X151257000Y-78689845D01*
X151257000Y-79883000D01*
X151277000Y-79883000D01*
X151277000Y-80137000D01*
X151257000Y-80137000D01*
X151257000Y-81330155D01*
X151486890Y-81451476D01*
X151634099Y-81406825D01*
X151896920Y-81281641D01*
X152130269Y-81107588D01*
X152206034Y-81023534D01*
X152230498Y-81104180D01*
X152289463Y-81214494D01*
X152368815Y-81311185D01*
X152465506Y-81390537D01*
X152575820Y-81449502D01*
X152695518Y-81485812D01*
X152785000Y-81494625D01*
X152785000Y-81681928D01*
X152670000Y-81681928D01*
X152545518Y-81694188D01*
X152425820Y-81730498D01*
X152400000Y-81744299D01*
X152374180Y-81730498D01*
X152254482Y-81694188D01*
X152130000Y-81681928D01*
X151415750Y-81685000D01*
X151257000Y-81843750D01*
X151257000Y-83693000D01*
X151277000Y-83693000D01*
X151277000Y-83947000D01*
X151257000Y-83947000D01*
X151257000Y-85796250D01*
X151415750Y-85955000D01*
X152130000Y-85958072D01*
X152254482Y-85945812D01*
X152374180Y-85909502D01*
X152400000Y-85895701D01*
X152425820Y-85909502D01*
X152545518Y-85945812D01*
X152670000Y-85958072D01*
X154670000Y-85958072D01*
X154794482Y-85945812D01*
X154914180Y-85909502D01*
X155024494Y-85850537D01*
X155121185Y-85771185D01*
X155200537Y-85674494D01*
X155259502Y-85564180D01*
X155295812Y-85444482D01*
X155308072Y-85320000D01*
X155308072Y-82320000D01*
X155295812Y-82195518D01*
X155259502Y-82075820D01*
X155200537Y-81965506D01*
X155121185Y-81868815D01*
X155024494Y-81789463D01*
X154914180Y-81730498D01*
X154794482Y-81694188D01*
X154670000Y-81681928D01*
X154555000Y-81681928D01*
X154555000Y-81494625D01*
X154644482Y-81485812D01*
X154764180Y-81449502D01*
X154874494Y-81390537D01*
X154971185Y-81311185D01*
X155050537Y-81214494D01*
X155109502Y-81104180D01*
X155145812Y-80984482D01*
X155158072Y-80860000D01*
X155158072Y-79160000D01*
X155145812Y-79035518D01*
X155109502Y-78915820D01*
X155050537Y-78805506D01*
X154971185Y-78708815D01*
X154874494Y-78629463D01*
X154764180Y-78570498D01*
X154644482Y-78534188D01*
X154520000Y-78521928D01*
X152820000Y-78521928D01*
X152695518Y-78534188D01*
X152575820Y-78570498D01*
X152465506Y-78629463D01*
X152368815Y-78708815D01*
X152289463Y-78805506D01*
X152230498Y-78915820D01*
X152206034Y-78996466D01*
X152130269Y-78912412D01*
X151896920Y-78738359D01*
X151634099Y-78613175D01*
X151486890Y-78568524D01*
X151257000Y-78689845D01*
X151003000Y-78689845D01*
X150773110Y-78568524D01*
X150625901Y-78613175D01*
X150363080Y-78738359D01*
X150129731Y-78912412D01*
X149934822Y-79128645D01*
X149785843Y-79378748D01*
X149688519Y-79653109D01*
X149350000Y-79653109D01*
X149350000Y-79054801D01*
X150371004Y-78033798D01*
X150400001Y-78010001D01*
X150494974Y-77894276D01*
X150565546Y-77762247D01*
X150609003Y-77618986D01*
X150620000Y-77507333D01*
X150620000Y-77507324D01*
X150623676Y-77470001D01*
X150620000Y-77432678D01*
X150620000Y-77068072D01*
X150860000Y-77068072D01*
X150984482Y-77055812D01*
X151104180Y-77019502D01*
X151130000Y-77005701D01*
X151155820Y-77019502D01*
X151275518Y-77055812D01*
X151400000Y-77068072D01*
X153400000Y-77068072D01*
X153524482Y-77055812D01*
X153644180Y-77019502D01*
X153670000Y-77005701D01*
X153695820Y-77019502D01*
X153815518Y-77055812D01*
X153940000Y-77068072D01*
X154180000Y-77068072D01*
X154180000Y-77432677D01*
X154176324Y-77470000D01*
X154180000Y-77507322D01*
X154180000Y-77507332D01*
X154190997Y-77618985D01*
X154218433Y-77709431D01*
X154234454Y-77762246D01*
X154305026Y-77894276D01*
X154344871Y-77942826D01*
X154399999Y-78010001D01*
X154429003Y-78033804D01*
X155991928Y-79596730D01*
X155991928Y-80860000D01*
X156004188Y-80984482D01*
X156040498Y-81104180D01*
X156099463Y-81214494D01*
X156178815Y-81311185D01*
X156275506Y-81390537D01*
X156385820Y-81449502D01*
X156458380Y-81471513D01*
X156326525Y-81603368D01*
X156164010Y-81846589D01*
X156052068Y-82116842D01*
X155995000Y-82403740D01*
X155995000Y-82696260D01*
X156052068Y-82983158D01*
X156164010Y-83253411D01*
X156326525Y-83496632D01*
X156533368Y-83703475D01*
X156707760Y-83820000D01*
X156533368Y-83936525D01*
X156326525Y-84143368D01*
X156164010Y-84386589D01*
X156052068Y-84656842D01*
X155995000Y-84943740D01*
X155995000Y-85236260D01*
X156052068Y-85523158D01*
X156164010Y-85793411D01*
X156326525Y-86036632D01*
X156533368Y-86243475D01*
X156776589Y-86405990D01*
X157046842Y-86517932D01*
X157333740Y-86575000D01*
X157626260Y-86575000D01*
X157913158Y-86517932D01*
X158183411Y-86405990D01*
X158426632Y-86243475D01*
X158633475Y-86036632D01*
X158756125Y-85853073D01*
X158787322Y-85850000D01*
X158787333Y-85850000D01*
X158898986Y-85839003D01*
X159042247Y-85795546D01*
X159174276Y-85724974D01*
X159290001Y-85630001D01*
X159313804Y-85600997D01*
X160531004Y-84383798D01*
X160560001Y-84360001D01*
X160654974Y-84244276D01*
X160725546Y-84112247D01*
X160769003Y-83968986D01*
X160780000Y-83857333D01*
X160780000Y-83857324D01*
X160783676Y-83820001D01*
X160780000Y-83782678D01*
X160780000Y-77068072D01*
X161020000Y-77068072D01*
X161144482Y-77055812D01*
X161264180Y-77019502D01*
X161290000Y-77005701D01*
X161315820Y-77019502D01*
X161435518Y-77055812D01*
X161560000Y-77068072D01*
X163560000Y-77068072D01*
X163684482Y-77055812D01*
X163804180Y-77019502D01*
X163830000Y-77005701D01*
X163855820Y-77019502D01*
X163975518Y-77055812D01*
X164100000Y-77068072D01*
X164340001Y-77068072D01*
X164340000Y-83505198D01*
X163707653Y-84137546D01*
X163506632Y-83936525D01*
X163332240Y-83820000D01*
X163506632Y-83703475D01*
X163713475Y-83496632D01*
X163875990Y-83253411D01*
X163987932Y-82983158D01*
X164045000Y-82696260D01*
X164045000Y-82403740D01*
X163987932Y-82116842D01*
X163875990Y-81846589D01*
X163713475Y-81603368D01*
X163581620Y-81471513D01*
X163654180Y-81449502D01*
X163764494Y-81390537D01*
X163861185Y-81311185D01*
X163940537Y-81214494D01*
X163999502Y-81104180D01*
X164035812Y-80984482D01*
X164048072Y-80860000D01*
X164048072Y-79160000D01*
X164035812Y-79035518D01*
X163999502Y-78915820D01*
X163940537Y-78805506D01*
X163861185Y-78708815D01*
X163764494Y-78629463D01*
X163654180Y-78570498D01*
X163534482Y-78534188D01*
X163410000Y-78521928D01*
X161710000Y-78521928D01*
X161585518Y-78534188D01*
X161465820Y-78570498D01*
X161355506Y-78629463D01*
X161258815Y-78708815D01*
X161179463Y-78805506D01*
X161120498Y-78915820D01*
X161084188Y-79035518D01*
X161071928Y-79160000D01*
X161071928Y-80860000D01*
X161084188Y-80984482D01*
X161120498Y-81104180D01*
X161179463Y-81214494D01*
X161258815Y-81311185D01*
X161355506Y-81390537D01*
X161465820Y-81449502D01*
X161538380Y-81471513D01*
X161406525Y-81603368D01*
X161244010Y-81846589D01*
X161132068Y-82116842D01*
X161075000Y-82403740D01*
X161075000Y-82696260D01*
X161132068Y-82983158D01*
X161244010Y-83253411D01*
X161406525Y-83496632D01*
X161613368Y-83703475D01*
X161787760Y-83820000D01*
X161613368Y-83936525D01*
X161406525Y-84143368D01*
X161244010Y-84386589D01*
X161132068Y-84656842D01*
X161075000Y-84943740D01*
X161075000Y-85236260D01*
X161132068Y-85523158D01*
X161244010Y-85793411D01*
X161406525Y-86036632D01*
X161613368Y-86243475D01*
X161787760Y-86360000D01*
X161613368Y-86476525D01*
X161406525Y-86683368D01*
X161244010Y-86926589D01*
X161132068Y-87196842D01*
X161075000Y-87483740D01*
X161075000Y-87776260D01*
X161132068Y-88063158D01*
X161244010Y-88333411D01*
X161406525Y-88576632D01*
X161613368Y-88783475D01*
X161856589Y-88945990D01*
X162126842Y-89057932D01*
X162413740Y-89115000D01*
X162706260Y-89115000D01*
X162993158Y-89057932D01*
X163263411Y-88945990D01*
X163506632Y-88783475D01*
X163713475Y-88576632D01*
X163875990Y-88333411D01*
X163987932Y-88063158D01*
X164045000Y-87776260D01*
X164045000Y-87483740D01*
X163987932Y-87196842D01*
X163875990Y-86926589D01*
X163713475Y-86683368D01*
X163506632Y-86476525D01*
X163332240Y-86360000D01*
X163506632Y-86243475D01*
X163713475Y-86036632D01*
X163836125Y-85853073D01*
X163867322Y-85850000D01*
X163867333Y-85850000D01*
X163978986Y-85839003D01*
X164122247Y-85795546D01*
X164254276Y-85724974D01*
X164370001Y-85630001D01*
X164393804Y-85600997D01*
X165611004Y-84383798D01*
X165640001Y-84360001D01*
X165734974Y-84244276D01*
X165805546Y-84112247D01*
X165849003Y-83968986D01*
X165860000Y-83857333D01*
X165860000Y-83857324D01*
X165863676Y-83820001D01*
X165860000Y-83782678D01*
X165860000Y-77068072D01*
X166100000Y-77068072D01*
X166224482Y-77055812D01*
X166344180Y-77019502D01*
X166370000Y-77005701D01*
X166395820Y-77019502D01*
X166515518Y-77055812D01*
X166640000Y-77068072D01*
X168640000Y-77068072D01*
X168764482Y-77055812D01*
X168884180Y-77019502D01*
X168910000Y-77005701D01*
X168935820Y-77019502D01*
X169055518Y-77055812D01*
X169180000Y-77068072D01*
X171180000Y-77068072D01*
X171304482Y-77055812D01*
X171424180Y-77019502D01*
X171534494Y-76960537D01*
X171631185Y-76881185D01*
X171710537Y-76784494D01*
X171769502Y-76674180D01*
X171805812Y-76554482D01*
X171818072Y-76430000D01*
X171818072Y-73430000D01*
X171805812Y-73305518D01*
X171769502Y-73185820D01*
X171710537Y-73075506D01*
X171631185Y-72978815D01*
X171534494Y-72899463D01*
X171424180Y-72840498D01*
X171304482Y-72804188D01*
X171180000Y-72791928D01*
X170940000Y-72791928D01*
X170940000Y-71157322D01*
X170943676Y-71119999D01*
X170940000Y-71082676D01*
X170940000Y-71082667D01*
X170929003Y-70971014D01*
X170885546Y-70827753D01*
X170814974Y-70695724D01*
X170720001Y-70579999D01*
X170691003Y-70556201D01*
X169670000Y-69535199D01*
X169670000Y-67347322D01*
X169673676Y-67309999D01*
X169670000Y-67272676D01*
X169670000Y-67272667D01*
X169659003Y-67161014D01*
X169615546Y-67017753D01*
X169544974Y-66885724D01*
X169531811Y-66869685D01*
X169473799Y-66798996D01*
X169473795Y-66798992D01*
X169450001Y-66769999D01*
X169421008Y-66746205D01*
X166933804Y-64259003D01*
X166910001Y-64229999D01*
X166794276Y-64135026D01*
X166662247Y-64064454D01*
X166518986Y-64020997D01*
X166407333Y-64010000D01*
X166407322Y-64010000D01*
X166370000Y-64006324D01*
X166332678Y-64010000D01*
X165318072Y-64010000D01*
X165318072Y-63920000D01*
X165305812Y-63795518D01*
X165269502Y-63675820D01*
X165210537Y-63565506D01*
X165131185Y-63468815D01*
X165034494Y-63389463D01*
X164924180Y-63330498D01*
X164804482Y-63294188D01*
X164680000Y-63281928D01*
X162980000Y-63281928D01*
X162855518Y-63294188D01*
X162735820Y-63330498D01*
X162625506Y-63389463D01*
X162528815Y-63468815D01*
X162449463Y-63565506D01*
X162390498Y-63675820D01*
X162368487Y-63748380D01*
X162236632Y-63616525D01*
X161993411Y-63454010D01*
X161723158Y-63342068D01*
X161436260Y-63285000D01*
X161143740Y-63285000D01*
X160856842Y-63342068D01*
X160586589Y-63454010D01*
X160343368Y-63616525D01*
X160136525Y-63823368D01*
X160020000Y-63997760D01*
X159903475Y-63823368D01*
X159696632Y-63616525D01*
X159453411Y-63454010D01*
X159183158Y-63342068D01*
X158896260Y-63285000D01*
X158603740Y-63285000D01*
X158316842Y-63342068D01*
X158046589Y-63454010D01*
X157803368Y-63616525D01*
X157596525Y-63823368D01*
X157480000Y-63997760D01*
X157363475Y-63823368D01*
X157156632Y-63616525D01*
X156913411Y-63454010D01*
X156643158Y-63342068D01*
X156356260Y-63285000D01*
X156063740Y-63285000D01*
X155776842Y-63342068D01*
X155506589Y-63454010D01*
X155263368Y-63616525D01*
X155056525Y-63823368D01*
X154940000Y-63997760D01*
X154823475Y-63823368D01*
X154616632Y-63616525D01*
X154373411Y-63454010D01*
X154103158Y-63342068D01*
X153816260Y-63285000D01*
X153523740Y-63285000D01*
X153236842Y-63342068D01*
X152966589Y-63454010D01*
X152723368Y-63616525D01*
X152516525Y-63823368D01*
X152400000Y-63997760D01*
X152283475Y-63823368D01*
X152076632Y-63616525D01*
X151833411Y-63454010D01*
X151563158Y-63342068D01*
X151276260Y-63285000D01*
X150983740Y-63285000D01*
X150696842Y-63342068D01*
X150426589Y-63454010D01*
X150183368Y-63616525D01*
X149976525Y-63823368D01*
X149860000Y-63997760D01*
X149743475Y-63823368D01*
X149536632Y-63616525D01*
X149293411Y-63454010D01*
X149023158Y-63342068D01*
X148736260Y-63285000D01*
X148443740Y-63285000D01*
X148156842Y-63342068D01*
X147886589Y-63454010D01*
X147643368Y-63616525D01*
X147436525Y-63823368D01*
X147320000Y-63997760D01*
X147203475Y-63823368D01*
X146996632Y-63616525D01*
X146753411Y-63454010D01*
X146483158Y-63342068D01*
X146196260Y-63285000D01*
X145903740Y-63285000D01*
X145616842Y-63342068D01*
X145346589Y-63454010D01*
X145103368Y-63616525D01*
X144896525Y-63823368D01*
X144780000Y-63997760D01*
X144663475Y-63823368D01*
X144456632Y-63616525D01*
X144213411Y-63454010D01*
X143943158Y-63342068D01*
X143656260Y-63285000D01*
X143363740Y-63285000D01*
X143076842Y-63342068D01*
X142806589Y-63454010D01*
X142563368Y-63616525D01*
X142356525Y-63823368D01*
X142234805Y-64005534D01*
X142165178Y-63888645D01*
X141970269Y-63672412D01*
X141736920Y-63498359D01*
X141474099Y-63373175D01*
X141326890Y-63328524D01*
X141097000Y-63449845D01*
X141097000Y-64643000D01*
X141117000Y-64643000D01*
X141117000Y-64897000D01*
X141097000Y-64897000D01*
X141097000Y-67183000D01*
X141117000Y-67183000D01*
X141117000Y-67437000D01*
X141097000Y-67437000D01*
X141097000Y-67457000D01*
X140843000Y-67457000D01*
X140843000Y-67437000D01*
X139649186Y-67437000D01*
X139528519Y-67666891D01*
X139625843Y-67941252D01*
X139774822Y-68191355D01*
X139969731Y-68407588D01*
X140203080Y-68581641D01*
X140325582Y-68639990D01*
X137647335Y-68639990D01*
X137610010Y-68636314D01*
X137572685Y-68639990D01*
X137572677Y-68639990D01*
X137461024Y-68650987D01*
X137317763Y-68694444D01*
X137185734Y-68765016D01*
X137070009Y-68859989D01*
X137046211Y-68888987D01*
X134109003Y-71826196D01*
X134079999Y-71849999D01*
X134024871Y-71917174D01*
X133985026Y-71965724D01*
X133919147Y-72088975D01*
X133914454Y-72097754D01*
X133870997Y-72241015D01*
X133860000Y-72352668D01*
X133860000Y-72352678D01*
X133856324Y-72390000D01*
X133860000Y-72427323D01*
X133860000Y-72791928D01*
X133620000Y-72791928D01*
X133495518Y-72804188D01*
X133375820Y-72840498D01*
X133265506Y-72899463D01*
X133168815Y-72978815D01*
X133089463Y-73075506D01*
X133030498Y-73185820D01*
X132994188Y-73305518D01*
X132981928Y-73430000D01*
X132806414Y-73430000D01*
X132816933Y-73192447D01*
X133047130Y-71468493D01*
X133428790Y-69771630D01*
X133958925Y-68115138D01*
X134633386Y-66511982D01*
X135366362Y-65126891D01*
X139528519Y-65126891D01*
X139625843Y-65401252D01*
X139774822Y-65651355D01*
X139969731Y-65867588D01*
X140200880Y-66040000D01*
X139969731Y-66212412D01*
X139774822Y-66428645D01*
X139625843Y-66678748D01*
X139528519Y-66953109D01*
X139649186Y-67183000D01*
X140843000Y-67183000D01*
X140843000Y-64897000D01*
X139649186Y-64897000D01*
X139528519Y-65126891D01*
X135366362Y-65126891D01*
X135446896Y-64974708D01*
X135811013Y-64413109D01*
X139528519Y-64413109D01*
X139649186Y-64643000D01*
X140843000Y-64643000D01*
X140843000Y-63449845D01*
X140613110Y-63328524D01*
X140465901Y-63373175D01*
X140203080Y-63498359D01*
X139969731Y-63672412D01*
X139774822Y-63888645D01*
X139625843Y-64138748D01*
X139528519Y-64413109D01*
X135811013Y-64413109D01*
X136393086Y-63515347D01*
X137464552Y-62145322D01*
X138652908Y-60875354D01*
X139948854Y-59715383D01*
X141342247Y-58674487D01*
X142111009Y-58199872D01*
X150165000Y-58199872D01*
X150165000Y-58640128D01*
X150250890Y-59071925D01*
X150419369Y-59478669D01*
X150663962Y-59844729D01*
X150975271Y-60156038D01*
X151341331Y-60400631D01*
X151748075Y-60569110D01*
X152179872Y-60655000D01*
X152620128Y-60655000D01*
X153051925Y-60569110D01*
X153458669Y-60400631D01*
X153824729Y-60156038D01*
X154136038Y-59844729D01*
X154380631Y-59478669D01*
X154549110Y-59071925D01*
X154635000Y-58640128D01*
X154635000Y-58199872D01*
X154549110Y-57768075D01*
X154380631Y-57361331D01*
X154136038Y-56995271D01*
X153824729Y-56683962D01*
X153458669Y-56439369D01*
X153051925Y-56270890D01*
X152620128Y-56185000D01*
X152179872Y-56185000D01*
X151748075Y-56270890D01*
X151341331Y-56439369D01*
X150975271Y-56683962D01*
X150663962Y-56995271D01*
X150419369Y-57361331D01*
X150250890Y-57768075D01*
X150165000Y-58199872D01*
X142111009Y-58199872D01*
X142822182Y-57760812D01*
X144377076Y-56981510D01*
X145994761Y-56342679D01*
X147662575Y-55849319D01*
X149367466Y-55505291D01*
X151096091Y-55313287D01*
X152834920Y-55274811D01*
X154570346Y-55390164D01*
G37*
G04 #@! TD.AperFunction*
M02*
