%FSLAX45Y45*%
G04 Gerber Fmt 4.5, Leading zero omitted, Abs format (unit mm)*
G04 Created by KiCad (PCBNEW (5.1.10)-1) date 2022-05-03 00:14:37*
%MOMM*%
%LPD*%
G01*
G04 APERTURE LIST*
%TA.AperFunction,Profile*%
%ADD10C,0.050000*%
%TD*%
%ADD11C,0.200000*%
%ADD12C,0.300000*%
G04 APERTURE END LIST*
D10*
X17272000Y-7493000D02*
G75*
G03*
X17272000Y-7493000I-2032000J0D01*
G01*
D11*
X14047000Y-6427000D02*
X14147000Y-6527000D01*
X14147000Y-6427000D02*
X14047000Y-6527000D01*
X14047000Y-6681000D02*
X14147000Y-6781000D01*
X14147000Y-6681000D02*
X14047000Y-6781000D01*
X14301000Y-6427000D02*
X14401000Y-6527000D01*
X14401000Y-6427000D02*
X14301000Y-6527000D01*
X14301000Y-6681000D02*
X14401000Y-6781000D01*
X14401000Y-6681000D02*
X14301000Y-6781000D01*
X14301000Y-7951000D02*
X14401000Y-8051000D01*
X14401000Y-7951000D02*
X14301000Y-8051000D01*
X14301000Y-8205000D02*
X14401000Y-8305000D01*
X14401000Y-8205000D02*
X14301000Y-8305000D01*
X14301000Y-8459000D02*
X14401000Y-8559000D01*
X14401000Y-8459000D02*
X14301000Y-8559000D01*
X14301000Y-8713000D02*
X14401000Y-8813000D01*
X14401000Y-8713000D02*
X14301000Y-8813000D01*
X14555000Y-6427000D02*
X14655000Y-6527000D01*
X14655000Y-6427000D02*
X14555000Y-6527000D01*
X14555000Y-6681000D02*
X14655000Y-6781000D01*
X14655000Y-6681000D02*
X14555000Y-6781000D01*
X14555000Y-7951000D02*
X14655000Y-8051000D01*
X14655000Y-7951000D02*
X14555000Y-8051000D01*
X14555000Y-8205000D02*
X14655000Y-8305000D01*
X14655000Y-8205000D02*
X14555000Y-8305000D01*
X14555000Y-8459000D02*
X14655000Y-8559000D01*
X14655000Y-8459000D02*
X14555000Y-8559000D01*
X14555000Y-8713000D02*
X14655000Y-8813000D01*
X14655000Y-8713000D02*
X14555000Y-8813000D01*
X14809000Y-6427000D02*
X14909000Y-6527000D01*
X14909000Y-6427000D02*
X14809000Y-6527000D01*
X14809000Y-6681000D02*
X14909000Y-6781000D01*
X14909000Y-6681000D02*
X14809000Y-6781000D01*
X15063000Y-6427000D02*
X15163000Y-6527000D01*
X15163000Y-6427000D02*
X15063000Y-6527000D01*
X15063000Y-6681000D02*
X15163000Y-6781000D01*
X15163000Y-6681000D02*
X15063000Y-6781000D01*
X15063000Y-7951000D02*
X15163000Y-8051000D01*
X15163000Y-7951000D02*
X15063000Y-8051000D01*
X15317000Y-6427000D02*
X15417000Y-6527000D01*
X15417000Y-6427000D02*
X15317000Y-6527000D01*
X15317000Y-6681000D02*
X15417000Y-6781000D01*
X15417000Y-6681000D02*
X15317000Y-6781000D01*
X15317000Y-7951000D02*
X15417000Y-8051000D01*
X15417000Y-7951000D02*
X15317000Y-8051000D01*
X15571000Y-6427000D02*
X15671000Y-6527000D01*
X15671000Y-6427000D02*
X15571000Y-6527000D01*
X15571000Y-6681000D02*
X15671000Y-6781000D01*
X15671000Y-6681000D02*
X15571000Y-6781000D01*
X15698000Y-7951000D02*
X15798000Y-8051000D01*
X15798000Y-7951000D02*
X15698000Y-8051000D01*
X15698000Y-8205000D02*
X15798000Y-8305000D01*
X15798000Y-8205000D02*
X15698000Y-8305000D01*
X15698000Y-8459000D02*
X15798000Y-8559000D01*
X15798000Y-8459000D02*
X15698000Y-8559000D01*
X15825000Y-6427000D02*
X15925000Y-6527000D01*
X15925000Y-6427000D02*
X15825000Y-6527000D01*
X15825000Y-6681000D02*
X15925000Y-6781000D01*
X15925000Y-6681000D02*
X15825000Y-6781000D01*
X16079000Y-6427000D02*
X16179000Y-6527000D01*
X16179000Y-6427000D02*
X16079000Y-6527000D01*
X16079000Y-6681000D02*
X16179000Y-6781000D01*
X16179000Y-6681000D02*
X16079000Y-6781000D01*
X16206000Y-7951000D02*
X16306000Y-8051000D01*
X16306000Y-7951000D02*
X16206000Y-8051000D01*
X16206000Y-8205000D02*
X16306000Y-8305000D01*
X16306000Y-8205000D02*
X16206000Y-8305000D01*
X16206000Y-8459000D02*
X16306000Y-8559000D01*
X16306000Y-8459000D02*
X16206000Y-8559000D01*
X16206000Y-8713000D02*
X16306000Y-8813000D01*
X16306000Y-8713000D02*
X16206000Y-8813000D01*
X16333000Y-6427000D02*
X16433000Y-6527000D01*
X16433000Y-6427000D02*
X16333000Y-6527000D01*
X16333000Y-6681000D02*
X16433000Y-6781000D01*
X16433000Y-6681000D02*
X16333000Y-6781000D01*
D12*
X13491928Y-9993214D02*
X13491928Y-9693214D01*
X13563357Y-9693214D01*
X13606214Y-9707500D01*
X13634786Y-9736072D01*
X13649071Y-9764643D01*
X13663357Y-9821786D01*
X13663357Y-9864643D01*
X13649071Y-9921786D01*
X13634786Y-9950357D01*
X13606214Y-9978929D01*
X13563357Y-9993214D01*
X13491928Y-9993214D01*
X13791928Y-9993214D02*
X13791928Y-9793214D01*
X13791928Y-9850357D02*
X13806214Y-9821786D01*
X13820500Y-9807500D01*
X13849071Y-9793214D01*
X13877643Y-9793214D01*
X13977643Y-9993214D02*
X13977643Y-9793214D01*
X13977643Y-9693214D02*
X13963357Y-9707500D01*
X13977643Y-9721786D01*
X13991928Y-9707500D01*
X13977643Y-9693214D01*
X13977643Y-9721786D01*
X14163357Y-9993214D02*
X14134786Y-9978929D01*
X14120500Y-9950357D01*
X14120500Y-9693214D01*
X14320500Y-9993214D02*
X14291928Y-9978929D01*
X14277643Y-9950357D01*
X14277643Y-9693214D01*
X14663357Y-9993214D02*
X14663357Y-9693214D01*
X14763357Y-9907500D01*
X14863357Y-9693214D01*
X14863357Y-9993214D01*
X15134786Y-9993214D02*
X15134786Y-9836072D01*
X15120500Y-9807500D01*
X15091928Y-9793214D01*
X15034786Y-9793214D01*
X15006214Y-9807500D01*
X15134786Y-9978929D02*
X15106214Y-9993214D01*
X15034786Y-9993214D01*
X15006214Y-9978929D01*
X14991928Y-9950357D01*
X14991928Y-9921786D01*
X15006214Y-9893214D01*
X15034786Y-9878929D01*
X15106214Y-9878929D01*
X15134786Y-9864643D01*
X15277643Y-9793214D02*
X15277643Y-10093214D01*
X15277643Y-9807500D02*
X15306214Y-9793214D01*
X15363357Y-9793214D01*
X15391928Y-9807500D01*
X15406214Y-9821786D01*
X15420500Y-9850357D01*
X15420500Y-9936072D01*
X15406214Y-9964643D01*
X15391928Y-9978929D01*
X15363357Y-9993214D01*
X15306214Y-9993214D01*
X15277643Y-9978929D01*
X15549071Y-9964643D02*
X15563357Y-9978929D01*
X15549071Y-9993214D01*
X15534786Y-9978929D01*
X15549071Y-9964643D01*
X15549071Y-9993214D01*
X15549071Y-9807500D02*
X15563357Y-9821786D01*
X15549071Y-9836072D01*
X15534786Y-9821786D01*
X15549071Y-9807500D01*
X15549071Y-9836072D01*
X13105500Y-10437500D02*
X13205500Y-10537500D01*
X13205500Y-10437500D02*
X13105500Y-10537500D01*
X13649071Y-10623214D02*
X13477643Y-10623214D01*
X13563357Y-10623214D02*
X13563357Y-10323214D01*
X13534786Y-10366072D01*
X13506214Y-10394643D01*
X13477643Y-10408929D01*
X13777643Y-10594643D02*
X13791928Y-10608929D01*
X13777643Y-10623214D01*
X13763357Y-10608929D01*
X13777643Y-10594643D01*
X13777643Y-10623214D01*
X13977643Y-10323214D02*
X14006214Y-10323214D01*
X14034786Y-10337500D01*
X14049071Y-10351786D01*
X14063357Y-10380357D01*
X14077643Y-10437500D01*
X14077643Y-10508929D01*
X14063357Y-10566072D01*
X14049071Y-10594643D01*
X14034786Y-10608929D01*
X14006214Y-10623214D01*
X13977643Y-10623214D01*
X13949071Y-10608929D01*
X13934786Y-10594643D01*
X13920500Y-10566072D01*
X13906214Y-10508929D01*
X13906214Y-10437500D01*
X13920500Y-10380357D01*
X13934786Y-10351786D01*
X13949071Y-10337500D01*
X13977643Y-10323214D01*
X14263357Y-10323214D02*
X14291928Y-10323214D01*
X14320500Y-10337500D01*
X14334786Y-10351786D01*
X14349071Y-10380357D01*
X14363357Y-10437500D01*
X14363357Y-10508929D01*
X14349071Y-10566072D01*
X14334786Y-10594643D01*
X14320500Y-10608929D01*
X14291928Y-10623214D01*
X14263357Y-10623214D01*
X14234786Y-10608929D01*
X14220500Y-10594643D01*
X14206214Y-10566072D01*
X14191928Y-10508929D01*
X14191928Y-10437500D01*
X14206214Y-10380357D01*
X14220500Y-10351786D01*
X14234786Y-10337500D01*
X14263357Y-10323214D01*
X14549071Y-10323214D02*
X14577643Y-10323214D01*
X14606214Y-10337500D01*
X14620500Y-10351786D01*
X14634786Y-10380357D01*
X14649071Y-10437500D01*
X14649071Y-10508929D01*
X14634786Y-10566072D01*
X14620500Y-10594643D01*
X14606214Y-10608929D01*
X14577643Y-10623214D01*
X14549071Y-10623214D01*
X14520500Y-10608929D01*
X14506214Y-10594643D01*
X14491928Y-10566072D01*
X14477643Y-10508929D01*
X14477643Y-10437500D01*
X14491928Y-10380357D01*
X14506214Y-10351786D01*
X14520500Y-10337500D01*
X14549071Y-10323214D01*
X14777643Y-10623214D02*
X14777643Y-10423214D01*
X14777643Y-10451786D02*
X14791928Y-10437500D01*
X14820500Y-10423214D01*
X14863357Y-10423214D01*
X14891928Y-10437500D01*
X14906214Y-10466072D01*
X14906214Y-10623214D01*
X14906214Y-10466072D02*
X14920500Y-10437500D01*
X14949071Y-10423214D01*
X14991928Y-10423214D01*
X15020500Y-10437500D01*
X15034786Y-10466072D01*
X15034786Y-10623214D01*
X15177643Y-10623214D02*
X15177643Y-10423214D01*
X15177643Y-10451786D02*
X15191928Y-10437500D01*
X15220500Y-10423214D01*
X15263357Y-10423214D01*
X15291928Y-10437500D01*
X15306214Y-10466072D01*
X15306214Y-10623214D01*
X15306214Y-10466072D02*
X15320500Y-10437500D01*
X15349071Y-10423214D01*
X15391928Y-10423214D01*
X15420500Y-10437500D01*
X15434786Y-10466072D01*
X15434786Y-10623214D01*
X16020500Y-10308929D02*
X15763357Y-10694643D01*
X16406214Y-10323214D02*
X16434786Y-10323214D01*
X16463357Y-10337500D01*
X16477643Y-10351786D01*
X16491928Y-10380357D01*
X16506214Y-10437500D01*
X16506214Y-10508929D01*
X16491928Y-10566072D01*
X16477643Y-10594643D01*
X16463357Y-10608929D01*
X16434786Y-10623214D01*
X16406214Y-10623214D01*
X16377643Y-10608929D01*
X16363357Y-10594643D01*
X16349071Y-10566072D01*
X16334786Y-10508929D01*
X16334786Y-10437500D01*
X16349071Y-10380357D01*
X16363357Y-10351786D01*
X16377643Y-10337500D01*
X16406214Y-10323214D01*
X16634786Y-10594643D02*
X16649071Y-10608929D01*
X16634786Y-10623214D01*
X16620500Y-10608929D01*
X16634786Y-10594643D01*
X16634786Y-10623214D01*
X16834786Y-10323214D02*
X16863357Y-10323214D01*
X16891928Y-10337500D01*
X16906214Y-10351786D01*
X16920500Y-10380357D01*
X16934786Y-10437500D01*
X16934786Y-10508929D01*
X16920500Y-10566072D01*
X16906214Y-10594643D01*
X16891928Y-10608929D01*
X16863357Y-10623214D01*
X16834786Y-10623214D01*
X16806214Y-10608929D01*
X16791928Y-10594643D01*
X16777643Y-10566072D01*
X16763357Y-10508929D01*
X16763357Y-10437500D01*
X16777643Y-10380357D01*
X16791928Y-10351786D01*
X16806214Y-10337500D01*
X16834786Y-10323214D01*
X17034786Y-10323214D02*
X17220500Y-10323214D01*
X17120500Y-10437500D01*
X17163357Y-10437500D01*
X17191928Y-10451786D01*
X17206214Y-10466072D01*
X17220500Y-10494643D01*
X17220500Y-10566072D01*
X17206214Y-10594643D01*
X17191928Y-10608929D01*
X17163357Y-10623214D01*
X17077643Y-10623214D01*
X17049071Y-10608929D01*
X17034786Y-10594643D01*
X17363357Y-10623214D02*
X17420500Y-10623214D01*
X17449071Y-10608929D01*
X17463357Y-10594643D01*
X17491928Y-10551786D01*
X17506214Y-10494643D01*
X17506214Y-10380357D01*
X17491928Y-10351786D01*
X17477643Y-10337500D01*
X17449071Y-10323214D01*
X17391928Y-10323214D01*
X17363357Y-10337500D01*
X17349071Y-10351786D01*
X17334786Y-10380357D01*
X17334786Y-10451786D01*
X17349071Y-10480357D01*
X17363357Y-10494643D01*
X17391928Y-10508929D01*
X17449071Y-10508929D01*
X17477643Y-10494643D01*
X17491928Y-10480357D01*
X17506214Y-10451786D01*
X17763357Y-10423214D02*
X17763357Y-10623214D01*
X17691928Y-10308929D02*
X17620500Y-10523214D01*
X17806214Y-10523214D01*
X17906214Y-10323214D02*
X17906214Y-10380357D01*
X18020500Y-10323214D02*
X18020500Y-10380357D01*
X18463357Y-10737500D02*
X18449071Y-10723214D01*
X18420500Y-10680357D01*
X18406214Y-10651786D01*
X18391928Y-10608929D01*
X18377643Y-10537500D01*
X18377643Y-10480357D01*
X18391928Y-10408929D01*
X18406214Y-10366072D01*
X18420500Y-10337500D01*
X18449071Y-10294643D01*
X18463357Y-10280357D01*
X18549071Y-10323214D02*
X18734786Y-10323214D01*
X18634786Y-10437500D01*
X18677643Y-10437500D01*
X18706214Y-10451786D01*
X18720500Y-10466072D01*
X18734786Y-10494643D01*
X18734786Y-10566072D01*
X18720500Y-10594643D01*
X18706214Y-10608929D01*
X18677643Y-10623214D01*
X18591928Y-10623214D01*
X18563357Y-10608929D01*
X18549071Y-10594643D01*
X18834786Y-10323214D02*
X19034786Y-10323214D01*
X18906214Y-10623214D01*
X19377643Y-10623214D02*
X19377643Y-10323214D01*
X19506214Y-10623214D02*
X19506214Y-10466072D01*
X19491928Y-10437500D01*
X19463357Y-10423214D01*
X19420500Y-10423214D01*
X19391928Y-10437500D01*
X19377643Y-10451786D01*
X19691928Y-10623214D02*
X19663357Y-10608929D01*
X19649071Y-10594643D01*
X19634786Y-10566072D01*
X19634786Y-10480357D01*
X19649071Y-10451786D01*
X19663357Y-10437500D01*
X19691928Y-10423214D01*
X19734786Y-10423214D01*
X19763357Y-10437500D01*
X19777643Y-10451786D01*
X19791928Y-10480357D01*
X19791928Y-10566072D01*
X19777643Y-10594643D01*
X19763357Y-10608929D01*
X19734786Y-10623214D01*
X19691928Y-10623214D01*
X19963357Y-10623214D02*
X19934786Y-10608929D01*
X19920500Y-10580357D01*
X19920500Y-10323214D01*
X20191928Y-10608929D02*
X20163357Y-10623214D01*
X20106214Y-10623214D01*
X20077643Y-10608929D01*
X20063357Y-10580357D01*
X20063357Y-10466072D01*
X20077643Y-10437500D01*
X20106214Y-10423214D01*
X20163357Y-10423214D01*
X20191928Y-10437500D01*
X20206214Y-10466072D01*
X20206214Y-10494643D01*
X20063357Y-10523214D01*
X20320500Y-10608929D02*
X20349071Y-10623214D01*
X20406214Y-10623214D01*
X20434786Y-10608929D01*
X20449071Y-10580357D01*
X20449071Y-10566072D01*
X20434786Y-10537500D01*
X20406214Y-10523214D01*
X20363357Y-10523214D01*
X20334786Y-10508929D01*
X20320500Y-10480357D01*
X20320500Y-10466072D01*
X20334786Y-10437500D01*
X20363357Y-10423214D01*
X20406214Y-10423214D01*
X20434786Y-10437500D01*
X20549071Y-10737500D02*
X20563357Y-10723214D01*
X20591928Y-10680357D01*
X20606214Y-10651786D01*
X20620500Y-10608929D01*
X20634786Y-10537500D01*
X20634786Y-10480357D01*
X20620500Y-10408929D01*
X20606214Y-10366072D01*
X20591928Y-10337500D01*
X20563357Y-10294643D01*
X20549071Y-10280357D01*
M02*
